<svg width="214" height="221" viewBox="0 0 214 221" fill="none" xmlns="http://www.w3.org/2000/svg">
<path fill-rule="evenodd" clip-rule="evenodd" d="M93.489 328.373L97.93 359.976C98.4234 364.42 95.4628 368.865 91.0218 369.358C86.5808 369.852 82.1398 366.889 81.6464 362.445L74.7382 314.053L93.489 328.373ZM178.854 198.505L208.461 210.356C212.902 211.837 214.876 216.775 212.902 221.219C211.422 225.663 206.487 227.639 202.046 225.663L156.65 207.393L178.854 198.505ZM108.786 59.7475L133.951 39.9956C137.405 37.0328 142.833 38.0204 145.3 41.477C148.261 44.9336 147.274 50.3654 143.82 52.8344L105.332 83.4498L108.786 59.7475ZM153.689 275.043L173.427 300.227C176.387 303.683 175.4 309.115 171.946 311.584C168.492 314.547 163.064 313.559 160.597 310.103L130.004 271.587L153.689 275.043ZM162.571 119.991L194.151 115.547C198.592 115.053 203.033 118.016 203.527 122.46C204.02 126.904 201.059 131.348 196.618 131.842L148.261 138.755L162.571 119.991ZM32.3022 34.5639L44.1448 4.93602C46.1186 0.985643 51.053 -0.989546 55.0005 0.491845C59.4415 1.97324 61.4153 6.91121 59.4415 11.3554L41.1842 56.7847L32.3022 34.5639ZM-106.355 104.683L-126.093 79.4994C-129.053 76.0428 -128.066 70.6111 -124.612 68.1421C-121.158 65.1793 -115.73 66.1669 -113.263 69.6235L-83.1632 108.14L-106.355 104.683ZM-46.155 50.8592L-50.596 19.7499C-51.0894 15.3058 -48.1288 10.8616 -43.6878 10.3678C-39.2468 9.87399 -34.8059 12.8368 -34.3124 17.281L-27.4042 65.6731L-46.155 50.8592ZM14.5383 345.162L2.69572 374.79C1.21539 379.234 -3.71902 381.21 -8.16 379.234C-12.601 377.753 -14.5748 372.815 -12.601 368.371L5.65637 322.941L14.5383 345.162ZM-131.52 180.728L-161.127 168.877C-165.568 167.395 -167.542 162.457 -165.568 158.013C-164.088 153.569 -159.153 151.594 -154.712 153.569L-109.316 171.839L-131.52 180.728ZM-115.237 259.735L-146.324 264.18C-151.258 264.673 -155.206 261.711 -155.699 257.266C-156.193 252.822 -153.232 248.378 -148.791 247.884L-100.434 240.971L-115.237 259.735ZM-61.4517 319.979L-86.6172 339.731C-90.0713 342.693 -95.4992 341.706 -97.9664 338.249C-100.927 334.793 -99.9402 329.361 -96.4861 326.892L-57.9976 296.77L-61.4517 319.979ZM202.046 153.569C206.487 152.088 210.928 154.063 212.902 158.013C214.382 162.457 212.408 166.902 208.461 168.877L137.405 197.517C132.964 198.998 128.523 197.023 126.55 193.073C125.069 188.629 127.043 184.184 130.991 182.209L202.046 153.569ZM143.82 326.398C147.274 329.361 148.261 334.299 145.3 337.755C142.34 341.212 137.405 342.2 133.951 339.237L74.2448 292.326C70.7907 289.363 69.8038 284.425 72.7645 280.969C75.7251 277.512 80.6595 276.525 84.1136 279.487L143.82 326.398ZM196.125 247.884C200.566 248.378 203.527 252.822 203.033 257.266C202.54 261.711 198.099 264.673 193.658 264.18L118.161 253.316C113.72 252.822 110.759 248.378 111.253 243.934C111.746 239.49 116.187 236.033 120.628 237.021L196.125 247.884ZM81.6464 17.281C82.1398 12.8368 86.5808 9.3802 91.0218 10.3678C95.4628 10.8616 98.4234 14.812 97.93 19.7499L87.0742 95.3009C86.5808 99.7451 82.1398 102.708 77.6989 102.214C73.2579 101.72 70.2972 97.2761 70.7907 92.8319L81.6464 17.281ZM160.104 69.1297C163.064 65.6731 167.999 64.6855 171.453 67.6483C174.907 70.6111 175.894 75.549 172.933 79.0056L126.056 138.755C123.095 142.212 118.161 143.199 114.707 140.236C111.253 137.274 110.266 132.336 113.227 128.879L160.104 69.1297ZM-12.601 11.3554C-14.0813 6.91121 -12.1075 2.46703 -8.16 0.491845C-3.71902 -0.989546 0.721954 0.985643 2.69572 4.93602L31.3153 76.0428C32.7957 80.487 30.8219 84.9312 26.8744 86.9064C22.4334 88.3878 17.9924 86.4126 16.0187 82.4622L-12.601 11.3554ZM-154.712 225.663C-159.153 227.145 -163.594 225.17 -165.568 221.219C-167.048 217.269 -165.074 212.331 -160.634 210.356L-90.0713 181.715C-85.6304 180.234 -81.1894 182.209 -79.2156 186.16C-77.7353 190.604 -79.7091 195.048 -83.6566 197.023L-154.712 225.663ZM-148.791 131.842C-153.232 131.348 -156.193 126.904 -155.699 122.46C-155.206 118.016 -150.765 115.053 -146.324 115.547L-70.8271 126.41C-66.3861 126.904 -62.932 131.348 -63.9189 135.792C-64.4124 140.236 -68.8533 143.693 -73.2943 142.705L-148.791 131.842ZM-96.9795 53.3282C-100.434 50.3654 -101.42 45.4274 -98.4598 41.9708C-95.4992 38.5142 -90.5648 37.5266 -87.1107 40.4894L-27.4042 87.4002C-23.9501 90.363 -22.9633 95.3009 -25.9239 98.7575C-28.8846 102.214 -33.819 103.202 -37.2731 100.239L-96.9795 53.3282ZM59.4415 368.371C60.9218 372.815 58.9481 377.259 55.0005 379.234C50.5596 380.716 46.1186 378.741 44.1448 374.79L16.0187 304.177C14.5383 299.733 16.5121 295.289 20.4596 293.314C24.9006 291.832 29.3416 293.807 31.3153 297.758L59.4415 368.371ZM-34.3124 362.445C-34.8059 366.889 -39.2468 370.346 -43.6878 369.358C-48.1288 368.865 -51.0894 364.42 -50.596 359.976L-39.7403 284.425C-39.2468 279.981 -34.8059 277.018 -30.3649 277.512C-25.9239 278.006 -22.9633 282.45 -23.4567 286.894L-34.3124 362.445ZM-112.77 310.103C-115.73 313.559 -120.665 314.547 -124.119 311.584C-127.573 308.621 -128.56 303.683 -125.599 300.227L-78.7222 240.477C-75.7615 237.021 -70.8271 236.033 -67.373 238.996C-63.9189 241.959 -62.932 246.897 -65.8927 250.353L-112.77 310.103ZM-28.3911 137.767C-41.7141 151.1 -50.1026 169.37 -50.1026 190.11C-50.1026 210.356 -41.7141 229.12 -28.3911 242.452C-15.0682 255.785 3.18916 264.18 23.9137 264.18C44.1448 264.18 62.8956 255.785 76.2185 242.452C89.5415 229.12 97.93 210.849 97.93 190.11C97.93 169.864 89.5415 151.1 76.2185 137.767C62.8956 124.435 44.6383 116.04 23.9137 116.04C3.18916 116.04 -15.0682 124.435 -28.3911 137.767ZM-66.8796 189.616C-66.8796 164.926 -57.0107 142.212 -40.2337 125.916C-23.9501 109.621 -1.2518 99.2513 23.4203 99.2513C48.0924 99.2513 70.7907 109.127 87.0742 125.916C103.358 142.212 113.72 164.926 113.72 189.616C113.72 214.306 103.851 237.021 87.0742 253.316C70.7907 269.611 48.0924 279.981 23.4203 279.981C-1.2518 279.981 -23.9501 270.105 -40.2337 253.316C-56.5173 237.515 -66.8796 214.8 -66.8796 189.616Z" fill="#726EBC"/>
</svg>
