<svg width="371" height="371" viewBox="0 0 371 371" fill="none" xmlns="http://www.w3.org/2000/svg">
<path fill-rule="evenodd" clip-rule="evenodd" d="M253.668 320.596L258.004 351.451C258.486 355.789 255.595 360.128 251.26 360.61C246.924 361.093 242.588 358.2 242.106 353.861L235.362 306.615L253.668 320.596ZM337.012 193.803L365.917 205.374C370.253 206.82 372.18 211.641 370.253 215.98C368.808 220.319 363.99 222.247 359.654 220.319L315.333 202.481L337.012 193.803ZM268.603 58.3324L293.172 39.0484C296.544 36.1558 301.844 37.12 304.253 40.4947C307.143 43.8694 306.18 49.1725 302.807 51.583L265.23 81.4733L268.603 58.3324ZM312.442 268.529L331.713 293.116C334.603 296.491 333.64 301.794 330.267 304.204C326.895 307.097 321.596 306.133 319.187 302.758L289.318 265.154L312.442 268.529ZM321.114 117.149L351.946 112.81C356.282 112.328 360.618 115.22 361.1 119.559C361.581 123.898 358.691 128.237 354.355 128.719L307.143 135.469L321.114 117.149ZM193.931 33.7452L205.493 4.81912C207.42 0.962299 212.237 -0.96611 216.091 0.480196C220.427 1.9265 222.354 6.74752 220.427 11.0864L202.602 55.4398L193.931 33.7452ZM58.5576 102.204L39.2874 77.6165C36.3968 74.2418 37.3603 68.9387 40.7326 66.5282C44.1049 63.6356 49.4042 64.5998 51.813 67.9745L81.2 105.578L58.5576 102.204ZM117.332 49.6546L112.996 19.2822C112.514 14.9433 115.405 10.6043 119.74 10.1222C124.076 9.64013 128.412 12.5327 128.894 16.8717L135.638 64.1177L117.332 49.6546ZM176.588 336.987L165.025 365.914C163.58 370.252 158.763 372.181 154.427 370.252C150.091 368.806 148.164 363.985 150.091 359.646L167.916 315.293L176.588 336.987ZM33.9881 176.447L5.08276 164.877C0.74697 163.431 -1.18005 158.61 0.74697 154.271C2.19223 149.932 7.00978 148.003 11.3456 149.932L55.667 167.77L33.9881 176.447ZM49.886 253.584L19.5354 257.923C14.7179 258.405 10.8638 255.512 10.3821 251.173C9.90031 246.834 12.7908 242.495 17.1266 242.013L64.3386 235.264L49.886 253.584ZM102.397 312.4L77.8278 331.684C74.4555 334.577 69.1562 333.613 66.7474 330.238C63.8569 326.863 64.8204 321.56 68.1927 319.15L105.77 289.741L102.397 312.4ZM359.654 149.932C363.99 148.486 368.326 150.414 370.253 154.271C371.698 158.61 369.771 162.949 365.917 164.877L296.544 192.839C292.209 194.285 287.873 192.357 285.946 188.5C284.501 184.161 286.428 179.822 290.282 177.894L359.654 149.932ZM302.807 318.668C306.18 321.56 307.143 326.381 304.253 329.756C301.362 333.131 296.544 334.095 293.172 331.202L234.88 285.402C231.508 282.51 230.544 277.689 233.435 274.314C236.325 270.939 241.143 269.975 244.515 272.868L302.807 318.668ZM353.873 242.013C358.209 242.495 361.1 246.834 360.618 251.173C360.136 255.512 355.8 258.405 351.465 257.923L277.756 247.316C273.42 246.834 270.53 242.495 271.012 238.157C271.493 233.818 275.829 230.443 280.165 231.407L353.873 242.013ZM242.106 16.8717C242.588 12.5327 246.924 9.15803 251.26 10.1222C255.595 10.6043 258.486 14.4612 258.004 19.2822L247.406 93.0438C246.924 97.3827 242.588 100.275 238.252 99.7932C233.916 99.3111 231.026 94.9722 231.508 90.6333L242.106 16.8717ZM318.705 67.4924C321.596 64.1177 326.413 63.1535 329.786 66.0461C333.158 68.9387 334.121 73.7597 331.231 77.1344L285.464 135.469C282.574 138.843 277.756 139.808 274.384 136.915C271.012 134.022 270.048 129.201 272.939 125.827L318.705 67.4924ZM150.091 11.0864C148.646 6.74752 150.573 2.4086 154.427 0.480196C158.763 -0.96611 163.098 0.962299 165.025 4.81912L192.967 74.2418C194.412 78.5807 192.485 82.9197 188.631 84.8481C184.296 86.2944 179.96 84.366 178.033 80.5091L150.091 11.0864ZM11.3456 220.319C7.00978 221.765 2.67399 219.837 0.74697 215.98C-0.698295 212.123 1.22872 207.302 5.56452 205.374L74.4555 177.412C78.7913 175.965 83.1271 177.894 85.0541 181.751C86.4994 186.089 84.5723 190.428 80.7183 192.357L11.3456 220.319ZM17.1266 128.719C12.7908 128.237 9.90031 123.898 10.3821 119.559C10.8638 115.22 15.1996 112.328 19.5354 112.81L93.2439 123.416C97.5797 123.898 100.952 128.237 99.9885 132.576C99.5067 136.915 95.1709 140.29 90.8351 139.326L17.1266 128.719ZM67.7109 52.0651C64.3386 49.1725 63.3751 44.3515 66.2656 40.9768C69.1562 37.6021 73.9737 36.6379 77.346 39.5305L135.638 85.3302C139.011 88.2228 139.974 93.0438 137.084 96.4185C134.193 99.7932 129.376 100.757 126.003 97.8648L67.7109 52.0651ZM220.427 359.646C221.872 363.985 219.945 368.324 216.091 370.252C211.756 371.699 207.42 369.77 205.493 365.914L178.033 296.973C176.588 292.634 178.515 288.295 182.369 286.367C186.704 284.92 191.04 286.849 192.967 290.706L220.427 359.646ZM128.894 353.861C128.412 358.2 124.076 361.575 119.74 360.61C115.405 360.128 112.514 355.789 112.996 351.451L123.594 277.689C124.076 273.35 128.412 270.457 132.748 270.939C137.084 271.422 139.974 275.76 139.492 280.099L128.894 353.861ZM52.2947 302.758C49.4042 306.133 44.5867 307.097 41.2144 304.204C37.8421 301.312 36.8786 296.491 39.7691 293.116L85.5358 234.782C88.4264 231.407 93.2439 230.443 96.6162 233.335C99.9885 236.228 100.952 241.049 98.0615 244.424L52.2947 302.758ZM134.675 134.505C121.667 147.521 113.478 165.359 113.478 185.607C113.478 205.374 121.667 223.693 134.675 236.71C147.682 249.727 165.507 257.923 185.741 257.923C205.493 257.923 223.799 249.727 236.807 236.71C249.814 223.693 258.004 205.856 258.004 185.607C258.004 165.841 249.814 147.521 236.807 134.505C223.799 121.488 205.975 113.292 185.741 113.292C165.507 113.292 147.682 121.488 134.675 134.505ZM97.098 185.125C97.098 161.02 106.733 138.843 123.113 122.934C139.011 107.025 161.171 96.9006 185.259 96.9006C209.347 96.9006 231.508 106.543 247.406 122.934C263.303 138.843 273.42 161.02 273.42 185.125C273.42 209.23 263.785 231.407 247.406 247.316C231.508 263.226 209.347 273.35 185.259 273.35C161.171 273.35 139.011 263.708 123.113 247.316C107.215 231.889 97.098 209.712 97.098 185.125Z" fill="#D9BA5B" fill-opacity="0.15"/>
</svg>
