<svg width="279" height="279" viewBox="0 0 279 279" fill="none" xmlns="http://www.w3.org/2000/svg">
<path fill-rule="evenodd" clip-rule="evenodd" d="M190.764 241.095L194.025 264.298C194.387 267.561 192.213 270.824 188.953 271.187C185.692 271.549 182.431 269.374 182.069 266.111L176.997 230.581L190.764 241.095ZM253.44 145.744L275.178 154.445C278.438 155.533 279.887 159.159 278.438 162.421C277.351 165.684 273.728 167.135 270.468 165.684L237.137 152.27L253.44 145.744ZM201.995 43.8673L220.472 29.3652C223.008 27.1899 226.993 27.915 228.805 30.4529C230.978 32.9907 230.254 36.9788 227.718 38.7915L199.459 61.2697L201.995 43.8673ZM234.963 201.94L249.455 220.43C251.629 222.968 250.904 226.956 248.368 228.768C245.832 230.944 241.847 230.219 240.035 227.681L217.574 199.402L234.963 201.94ZM241.485 88.0985L264.671 84.8355C267.932 84.473 271.192 86.6483 271.555 89.9112C271.917 93.1742 269.743 96.4372 266.483 96.7997L230.978 101.875L241.485 88.0985ZM145.84 25.3771L154.535 3.62408C155.984 0.723669 159.607 -0.726535 162.505 0.361118C165.766 1.44877 167.215 5.07428 165.766 8.33724L152.361 41.6919L145.84 25.3771ZM44.0365 76.8594L29.5449 58.3693C27.3712 55.8314 28.0958 51.8434 30.6318 50.0306C33.1678 47.8553 37.153 48.5804 38.9645 51.1183L61.0642 79.3973L44.0365 76.8594ZM88.2359 37.3413L84.9753 14.5006C84.613 11.2377 86.7868 7.97469 90.0474 7.61214C93.308 7.24959 96.5686 9.4249 96.9309 12.6879L102.003 48.2179L88.2359 37.3413ZM132.798 253.422L124.103 275.175C123.016 278.438 119.393 279.888 116.132 278.438C112.872 277.35 111.423 273.725 112.872 270.462L126.276 237.107L132.798 253.422ZM25.5598 132.692L3.82235 123.991C0.561737 122.903 -0.887423 119.278 0.561737 116.015C1.64861 112.752 5.27151 111.302 8.53212 112.752L41.8628 126.166L25.5598 132.692ZM37.5153 190.7L14.6911 193.963C11.0682 194.326 8.16983 192.151 7.80754 188.888C7.44525 185.625 9.61899 182.362 12.8796 181.999L48.384 176.924L37.5153 190.7ZM77.005 234.932L58.5282 249.434C55.9921 251.609 52.0069 250.884 50.1955 248.346C48.0217 245.808 48.7463 241.82 51.2824 240.007L79.541 217.892L77.005 234.932ZM270.468 112.752C273.728 111.664 276.989 113.115 278.438 116.015C279.525 119.278 278.076 122.541 275.178 123.991L223.008 145.019C219.747 146.107 216.487 144.656 215.037 141.756C213.951 138.493 215.4 135.23 218.298 133.78L270.468 112.752ZM227.718 239.645C230.254 241.82 230.978 245.446 228.805 247.984C226.631 250.521 223.008 251.246 220.472 249.071L176.635 214.629C174.099 212.454 173.374 208.828 175.548 206.29C177.722 203.752 181.344 203.027 183.881 205.202L227.718 239.645ZM266.12 181.999C269.381 182.362 271.555 185.625 271.192 188.888C270.83 192.151 267.57 194.326 264.309 193.963L208.879 185.987C205.618 185.625 203.444 182.362 203.806 179.099C204.169 175.836 207.429 173.298 210.69 174.023L266.12 181.999ZM182.069 12.6879C182.431 9.4249 185.692 6.88704 188.953 7.61214C192.213 7.97469 194.387 10.8751 194.025 14.5006L186.054 69.9709C185.692 73.2339 182.431 75.4092 179.171 75.0467C175.91 74.6841 173.736 71.4211 174.099 68.1582L182.069 12.6879ZM239.673 50.7557C241.847 48.2179 245.47 47.4928 248.006 49.6681C250.542 51.8434 251.266 55.4689 249.093 58.0068L214.675 101.875C212.501 104.413 208.879 105.138 206.343 102.963C203.806 100.788 203.082 97.1623 205.256 94.6244L239.673 50.7557ZM112.872 8.33724C111.785 5.07428 113.234 1.81132 116.132 0.361118C119.393 -0.726535 122.654 0.723669 124.103 3.62408L145.115 55.8314C146.202 59.0944 144.753 62.3574 141.855 63.8076C138.594 64.8952 135.334 63.445 133.885 60.5446L112.872 8.33724ZM8.53212 165.684C5.27151 166.772 2.0109 165.322 0.561737 162.421C-0.525133 159.521 0.924028 155.896 4.18464 154.445L55.9921 133.417C59.2527 132.33 62.5133 133.78 63.9625 136.68C65.0494 139.943 63.6002 143.206 60.7019 144.656L8.53212 165.684ZM12.8796 96.7997C9.61899 96.4372 7.44525 93.1742 7.80754 89.9112C8.16983 86.6483 11.4304 84.473 14.6911 84.8355L70.1214 92.8117C73.382 93.1742 75.9181 96.4372 75.1935 99.7001C74.8312 102.963 71.5706 105.501 68.31 104.776L12.8796 96.7997ZM50.9201 39.1541C48.384 36.9788 47.6595 33.3533 49.8332 30.8154C52.0069 28.2776 55.6298 27.5525 58.1659 29.7278L102.003 64.1701C104.539 66.3454 105.264 69.9709 103.09 72.5088C100.916 75.0467 97.2932 75.7718 94.7572 73.5965L50.9201 39.1541ZM165.766 270.462C166.853 273.725 165.404 276.988 162.505 278.438C159.245 279.526 155.984 278.075 154.535 275.175L133.885 223.33C132.798 220.067 134.247 216.804 137.145 215.354C140.406 214.266 143.666 215.716 145.115 218.617L165.766 270.462ZM96.9309 266.111C96.5686 269.374 93.308 271.912 90.0474 271.187C86.7868 270.824 84.613 267.561 84.9753 264.298L92.9457 208.828C93.308 205.565 96.5686 203.39 99.8292 203.752C103.09 204.115 105.264 207.378 104.901 210.641L96.9309 266.111ZM39.3268 227.681C37.153 230.219 33.5301 230.944 30.9941 228.768C28.4581 226.593 27.7335 222.968 29.9072 220.43L64.3248 176.561C66.4985 174.023 70.1214 173.298 72.6575 175.473C75.1935 177.649 75.9181 181.274 73.7443 183.812L39.3268 227.681ZM101.278 101.15C91.4966 110.939 85.3376 124.354 85.3376 139.581C85.3376 154.445 91.4966 168.222 101.278 178.011C111.06 187.8 124.465 193.963 139.681 193.963C154.535 193.963 168.302 187.8 178.084 178.011C187.866 168.222 194.025 154.808 194.025 139.581C194.025 124.716 187.866 110.939 178.084 101.15C168.302 91.3615 154.897 85.1981 139.681 85.1981C124.465 85.1981 111.06 91.3615 101.278 101.15ZM73.0198 139.218C73.0198 121.091 80.2656 104.413 92.5834 92.4491C104.539 80.4849 121.204 72.8713 139.319 72.8713C157.433 72.8713 174.099 80.1224 186.054 92.4491C198.01 104.413 205.618 121.091 205.618 139.218C205.618 157.346 198.372 174.023 186.054 185.987C174.099 197.951 157.433 205.565 139.319 205.565C121.204 205.565 104.539 198.314 92.5834 185.987C80.6278 174.386 73.0198 157.708 73.0198 139.218Z" fill="#D9BA5B" fill-opacity="0.35"/>
</svg>
