<svg width="169" height="146" viewBox="0 0 169 146" fill="none" xmlns="http://www.w3.org/2000/svg">
<path fill-rule="evenodd" clip-rule="evenodd" d="M170.936 216.05L173.857 236.841C174.182 239.765 172.234 242.689 169.312 243.014C166.391 243.338 163.469 241.389 163.144 238.465L158.599 206.629L170.936 216.05ZM227.097 130.61L246.575 138.407C249.497 139.381 250.795 142.63 249.497 145.554C248.523 148.477 245.276 149.777 242.355 148.477L212.489 136.457L227.097 130.61ZM180.999 39.3222L197.555 26.3276C199.828 24.3784 203.399 25.0281 205.022 27.3022C206.97 29.5762 206.32 33.1498 204.048 34.7741L178.727 54.9158L180.999 39.3222ZM210.541 180.964L223.526 197.532C225.474 199.806 224.825 203.38 222.552 205.004C220.28 206.953 216.709 206.304 215.086 204.03L194.958 178.69L210.541 180.964ZM216.384 78.9559L237.161 76.0322C240.082 75.7073 243.004 77.6565 243.329 80.5803C243.653 83.5041 241.705 86.4279 238.784 86.7528L206.97 91.3009L216.384 78.9559ZM130.681 22.754L138.472 3.26203C139.771 0.663098 143.017 -0.636369 145.614 0.338231C148.536 1.31283 149.834 4.5615 148.536 7.4853L136.524 37.373L130.681 22.754ZM39.4593 68.8851L26.474 52.3169C24.5262 50.0428 25.1754 46.4693 27.4479 44.845C29.7203 42.8958 33.2913 43.5455 34.9144 45.8196L54.717 71.1591L39.4593 68.8851ZM79.0645 33.4746L76.1428 13.008C75.8181 10.0842 77.7659 7.16043 80.6876 6.83556C83.6093 6.5107 86.531 8.4599 86.8557 11.3837L91.4005 43.2206L79.0645 33.4746ZM118.994 227.095L111.203 246.587C110.229 249.511 106.983 250.81 104.061 249.511C101.139 248.536 99.841 245.288 101.139 242.364L113.151 212.476L118.994 227.095ZM22.903 118.915L3.42504 111.118C0.503349 110.143 -0.795182 106.894 0.503349 103.971C1.47725 101.047 4.72357 99.7474 7.64527 101.047L37.5115 113.067L22.903 118.915ZM33.6159 170.893L13.164 173.817C9.9177 174.142 7.32064 172.193 6.996 169.269C6.67137 166.345 8.61917 163.421 11.5409 163.096L43.3549 158.548L33.6159 170.893ZM69.0009 210.527L52.4446 223.522C50.1722 225.471 46.6012 224.821 44.978 222.547C43.0302 220.273 43.6795 216.699 45.9519 215.075L71.2733 195.258L69.0009 210.527ZM242.355 101.047C245.276 100.072 248.198 101.372 249.497 103.971C250.471 106.894 249.172 109.818 246.575 111.118L199.828 129.96C196.906 130.935 193.984 129.635 192.686 127.036C191.712 124.112 193.011 121.189 195.608 119.889L242.355 101.047ZM204.048 214.75C206.32 216.699 206.97 219.948 205.022 222.222C203.074 224.496 199.828 225.146 197.555 223.197L158.275 192.334C156.002 190.385 155.353 187.137 157.301 184.862C159.249 182.588 162.495 181.939 164.768 183.888L204.048 214.75ZM238.459 163.096C241.381 163.421 243.329 166.345 243.004 169.269C242.679 172.193 239.758 174.142 236.836 173.817L187.167 166.67C184.245 166.345 182.298 163.421 182.622 160.497C182.947 157.574 185.869 155.3 188.79 155.949L238.459 163.096ZM163.144 11.3837C163.469 8.4599 166.391 6.18583 169.312 6.83556C172.234 7.16043 174.182 9.75936 173.857 13.008L166.715 62.7126C166.391 65.6364 163.469 67.5856 160.547 67.2608C157.626 66.9359 155.678 64.0121 156.002 61.0883L163.144 11.3837ZM214.761 45.4947C216.709 43.2206 219.955 42.5709 222.228 44.5201C224.5 46.4693 225.149 49.718 223.201 51.992L192.361 91.3009C190.413 93.575 187.167 94.2247 184.895 92.2755C182.622 90.3263 181.973 87.0776 183.921 84.8036L214.761 45.4947ZM101.139 7.4853C100.166 4.5615 101.464 1.6377 104.061 0.338231C106.983 -0.636369 109.905 0.663098 111.203 3.26203L130.032 50.0428C131.006 52.9666 129.707 55.8904 127.11 57.1899C124.188 58.1645 121.267 56.865 119.968 54.2661L101.139 7.4853ZM7.64527 148.477C4.72357 149.452 1.80188 148.153 0.503349 145.554C-0.470549 142.955 0.827982 139.706 3.74968 138.407L50.1722 119.564C53.0938 118.59 56.0155 119.889 57.3141 122.488C58.288 125.412 56.9894 128.336 54.3924 129.635L7.64527 148.477ZM11.5409 86.7528C8.61917 86.4279 6.67137 83.5041 6.996 80.5803C7.32064 77.6565 10.2423 75.7073 13.164 76.0322L62.8328 83.1792C65.7545 83.5041 68.027 86.4279 67.3777 89.3517C67.0531 92.2755 64.1314 94.5496 61.2097 93.8998L11.5409 86.7528ZM45.6273 35.099C43.3549 33.1498 42.7056 29.9011 44.6534 27.627C46.6012 25.353 49.8475 24.7032 52.1199 26.6524L91.4005 57.5148C93.6729 59.464 94.3222 62.7126 92.3744 64.9867C90.4266 67.2608 87.1803 67.9105 84.9079 65.9613L45.6273 35.099ZM148.536 242.364C149.51 245.288 148.211 248.211 145.614 249.511C142.692 250.486 139.771 249.186 138.472 246.587L119.968 200.131C118.994 197.207 120.293 194.284 122.89 192.984C125.812 192.01 128.733 193.309 130.032 195.908L148.536 242.364ZM86.8557 238.465C86.531 241.389 83.6093 243.663 80.6876 243.014C77.7659 242.689 75.8181 239.765 76.1428 236.841L83.2847 187.137C83.6093 184.213 86.531 182.264 89.4527 182.588C92.3744 182.913 94.3222 185.837 93.9976 188.761L86.8557 238.465ZM35.2391 204.03C33.2913 206.304 30.0449 206.953 27.7725 205.004C25.5001 203.055 24.8508 199.806 26.7986 197.532L57.6387 158.223C59.5865 155.949 62.8328 155.3 65.1053 157.249C67.3777 159.198 68.027 162.447 66.0792 164.721L35.2391 204.03ZM90.7512 90.6511C81.9862 99.4225 76.4674 111.443 76.4674 125.087C76.4674 138.407 81.9862 150.751 90.7512 159.523C99.5163 168.294 111.528 173.817 125.162 173.817C138.472 173.817 150.808 168.294 159.573 159.523C168.338 150.751 173.857 138.731 173.857 125.087C173.857 111.767 168.338 99.4225 159.573 90.6511C150.808 81.8798 138.797 76.357 125.162 76.357C111.528 76.357 99.5163 81.8798 90.7512 90.6511ZM65.4299 124.762C65.4299 108.519 71.9225 93.575 82.9601 82.8544C93.6729 72.1338 108.606 65.3116 124.838 65.3116C141.069 65.3116 156.002 71.8089 166.715 82.8544C177.428 93.575 184.245 108.519 184.245 124.762C184.245 141.005 177.753 155.949 166.715 166.67C156.002 177.391 141.069 184.213 124.838 184.213C108.606 184.213 93.6729 177.715 82.9601 166.67C72.2472 156.274 65.4299 141.33 65.4299 124.762Z" fill="#E0C693" fill-opacity="0.51"/>
</svg>
