<svg width="154" height="205" viewBox="0 0 154 205" fill="none" xmlns="http://www.w3.org/2000/svg">
<path fill-rule="evenodd" clip-rule="evenodd" d="M57.8576 162.713L61.4104 187.996C61.8051 191.551 59.4366 195.106 55.8838 195.501C52.3311 195.896 48.7783 193.526 48.3835 189.971L42.857 151.257L57.8576 162.713ZM126.15 58.8183L149.835 68.2992C153.388 69.4843 154.967 73.4347 153.388 76.99C152.204 80.5454 148.256 82.1255 144.703 80.5454L108.386 65.929L126.15 58.8183ZM70.095 -52.1873L90.2274 -67.9888C92.9907 -70.3591 97.3329 -69.569 99.3067 -66.8037C101.675 -64.0385 100.886 -59.6931 98.1225 -57.7179L67.3317 -33.2255L70.095 -52.1873ZM106.018 120.049L121.808 140.196C124.176 142.961 123.387 147.307 120.623 149.282C117.86 151.652 113.518 150.862 111.544 148.097L87.0694 117.284L106.018 120.049ZM113.123 -3.99273L138.387 -7.54807C141.94 -7.9431 145.493 -5.57288 145.888 -2.01753C146.282 1.5378 143.914 5.09315 140.361 5.48819L101.675 11.0187L113.123 -3.99273ZM8.90819 -72.3343L18.3823 -96.0365C19.9613 -99.1968 23.9088 -100.777 27.0668 -99.5919C30.6196 -98.4068 32.1986 -94.4564 30.6196 -90.901L16.0137 -54.5576L8.90819 -72.3343ZM-102.018 -16.2389L-117.808 -36.3858C-120.176 -39.1511 -119.387 -43.4965 -116.623 -45.4717C-113.86 -47.8419 -109.518 -47.0518 -107.544 -44.2866L-83.4641 -13.4736L-102.018 -16.2389ZM-53.8576 -59.298L-57.4104 -84.1854C-57.8051 -87.7407 -55.4366 -91.2961 -51.8838 -91.6911C-48.3311 -92.0862 -44.7783 -89.7159 -44.3835 -86.1606L-38.857 -47.4469L-53.8576 -59.298ZM-5.30295 176.145L-14.777 199.847C-15.9613 203.402 -19.9088 204.982 -23.4616 203.402C-27.0144 202.217 -28.5934 198.267 -27.0144 194.711L-12.4085 158.368L-5.30295 176.145ZM-122.15 44.5969L-145.835 35.116C-149.388 33.9309 -150.967 29.9805 -149.388 26.4252C-148.204 22.8698 -144.256 21.2897 -140.703 22.8699L-104.386 37.4862L-122.15 44.5969ZM-109.123 107.803L-133.993 111.358C-137.94 111.753 -141.098 109.383 -141.493 105.828C-141.888 102.272 -139.519 98.7171 -135.966 98.3221L-97.2805 92.7915L-109.123 107.803ZM-66.095 155.998L-86.2274 171.799C-88.9907 174.169 -93.3329 173.379 -95.3067 170.614C-97.6752 167.849 -96.8857 163.503 -94.1225 161.528L-63.3317 137.431L-66.095 155.998ZM144.703 22.8699C148.256 21.6847 151.809 23.2649 153.388 26.4252C154.572 29.9805 152.993 33.5359 149.835 35.116L92.9906 58.0282C89.4379 59.2133 85.8851 57.6332 84.3061 54.4729C83.1218 50.9175 84.7009 47.3622 87.8589 45.782L144.703 22.8699ZM98.1225 161.133C100.886 163.503 101.675 167.454 99.3067 170.219C96.9382 172.984 92.9907 173.774 90.2274 171.404L42.4622 133.875C39.699 131.505 38.9095 127.555 41.278 124.79C43.6465 122.024 47.594 121.234 50.3573 123.604L98.1225 161.133ZM139.966 98.3221C143.519 98.7171 145.888 102.272 145.493 105.828C145.098 109.383 141.545 111.753 137.993 111.358L77.5953 102.667C74.0425 102.272 71.674 98.7171 72.0687 95.1618C72.4635 91.6064 76.0163 88.8412 79.569 89.6312L139.966 98.3221ZM48.3835 -86.1606C48.7783 -89.7159 52.3311 -92.4812 55.8838 -91.6911C59.4366 -91.2961 61.8051 -88.1358 61.4104 -84.1854L52.7258 -23.7446C52.3311 -20.1893 48.7783 -17.819 45.2255 -18.2141C41.6727 -18.6091 39.3042 -22.1645 39.6989 -25.7198L48.3835 -86.1606ZM111.149 -44.6816C113.518 -47.4469 117.465 -48.237 120.229 -45.8667C122.992 -43.4965 123.781 -39.5461 121.413 -36.7809L83.9113 11.0187C81.5428 13.784 77.5953 14.5741 74.832 12.2038C72.0687 9.8336 71.2792 5.88322 73.6477 3.11796L111.149 -44.6816ZM-27.0144 -90.901C-28.1986 -94.4564 -26.6196 -98.0117 -23.4616 -99.5919C-19.9088 -100.777 -16.356 -99.1968 -14.777 -96.0365L8.11868 -39.1511C9.30293 -35.5957 7.72392 -32.0404 4.56589 -30.4603C1.01311 -29.2751 -2.53964 -30.8553 -4.11867 -34.0156L-27.0144 -90.901ZM-140.703 80.5454C-144.256 81.7305 -147.809 80.1503 -149.388 76.99C-150.572 73.8297 -148.993 69.8793 -145.44 68.2992L-88.9907 45.387C-85.4379 44.2019 -81.8851 45.782 -80.3061 48.9423C-79.1218 52.4977 -80.7008 56.053 -83.8589 57.6332L-140.703 80.5454ZM-135.966 5.48819C-139.519 5.09315 -141.888 1.5378 -141.493 -2.01753C-141.098 -5.57288 -137.545 -7.9431 -133.993 -7.54807L-73.5953 1.14277C-70.0425 1.53781 -67.2792 5.09315 -68.0687 8.64849C-68.4635 12.2038 -72.0163 14.9691 -75.569 14.179L-135.966 5.48819ZM-94.5172 -57.3228C-97.2805 -59.6931 -98.07 -63.6434 -95.7015 -66.4087C-93.3329 -69.174 -89.3854 -69.964 -86.6221 -67.5938L-38.857 -30.0652C-36.0937 -27.695 -35.3042 -23.7446 -37.6727 -20.9793C-40.0412 -18.2141 -43.9888 -17.424 -46.7521 -19.7942L-94.5172 -57.3228ZM30.6196 194.711C31.8039 198.267 30.2249 201.822 27.0668 203.402C23.5141 204.587 19.9613 203.007 18.3823 199.847L-4.11867 143.356C-5.30292 139.801 -3.72392 136.246 -0.565903 134.666C2.98688 133.48 6.53967 135.061 8.11868 138.221L30.6196 194.711ZM-44.3835 189.971C-44.7783 193.526 -48.3311 196.291 -51.8838 195.501C-55.4366 195.106 -57.8051 191.551 -57.4104 187.996L-48.7258 127.555C-48.3311 124 -44.7783 121.629 -41.2255 122.024C-37.6727 122.419 -35.3042 125.975 -35.699 129.53L-44.3835 189.971ZM-107.149 148.097C-109.518 150.862 -113.465 151.652 -116.229 149.282C-118.992 146.912 -119.781 142.961 -117.413 140.196L-79.9113 92.3965C-77.5428 89.6312 -73.5953 88.8412 -70.832 91.2114C-68.0687 93.5816 -67.2792 97.532 -69.6477 100.297L-107.149 148.097ZM-39.6465 10.2286C-50.3048 20.8947 -57.0156 35.5111 -57.0156 52.1026C-57.0156 68.2992 -50.3048 83.3106 -39.6465 93.9766C-28.9882 104.643 -14.3823 111.358 2.19737 111.358C18.3823 111.358 33.3829 104.643 44.0412 93.9766C54.6996 83.3106 61.4104 68.6942 61.4104 52.1026C61.4104 35.9061 54.6996 20.8947 44.0412 10.2286C33.3829 -0.437386 18.777 -7.15302 2.19737 -7.15302C-14.3823 -7.15302 -28.9882 -0.437386 -39.6465 10.2286ZM-70.4372 51.7076C-70.4372 31.9557 -62.5422 13.784 -49.1206 0.747734C-36.0937 -12.2885 -17.935 -20.5843 1.80263 -20.5843C21.5403 -20.5843 39.699 -12.6835 52.7258 0.747734C65.7527 13.784 74.0425 31.9557 74.0425 51.7076C74.0425 71.4595 66.1474 89.6312 52.7258 102.667C39.699 115.704 21.5403 124 1.80263 124C-17.935 124 -36.0937 116.099 -49.1206 102.667C-62.1474 90.0263 -70.4372 71.8545 -70.4372 51.7076Z" fill="#E0C693" fill-opacity="0.51"/>
</svg>
