<svg width="37" height="37" viewBox="0 0 37 37" fill="none" xmlns="http://www.w3.org/2000/svg">
<circle cx="18.5236" cy="18.7606" r="18.0236" fill="#D9BA5B"/>
<path fill-rule="evenodd" clip-rule="evenodd" d="M24.6465 13.0682C23.0783 11.4982 20.9929 10.6332 18.7709 10.6323C14.1928 10.6323 10.4667 14.3581 10.4649 18.9377C10.4643 20.4016 10.8468 21.8305 11.5736 23.0901L10.3953 27.3942L14.7984 26.2392C16.0116 26.9009 17.3775 27.2497 18.7676 27.2501H18.771C18.7707 27.2501 18.7713 27.2501 18.771 27.2501C23.3487 27.2501 27.0751 23.5239 27.077 18.9443C27.0778 16.7249 26.2146 14.6381 24.6465 13.0682ZM18.771 25.8474H18.7682C17.5295 25.8469 16.3144 25.5141 15.2545 24.8851L15.0024 24.7355L12.3895 25.4209L13.087 22.8734L12.9228 22.6121C12.2318 21.513 11.8668 20.2426 11.8673 18.9381C11.8688 15.1318 14.9658 12.0351 18.7738 12.0351C20.6177 12.0357 22.3511 12.7548 23.6545 14.0597C24.9579 15.3646 25.6753 17.0991 25.6745 18.9437C25.673 22.7504 22.5761 25.8474 18.771 25.8474Z" fill="#2A275F"/>
<path fill-rule="evenodd" clip-rule="evenodd" d="M22.5575 20.6769C22.35 20.573 21.3296 20.071 21.1394 20.0017C20.9492 19.9325 20.8108 19.8978 20.6725 20.1056C20.5341 20.3133 20.1364 20.7808 20.0153 20.9194C19.8943 21.0578 19.7732 21.0752 19.5657 20.9713C19.3582 20.8674 18.6894 20.6483 17.8967 19.9412C17.2797 19.3909 16.8632 18.7113 16.7421 18.5035C16.6211 18.2957 16.7293 18.1834 16.8332 18.0799C16.9265 17.9869 17.0407 17.8375 17.1445 17.7163C17.2482 17.5952 17.2828 17.5085 17.352 17.3701C17.4212 17.2316 17.3866 17.1104 17.3347 17.0065C17.2828 16.9027 16.8678 15.8811 16.6949 15.4655C16.5263 15.0609 16.3553 15.1157 16.2279 15.1093C16.107 15.1032 15.9685 15.102 15.8301 15.102C15.6918 15.102 15.4669 15.1539 15.2767 15.3617C15.0865 15.5695 14.5503 16.0716 14.5503 17.093C14.5503 18.1146 15.294 19.1014 15.3977 19.2399C15.5015 19.3785 16.8612 21.4747 18.9431 22.3736C19.4382 22.5875 19.8248 22.7152 20.1262 22.8108C20.6234 22.9688 21.0758 22.9465 21.4334 22.893C21.8322 22.8335 22.6613 22.391 22.8342 21.9063C23.0072 21.4214 23.0072 21.0059 22.9553 20.9193C22.9034 20.8328 22.765 20.7808 22.5575 20.6769Z" fill="#2A275F"/>
</svg>
