<svg width="37" height="37" viewBox="0 0 37 37" fill="none" xmlns="http://www.w3.org/2000/svg">
<circle cx="18.5707" cy="18.7606" r="18.0236" fill="#D9BA5B"/>
<path d="M19.0393 12.5758C21.5628 12.5758 23.6263 12.6183 25.5353 12.7033H25.5624H25.5894C26.4821 12.7033 27.2124 13.5534 27.2124 14.6007V14.6432L27.2163 14.6857C27.3052 15.9996 27.3477 17.3637 27.3477 18.7394C27.3515 20.1151 27.3052 21.4792 27.2163 22.7931L27.2124 22.8356V22.8781C27.2124 23.4114 27.0308 23.906 26.6946 24.2731C26.3932 24.6055 25.999 24.7909 25.5894 24.7909H25.5585H25.5276C23.4833 24.8876 21.3232 24.9378 19.0973 24.9378C18.9621 24.9378 18.8229 24.9378 18.6877 24.9378C18.5486 24.9378 18.4095 24.9378 18.2703 24.9378C16.0368 24.9378 13.8766 24.8876 11.8478 24.7948H11.8169H11.786C11.3764 24.7948 10.9861 24.6093 10.6846 24.277C10.3523 23.9099 10.1668 23.4152 10.1668 22.882V22.8394L10.163 22.7969C10.0702 21.4792 10.0277 20.1151 10.0354 18.751V18.7471V18.7432C10.0316 17.3791 10.0741 16.0189 10.163 14.7011L10.1668 14.6586V14.6161C10.1668 13.565 10.8933 12.711 11.786 12.711H11.813H11.8401C13.7529 12.6221 15.8165 12.5835 18.3399 12.5835H18.6877H19.0393M19.0393 11.3392C18.9234 11.3392 18.8075 11.3392 18.6916 11.3392C18.5756 11.3392 18.4597 11.3392 18.3438 11.3392C16.1179 11.3392 13.9307 11.3701 11.7898 11.4667C10.2132 11.4667 8.9341 12.8695 8.9341 14.6084C8.83749 15.9918 8.79498 17.3675 8.79885 18.7471C8.79498 20.1267 8.83363 21.5024 8.93023 22.882C8.93023 24.6209 10.2093 26.0353 11.786 26.0353C13.9036 26.1357 16.0638 26.1821 18.2703 26.1821C18.4095 26.1821 18.5524 26.1821 18.6916 26.1821C18.8307 26.1821 18.9698 26.1821 19.105 26.1821C21.3116 26.1821 23.4717 26.1357 25.5933 26.0353C27.1738 26.0353 28.4529 24.6209 28.4529 22.882C28.5456 21.5024 28.5881 20.1228 28.5843 18.7432C28.5881 17.3637 28.5456 15.988 28.4529 14.6045C28.4529 12.8656 27.1738 11.4706 25.5933 11.4706C23.4524 11.3701 21.2691 11.3392 19.0393 11.3392Z" fill="#2A275F"/>
<path d="M16.7981 22.5381V14.9485L22.4014 18.7433L16.7981 22.5381Z" fill="#2A275F"/>
</svg>
