<svg width="162" height="47" viewBox="0 0 162 47" fill="none" xmlns="http://www.w3.org/2000/svg">
<g clip-path="url(#clip0_354_1497)">
<path d="M56.4409 30.4779H155.147C156.964 30.4779 158.705 31.2024 159.99 32.4924C161.275 33.7823 161.998 35.5321 162 37.3573V43.8514H63.2283C61.4255 43.8437 59.6992 43.1186 58.4271 41.8347C57.1551 40.5508 56.4409 38.8128 56.4409 37.001V30.4561V30.4779Z" fill="white"/>
<path d="M26.455 32.3606C26.2829 32.3609 26.115 32.3071 25.9749 32.2066C25.8347 32.1062 25.7294 31.9643 25.6735 31.8007L21.3681 19.2126L18.0902 28.8336C18.0334 28.9954 17.928 29.1354 17.7887 29.2345C17.6494 29.3335 17.4829 29.3867 17.3123 29.3867C17.1416 29.3867 16.9752 29.3335 16.8359 29.2345C16.6965 29.1354 16.5912 28.9954 16.5344 28.8336L15.7023 26.4193H15.2681C15.0936 26.4226 14.9224 26.3702 14.7794 26.2696C14.6364 26.1689 14.5288 26.0253 14.4722 25.8593L14.2044 25.0812L13.9439 25.8084C13.884 25.9662 13.778 26.102 13.6398 26.1981C13.5016 26.2941 13.3377 26.3459 13.1697 26.3466H8.22747C8.02295 26.3272 7.83296 26.2319 7.69467 26.0793C7.55638 25.9266 7.47974 25.7276 7.47974 25.5212C7.47974 25.3147 7.55638 25.1157 7.69467 24.963C7.83296 24.8104 8.02295 24.7151 8.22747 24.6958H12.6197L13.4808 22.3469C13.5419 22.1905 13.6484 22.0562 13.7865 21.9615C13.9246 21.8668 14.0879 21.8161 14.2551 21.816C14.4247 21.8187 14.5894 21.874 14.7266 21.9742C14.8639 22.0744 14.9671 22.2147 15.0221 22.376L15.847 24.7903H16.2812C16.4514 24.79 16.6175 24.843 16.7563 24.9421C16.8951 25.0412 16.9997 25.1813 17.0554 25.343L17.2942 26.0702L20.5866 16.4564C20.6434 16.2947 20.7487 16.1546 20.888 16.0556C21.0273 15.9565 21.1938 15.9033 21.3645 15.9033C21.5351 15.9033 21.7016 15.9565 21.8409 16.0556C21.9802 16.1546 22.0855 16.2947 22.1423 16.4564L26.4839 29.0373L28.7561 22.3978C28.8062 22.2358 28.9045 22.0932 29.0378 21.9892C29.171 21.8852 29.3328 21.8247 29.5014 21.816C29.6735 21.8157 29.8413 21.8696 29.9815 21.97C30.1216 22.0704 30.227 22.2124 30.2829 22.376L31.5347 26.0484L31.7735 25.3212C31.83 25.1571 31.9368 25.0153 32.0785 24.916C32.2202 24.8167 32.3895 24.7651 32.5622 24.7685H37.8011C38.0056 24.7878 38.1956 24.8831 38.3339 25.0358C38.4722 25.1884 38.5488 25.3874 38.5488 25.5939C38.5488 25.8003 38.4722 25.9993 38.3339 26.152C38.1956 26.3047 38.0056 26.4 37.8011 26.4193H33.1411L32.3162 28.8336C32.2594 28.9954 32.1541 29.1354 32.0147 29.2345C31.8754 29.3335 31.709 29.3867 31.5383 29.3867C31.3676 29.3867 31.2012 29.3335 31.0619 29.2345C30.9226 29.1354 30.8172 28.9954 30.7604 28.8336L29.5014 25.1976L27.2293 31.837C27.1738 31.9995 27.0695 32.1406 26.9308 32.2409C26.7921 32.3412 26.6259 32.3957 26.455 32.397V32.3606Z" fill="#D9BA5B"/>
<path d="M43.8213 11.1333C41.6328 7.57799 38.4798 4.72454 34.7329 2.9085C30.5332 0.898673 25.9244 -0.0974138 21.2739 -0.000367261H0L0.0361801 46.9996H21.2811C25.9316 47.0964 30.5404 46.1003 34.7401 44.0908C38.4892 42.2741 41.641 39.4145 43.8213 35.8514C46.0371 32.1188 47.1607 27.834 47.0631 23.4887C47.157 19.1462 46.0336 14.8647 43.8213 11.1333ZM31.9326 34.1352C29.1539 36.7604 25.4201 38.0621 20.7384 38.0621H14.6529L10.854 42.7963V8.92258H20.7384C25.4129 8.92258 29.1539 10.2388 31.9326 12.8495C34.7112 15.4603 36.1077 19.0236 36.1077 23.496C36.1077 27.9684 34.7112 31.4954 31.9326 34.1352Z" fill="#D9BA5B"/>
<path d="M69.6178 34.2878V39.2692H68.2357V37.5821C67.8965 37.7047 67.5397 37.771 67.1793 37.7784C66.6012 37.8192 66.0294 37.6372 65.5801 37.2694C65.3899 37.0809 65.2423 36.8534 65.1474 36.6024C65.0525 36.3514 65.0125 36.0828 65.0302 35.8149V34.2878H66.4195V35.6331C66.3995 35.7622 66.4095 35.8942 66.4489 36.0187C66.4882 36.1432 66.5558 36.2568 66.6463 36.3506C66.7368 36.4444 66.8478 36.5157 66.9704 36.5591C67.093 36.6024 67.224 36.6165 67.353 36.6003C67.6564 36.6082 67.9579 36.5486 68.2357 36.4258V34.2441L69.6178 34.2878Z" fill="#D9BA5B"/>
<path d="M74.256 38.3095H72.1503L71.7668 39.2694H70.3196L72.4904 34.2734H73.8725L76.0433 39.2694H74.5961L74.256 38.3095ZM73.8435 37.2696L73.2067 35.6697L72.5627 37.2696H73.8435Z" fill="#D9BA5B"/>
<path d="M77.7654 39.0512C77.3633 38.8368 77.0259 38.5178 76.7885 38.1276C76.5517 37.7195 76.4292 37.2546 76.434 36.7822C76.4291 36.3121 76.5517 35.8496 76.7885 35.4442C77.0219 35.0506 77.3603 34.7306 77.7654 34.5206C78.1977 34.2918 78.6807 34.1767 79.1692 34.1861C79.5913 34.18 80.0101 34.2617 80.3993 34.4261C80.7552 34.5909 81.0656 34.8406 81.3038 35.1533L80.4138 35.9605C80.2752 35.7804 80.0976 35.6344 79.8945 35.5336C79.6914 35.4327 79.4681 35.3798 79.2416 35.3787C78.9887 35.3747 78.7392 35.4374 78.518 35.5605C78.31 35.6776 78.1394 35.8516 78.0259 36.0623C77.9092 36.2866 77.8496 36.5364 77.8522 36.7895C77.8507 37.0425 77.9103 37.292 78.0259 37.5167C78.1394 37.7274 78.31 37.9014 78.518 38.0185C78.7405 38.1375 78.9895 38.1976 79.2416 38.193C79.4687 38.1953 79.6931 38.1438 79.8968 38.0428C80.1004 37.9417 80.2775 37.7939 80.4138 37.6113L81.3038 38.4257C81.0683 38.741 80.7571 38.9912 80.3993 39.153C80.0101 39.3174 79.5913 39.3991 79.1692 39.3929C78.6817 39.4012 78.1996 39.2888 77.7654 39.0657V39.0512Z" fill="#D9BA5B"/>
<path d="M86.0434 35.408H84.5239V39.2695H83.1418V35.408H81.615V34.2881H86.0434V35.408Z" fill="#D9BA5B"/>
<path d="M91.5574 34.2881V39.2695H90.1536V37.3351H88.2361V39.2695H86.8323V34.2881H88.2361V36.1643H90.1536V34.2881H91.5574Z" fill="#D9BA5B"/>
<path d="M96.1957 38.3095H94.0683L93.7065 39.2694H92.2593L94.4301 34.2734H95.8122L97.983 39.2694H96.5358L96.145 38.2949L96.1957 38.3095ZM95.7832 37.2696L95.1465 35.6697L94.5024 37.2696H95.7832Z" fill="#D9BA5B"/>
<path d="M102.65 34.2885V39.2699H101.304V38.0264H100.537L99.6833 39.2699H98.2361L99.2419 37.8155C98.931 37.6827 98.6666 37.4599 98.4822 37.1755C98.309 36.8683 98.218 36.5213 98.218 36.1683C98.218 35.8153 98.309 35.4683 98.4822 35.1611C98.6712 34.8717 98.9403 34.6442 99.2564 34.5066C99.6291 34.3478 100.031 34.2709 100.436 34.2812L102.65 34.2885ZM99.611 36.1647C99.6023 36.27 99.6166 36.376 99.6528 36.4752C99.6891 36.5744 99.7464 36.6645 99.8208 36.7392C99.9905 36.8812 100.208 36.9515 100.429 36.9355H101.304V35.4011H100.479C99.857 35.4011 99.611 35.6338 99.611 36.1647Z" fill="#D9BA5B"/>
<path d="M110.545 39.2695V36.637L109.264 38.8186H108.642L107.361 36.717V39.2695H106.073V34.2881H107.231L108.974 37.197L110.682 34.2881H111.84V39.2841L110.545 39.2695Z" fill="#D9BA5B"/>
<path d="M117.035 38.1932V39.2695H113.048V34.2881H116.941V35.3789H114.438V36.2225H116.608V37.2769H114.438V38.1932H117.035Z" fill="#D9BA5B"/>
<path d="M123.316 38.1641V40.2876H122.036V39.2695H118.852V40.2876H117.564V38.1641H117.737C118.034 38.1641 118.237 37.9533 118.36 37.5533C118.504 36.9901 118.58 36.4113 118.584 35.8298L118.642 34.2881H122.643V38.1641H123.316ZM119.698 37.306C119.658 37.6104 119.555 37.9028 119.394 38.1641H121.276V35.408H119.829V35.9461C119.81 36.4021 119.762 36.8564 119.684 37.306H119.698Z" fill="#D9BA5B"/>
<path d="M124.134 34.2881H125.523V37.197L127.571 34.2881H128.895V39.2695H127.506V36.3607L125.465 39.2695H124.134V34.2881Z" fill="#D9BA5B"/>
<path d="M135.458 38.1641V40.3022H134.178V39.2695H130.096V34.2881H131.486V38.1641H133.396V34.2881H134.778V38.1641H135.458Z" fill="#D9BA5B"/>
<path d="M136.269 34.2881H137.651V37.197L139.706 34.2881H141.023V39.2695H139.655V36.3607L137.615 39.2695H136.283L136.269 34.2881Z" fill="#D9BA5B"/>
<path d="M146.964 34.2881V39.2695H145.56V37.3351H143.642V39.2695H142.231V34.2881H143.642V36.1643H145.56V34.2881H146.964Z" fill="#D9BA5B"/>
<path d="M151.595 38.3095H149.496L149.105 39.2694H147.658L149.829 34.2734H151.233L153.404 39.2694H151.956L151.595 38.3095ZM151.189 37.2696L150.545 35.6697L149.909 37.2696H151.189Z" fill="#D9BA5B"/>
<path d="M59.1473 4.45011H57.4107V7.41715H56.9331V4.02832H59.1473V4.45011Z" fill="#D9BA5B"/>
<path d="M60.5511 7.27242C60.2867 7.12277 60.065 6.90743 59.9071 6.64701C59.7529 6.37718 59.673 6.07096 59.6756 5.75981C59.6699 5.45132 59.7486 5.14719 59.903 4.8805C60.0573 4.61381 60.2815 4.39476 60.5511 4.2472C60.8421 4.07957 61.1709 3.98945 61.5063 3.9854C61.8241 3.98315 62.1375 4.06063 62.418 4.21084C62.6871 4.35406 62.9104 4.57088 63.062 4.83624C63.2135 5.10715 63.2931 5.41268 63.2931 5.72345C63.2931 6.03421 63.2135 6.33974 63.062 6.61065C62.9083 6.87434 62.6855 7.09064 62.418 7.23606C62.1375 7.38626 61.8241 7.46375 61.5063 7.46149C61.1772 7.47984 60.8487 7.41483 60.5511 7.27242ZM62.1431 6.89426C62.4367 6.71167 62.6493 6.42265 62.7368 6.08697C62.8243 5.75129 62.7802 5.39463 62.6134 5.09077C62.5006 4.89635 62.3382 4.73569 62.1431 4.62535C61.9525 4.50204 61.7327 4.43178 61.5063 4.42173C61.2712 4.41644 61.0389 4.47417 60.8333 4.58899C60.6344 4.6968 60.4691 4.8579 60.3558 5.05441C60.2492 5.26116 60.1936 5.4906 60.1936 5.72345C60.1936 5.95629 60.2492 6.18574 60.3558 6.39249C60.4711 6.58741 60.6359 6.74803 60.8333 6.8579C61.0402 6.96932 61.2716 7.02683 61.5063 7.02516C61.729 7.02293 61.9477 6.96548 62.1431 6.8579V6.89426Z" fill="#D9BA5B"/>
<path d="M67.0491 4.36341C67.174 4.4687 67.2729 4.60161 67.3382 4.75175C67.4035 4.90188 67.4333 5.06516 67.4253 5.2288C67.4339 5.39358 67.4044 5.5581 67.3391 5.7095C67.2738 5.8609 67.1745 5.99505 67.0491 6.10146C66.7532 6.32267 66.3898 6.43325 66.0215 6.41416H65.1822V7.41772H64.7046V4.02889H66.0215C66.393 4.01219 66.7579 4.131 67.0491 4.36341ZM66.7017 5.81785C66.7847 5.74979 66.8503 5.66282 66.8931 5.56417C66.9359 5.46551 66.9546 5.35802 66.9478 5.25062C66.9546 5.14427 66.9359 5.03782 66.893 4.94033C66.8502 4.84284 66.7846 4.75719 66.7017 4.69066C66.4919 4.53975 66.235 4.47003 65.9781 4.49431H65.1822V5.97056H66.0071C66.2639 5.99484 66.5209 5.92512 66.7307 5.77421L66.7017 5.81785Z" fill="#D9BA5B"/>
<path d="M69.4006 7.27204C69.1246 7.11671 68.8967 6.88768 68.7421 6.61028C68.5849 6.34171 68.5047 6.03462 68.5105 5.72307C68.5049 5.41459 68.5836 5.11046 68.7379 4.84377C68.8923 4.57707 69.1165 4.35803 69.3861 4.21046C69.6701 4.06255 69.9852 3.98535 70.3051 3.98535C70.6249 3.98535 70.9401 4.06255 71.2241 4.21046C71.4916 4.35588 71.7143 4.57218 71.8681 4.83587C71.9862 5.035 72.0633 5.25596 72.0948 5.48561C72.1263 5.71527 72.1116 5.94895 72.0516 6.17279C71.9915 6.39662 71.8873 6.60605 71.7451 6.78863C71.603 6.97122 71.4258 7.12324 71.2241 7.23568C70.9401 7.38359 70.6249 7.46079 70.3051 7.46079C69.9852 7.46079 69.6701 7.38359 69.3861 7.23568L69.4006 7.27204ZM70.9925 6.89389C71.1842 6.78144 71.3437 6.62112 71.4556 6.42847C71.5697 6.22413 71.6296 5.99375 71.6296 5.75943C71.6296 5.52512 71.5697 5.29474 71.4556 5.09039C71.3456 4.89627 71.1857 4.7355 70.9925 4.62498C70.7849 4.51541 70.554 4.45817 70.3196 4.45817C70.0851 4.45817 69.8542 4.51541 69.6466 4.62498C69.4499 4.73324 69.287 4.89439 69.1763 5.09039C69.0881 5.23952 69.0303 5.40478 69.0062 5.57656C68.9821 5.74835 68.9922 5.92322 69.036 6.09103C69.0798 6.25884 69.1563 6.41624 69.2611 6.55407C69.3659 6.69189 69.497 6.80741 69.6466 6.89389C69.8542 7.00345 70.0851 7.0607 70.3196 7.0607C70.554 7.0607 70.7849 7.00345 70.9925 6.89389Z" fill="#D9BA5B"/>
<path d="M76.7019 6.99516V8.1587H76.2533V7.43149H73.4457V8.1587H72.9971V6.99516H73.1563C73.3733 6.99516 73.5181 6.81335 73.6049 6.49338C73.7116 6.03326 73.765 5.56229 73.7641 5.08985V3.99902H76.1375V6.99516H76.7019ZM74.1042 6.34793C74.0806 6.58824 73.9818 6.81483 73.822 6.99516H75.7251V4.4499H74.2778V5.17711C74.2688 5.57459 74.2301 5.97083 74.1621 6.36248L74.1042 6.34793Z" fill="#D9BA5B"/>
<path d="M78.5831 7.27239C78.3154 7.12324 78.0931 6.90364 77.9401 6.63716C77.7871 6.37068 77.7092 6.06737 77.7148 5.75978C77.7078 5.44809 77.788 5.1407 77.9463 4.87257C78.0954 4.60773 78.3162 4.39085 78.5831 4.24717C78.8662 4.09694 79.1819 4.01949 79.5021 4.02173C79.7501 4.01764 79.9964 4.06466 80.2257 4.1599C80.4398 4.24443 80.6308 4.37905 80.7828 4.5526L80.4717 4.85803C80.3498 4.72716 80.2016 4.62383 80.0369 4.55488C79.8722 4.48592 79.6949 4.45292 79.5165 4.45806C79.2791 4.45287 79.0446 4.51055 78.8364 4.62532C78.6412 4.73566 78.4788 4.89632 78.366 5.09074C78.2023 5.39306 78.1637 5.74802 78.2585 6.07876C78.3533 6.4095 78.5739 6.6894 78.8725 6.85787C79.0822 6.96875 79.3158 7.02618 79.5527 7.02513C79.7316 7.02935 79.9093 6.99521 80.074 6.92499C80.2387 6.85477 80.3866 6.75008 80.5079 6.61789L80.819 6.92332C80.6641 7.09861 80.4709 7.2355 80.2546 7.32329C80.0245 7.41573 79.7788 7.46265 79.531 7.46146C79.2041 7.48213 78.8774 7.41697 78.5831 7.27239Z" fill="#D9BA5B"/>
<path d="M83.2794 5.92636H82.5558V7.38079H82.0854V4.02832H82.5558V5.48275H83.2794L84.3359 4.02832H84.8568L83.6629 5.67183L84.9292 7.41715H84.3793L83.2794 5.96272V5.92636Z" fill="#D9BA5B"/>
<path d="M88.2288 6.54428H86.4342L86.058 7.38785H85.5659L87.0927 3.99902H87.5558L89.0899 7.38785H88.5833L88.2288 6.54428ZM88.0551 6.15158L87.3315 4.49353L86.6079 6.15158H88.0551Z" fill="#D9BA5B"/>
<path d="M92.6572 4.02832V7.41715H92.1868V6.42813H91.1231L90.4502 7.41715H89.9364L90.66 6.34087C90.4345 6.27495 90.238 6.1339 90.1029 5.9409C89.9613 5.72607 89.8927 5.47093 89.9075 5.21368C89.909 5.05143 89.9453 4.89141 90.014 4.74457C90.0827 4.59773 90.1821 4.46752 90.3055 4.36284C90.5869 4.13454 90.9431 4.02039 91.304 4.04286L92.6572 4.02832ZM90.6456 5.81727C90.831 5.9614 91.063 6.03136 91.2968 6.01362H92.1868V4.45011H91.3257C91.0863 4.43216 90.8489 4.50478 90.66 4.65373C90.5797 4.72801 90.5172 4.81958 90.4771 4.92159C90.437 5.02359 90.4204 5.13339 90.4285 5.24277C90.4207 5.34865 90.4362 5.45495 90.4737 5.5542C90.5112 5.65345 90.5698 5.74324 90.6456 5.81727Z" fill="#D9BA5B"/>
<path d="M98.7716 6.99536V7.41715H96.3186V4.02832H98.7065V4.45011H96.8034V5.49003H98.4966V5.90454H96.8034V6.99536H98.7716Z" fill="#D9BA5B"/>
<path d="M102.983 5.92658H102.339V7.38102H101.869V5.92658H101.225L100.277 7.38102H99.7124L100.827 5.62115L99.792 3.99219H100.313L101.21 5.44662H101.869V3.99219H102.339V5.44662H102.99L103.895 3.99219H104.409L103.381 5.62842L104.495 7.38102H103.931L102.983 5.92658Z" fill="#D9BA5B"/>
<path d="M108.106 6.99536V7.41715H105.646V4.02832H108.027V4.45011H106.131V5.49003H107.817V5.90454H106.124V6.99536H108.106Z" fill="#D9BA5B"/>
<path d="M111.724 4.45011H109.988V7.41715H109.51V4.02832H111.724V4.45011Z" fill="#D9BA5B"/>
<path d="M113.135 7.27182C112.869 7.12435 112.647 6.90852 112.491 6.64641C112.334 6.37784 112.254 6.07076 112.26 5.75921C112.254 5.45072 112.333 5.14659 112.487 4.8799C112.641 4.61321 112.866 4.39416 113.135 4.2466C113.419 4.09869 113.734 4.02148 114.054 4.02148C114.374 4.02148 114.689 4.09869 114.973 4.2466C115.241 4.39201 115.463 4.60831 115.617 4.872C115.735 5.07114 115.812 5.29209 115.844 5.52175C115.875 5.7514 115.861 5.98508 115.801 6.20892C115.741 6.43275 115.636 6.64218 115.494 6.82476C115.352 7.00735 115.175 7.15938 114.973 7.27182C114.689 7.41972 114.374 7.49693 114.054 7.49693C113.734 7.49693 113.419 7.41972 113.135 7.27182ZM114.727 6.89366C114.92 6.78314 115.08 6.62237 115.19 6.42824C115.304 6.2239 115.364 5.99352 115.364 5.75921C115.364 5.52489 115.304 5.29451 115.19 5.09017C115.082 4.89444 114.922 4.73316 114.727 4.62475C114.522 4.50926 114.289 4.45149 114.054 4.45749C113.819 4.4522 113.587 4.50993 113.381 4.62475C113.175 4.73085 113.003 4.89188 112.882 5.09017C112.794 5.23929 112.736 5.40455 112.712 5.57633C112.688 5.74812 112.698 5.923 112.742 6.09081C112.785 6.25862 112.862 6.41601 112.967 6.55384C113.072 6.69167 113.203 6.80718 113.352 6.89366C113.559 7.00508 113.79 7.06258 114.025 7.06092C114.273 7.05755 114.516 6.98722 114.727 6.8573V6.89366Z" fill="#D9BA5B"/>
<path d="M120.4 6.99516V8.1587H119.951V7.43149H117.18V8.1587H116.731V6.99516H116.891C117.108 6.99516 117.252 6.81335 117.339 6.49338C117.446 6.03326 117.499 5.56229 117.498 5.08985L117.535 3.99902H119.908V6.99516H120.4ZM117.81 6.34793C117.786 6.58824 117.687 6.81483 117.527 6.99516H119.43V4.4499H117.947V5.17711C117.938 5.57459 117.899 5.97083 117.831 6.36248L117.81 6.34793Z" fill="#D9BA5B"/>
<path d="M124.626 4.02832V7.41715H124.141V5.90454H122.202V7.41715H121.717V4.02832H122.202V5.48275H124.141V4.02832H124.626Z" fill="#D9BA5B"/>
<path d="M128.526 6.54428H126.732L126.363 7.38785H125.863L127.397 3.99902H127.875L129.402 7.38785H128.895L128.526 6.54428ZM128.36 6.15158L127.636 4.49353L126.913 6.15158H128.36Z" fill="#D9BA5B"/>
<path d="M132.962 4.02832V7.41715H132.484V6.42813H131.428L130.748 7.41715H130.248L130.972 6.34087C130.747 6.27341 130.551 6.13269 130.415 5.9409C130.279 5.72379 130.213 5.46979 130.227 5.21368C130.226 5.05255 130.26 4.89323 130.326 4.74646C130.393 4.59969 130.489 4.46887 130.61 4.36284C130.89 4.13627 131.243 4.02223 131.601 4.04286L132.962 4.02832ZM130.972 5.81727C131.158 5.96017 131.389 6.02998 131.623 6.01362H132.513V4.45011H131.623C131.384 4.43216 131.146 4.50478 130.957 4.65373C130.877 4.72801 130.815 4.81958 130.774 4.92159C130.734 5.02359 130.718 5.13339 130.726 5.24277C130.722 5.35089 130.742 5.45857 130.784 5.55796C130.827 5.65735 130.891 5.74594 130.972 5.81727Z" fill="#D9BA5B"/>
<path d="M139.532 4.02832V7.41715H139.055V4.45011H137.101V7.41715H136.623V4.02832H139.532Z" fill="#D9BA5B"/>
<path d="M143.584 4.36276C143.713 4.46212 143.817 4.58989 143.889 4.73618C143.96 4.88246 143.997 5.04334 143.997 5.20633C144.005 5.37111 143.976 5.53563 143.911 5.68703C143.845 5.83843 143.746 5.97258 143.621 6.07899C143.325 6.3002 142.961 6.41078 142.593 6.39169H141.754V7.41707H141.276V4.02824H142.55C142.924 4.00976 143.291 4.12866 143.584 4.36276ZM143.237 5.81719C143.317 5.74664 143.381 5.65923 143.423 5.56119C143.466 5.46314 143.486 5.35687 143.483 5.24996C143.488 5.14383 143.469 5.03796 143.426 4.94076C143.383 4.84356 143.319 4.7577 143.237 4.69001C143.027 4.5391 142.77 4.46937 142.513 4.49366H141.689V5.96991H142.55C142.807 5.99419 143.063 5.92447 143.273 5.77356L143.237 5.81719Z" fill="#D9BA5B"/>
<path d="M147.738 6.99536V7.41715H145.292V4.02832H147.673V4.45011H145.77V5.49003H147.463V5.90454H145.77V6.99536H147.738Z" fill="#D9BA5B"/>
<path d="M152.282 7.41715V4.94461L151.066 7.00991H150.842L149.619 4.95916V7.41715H149.156V4.02832H149.554L151.001 6.41359L152.391 4.02832H152.781V7.41715H152.282Z" fill="#D9BA5B"/>
<path d="M154.453 4.02832H154.93V6.6463L156.928 4.02832H157.369V7.41715H156.899V4.80644L154.894 7.41715H154.453V4.02832Z" fill="#D9BA5B"/>
<path d="M161.551 4.02832V7.41715H161.081V6.42813H160.017L159.344 7.41715H158.831L159.554 6.34087C159.329 6.27495 159.132 6.1339 158.997 5.9409C158.856 5.72607 158.787 5.47093 158.802 5.21368C158.802 5.05199 158.838 4.89233 158.905 4.74552C158.972 4.59871 159.07 4.4682 159.193 4.36284C159.474 4.13454 159.83 4.02039 160.191 4.04286L161.551 4.02832ZM159.54 5.81727C159.725 5.9614 159.957 6.03136 160.191 6.01362H161.081V4.45011H160.22C159.981 4.43216 159.743 4.50478 159.554 4.65373C159.474 4.72801 159.411 4.81958 159.371 4.92159C159.331 5.02359 159.315 5.13339 159.323 5.24277C159.315 5.34865 159.33 5.45495 159.368 5.5542C159.405 5.65345 159.464 5.74324 159.54 5.81727Z" fill="#D9BA5B"/>
<path d="M56.7305 14.2021H60.7247C61.573 14.1869 62.4137 14.3634 63.185 14.7184C63.8697 15.0317 64.45 15.5367 64.8565 16.1728C65.2455 16.8572 65.4501 17.6318 65.4501 18.4199C65.4501 19.2081 65.2455 19.9826 64.8565 20.667C64.4528 21.3057 63.8717 21.8113 63.185 22.1215C62.4154 22.4824 61.5738 22.6615 60.7247 22.6451H56.7305V14.2021ZM60.6307 20.747C61.2701 20.7783 61.8962 20.5563 62.3746 20.1289C62.5984 19.9071 62.7728 19.64 62.8863 19.3454C62.9998 19.0508 63.0498 18.7354 63.033 18.4199C63.0478 18.1069 62.9968 17.7942 62.8833 17.5023C62.7699 17.2103 62.5965 16.9457 62.3746 16.7255C61.8973 16.2954 61.2711 16.0708 60.6307 16.1001H59.1184V20.7616L60.6307 20.747Z" fill="#D9BA5B"/>
<path d="M68.7421 22.2961C68.2252 22.0124 67.7703 21.6272 67.4046 21.1633C67.0388 20.6994 66.7696 20.1663 66.613 19.5957C66.4564 19.0251 66.4155 18.4287 66.4929 17.842C66.5703 17.2552 66.7643 16.6901 67.0633 16.1802C67.4674 15.5086 68.0484 14.9625 68.7421 14.6021C69.4897 14.2242 70.3149 14.0273 71.1517 14.0273C71.9885 14.0273 72.8137 14.2242 73.5613 14.6021C74.2619 14.958 74.8486 15.5049 75.2545 16.1802C75.5608 16.6882 75.7607 17.2537 75.8419 17.842C75.9231 18.4304 75.8839 19.0292 75.7267 19.6018C75.5695 20.1743 75.2977 20.7086 74.9278 21.1719C74.558 21.6352 74.0979 22.0178 73.5758 22.2961C72.8267 22.6691 72.0021 22.8632 71.1662 22.8632C70.3302 22.8632 69.5056 22.6691 68.7566 22.2961H68.7421ZM72.3095 20.5726C72.6584 20.3691 72.9441 20.072 73.1344 19.7145C73.3343 19.323 73.4387 18.8892 73.4387 18.4491C73.4387 18.009 73.3343 17.5753 73.1344 17.1837C72.9441 16.8262 72.6584 16.5291 72.3095 16.3256C71.9561 16.1256 71.5573 16.0205 71.1517 16.0205C70.7461 16.0205 70.3473 16.1256 69.9939 16.3256C69.645 16.5291 69.3593 16.8262 69.169 17.1837C68.9741 17.5768 68.8726 18.0099 68.8726 18.4491C68.8726 18.8883 68.9741 19.3214 69.169 19.7145C69.3593 20.072 69.645 20.3691 69.9939 20.5726C70.3473 20.7726 70.7461 20.8778 71.1517 20.8778C71.5573 20.8778 71.9561 20.7726 72.3095 20.5726Z" fill="#D9BA5B"/>
<path d="M80.7974 19.4454H79.7119V22.696H77.3313V14.2021H79.7119V17.5037H80.8552L82.8741 14.2021H85.385L82.7438 18.3036L85.4139 22.6669H82.7149L80.7974 19.4454Z" fill="#D9BA5B"/>
<path d="M93.1277 16.1075H90.5444V22.696H88.1855V16.1075H85.595V14.2021H93.1277V16.1075Z" fill="#D9BA5B"/>
<path d="M96.0944 22.2961C95.5775 22.0124 95.1226 21.6272 94.7569 21.1633C94.3911 20.6994 94.1219 20.1663 93.9653 19.5957C93.8087 19.0251 93.7678 18.4287 93.8452 17.842C93.9226 17.2552 94.1165 16.6901 94.4156 16.1802C94.8176 15.5069 95.3991 14.9603 96.0944 14.6021C96.842 14.2242 97.6672 14.0273 98.504 14.0273C99.3408 14.0273 100.166 14.2242 100.914 14.6021C101.43 14.8858 101.885 15.271 102.251 15.7349C102.617 16.1988 102.886 16.7319 103.043 17.3025C103.199 17.8731 103.24 18.4695 103.163 19.0562C103.085 19.643 102.891 20.2081 102.592 20.718C102.186 21.3879 101.606 21.9336 100.914 22.2961C100.165 22.6691 99.3399 22.8632 98.504 22.8632C97.6681 22.8632 96.8434 22.6691 96.0944 22.2961ZM99.6617 20.5726C100.011 20.3691 100.296 20.072 100.487 19.7145C100.682 19.3214 100.783 18.8883 100.783 18.4491C100.783 18.0099 100.682 17.5768 100.487 17.1837C100.296 16.8262 100.011 16.5291 99.6617 16.3256C99.3083 16.1256 98.9096 16.0205 98.504 16.0205C98.0984 16.0205 97.6996 16.1256 97.3462 16.3256C96.9973 16.5291 96.7116 16.8262 96.5213 17.1837C96.3213 17.5753 96.217 18.009 96.217 18.4491C96.217 18.8892 96.3213 19.323 96.5213 19.7145C96.7116 20.072 96.9973 20.3691 97.3462 20.5726C97.6996 20.7726 98.0984 20.8778 98.504 20.8778C98.9096 20.8778 99.3083 20.7726 99.6617 20.5726Z" fill="#D9BA5B"/>
<path d="M110.581 14.5802C111.112 14.8068 111.566 15.1863 111.883 15.671C112.196 16.1714 112.357 16.7527 112.346 17.3436C112.366 17.9281 112.208 18.5048 111.892 18.9962C111.577 19.4876 111.119 19.8701 110.581 20.0925C109.952 20.3608 109.274 20.4922 108.591 20.4779H107.144V22.6959H104.749V14.202H108.62C109.293 14.1895 109.96 14.3183 110.581 14.5802ZM109.553 18.2599C109.682 18.1464 109.783 18.0047 109.848 17.8458C109.913 17.6869 109.941 17.5151 109.93 17.3436C109.939 17.1712 109.911 16.9987 109.846 16.8389C109.781 16.6791 109.681 16.5359 109.553 16.42C109.236 16.1799 108.842 16.0637 108.446 16.0928H107.093V18.5798H108.424C108.827 18.6164 109.229 18.5025 109.553 18.2599Z" fill="#D9BA5B"/>
<path d="M125.473 14.2021V22.696H123.106V16.1075H119.894V22.696H117.535V14.2021H125.473Z" fill="#D9BA5B"/>
<path d="M127.528 14.2021H129.879V19.1909L133.367 14.2021H135.617V22.696H133.259V17.7219L129.785 22.696H127.528V14.2021Z" fill="#D9BA5B"/>
<path d="M144.482 16.1075H141.898V22.696H139.539V16.1075H136.942V14.2021H144.482V16.1075Z" fill="#D9BA5B"/>
<path d="M152.608 20.8416V22.696H145.82V14.2021H152.448V16.0566H148.186V17.511H151.956V19.3072H148.201V20.8635L152.608 20.8416Z" fill="#D9BA5B"/>
<path d="M160.075 14.5804C160.607 14.8071 161.06 15.1866 161.378 15.6712C161.688 16.1724 161.847 16.7536 161.834 17.3438C161.856 17.9279 161.7 18.5049 161.385 18.9966C161.071 19.4883 160.613 19.8709 160.075 20.0927C159.444 20.3618 158.764 20.4932 158.078 20.4781H156.631V22.6961H154.236V14.2022H158.1C158.777 14.1881 159.45 14.3169 160.075 14.5804ZM159.048 18.2601C159.175 18.1456 159.275 18.0038 159.34 17.8451C159.405 17.6865 159.434 17.5151 159.424 17.3438C159.432 17.1716 159.403 16.9996 159.338 16.84C159.273 16.6804 159.174 16.5371 159.048 16.4202C158.727 16.1803 158.332 16.0641 157.933 16.093H156.609V18.5801H157.933C158.331 18.611 158.726 18.4975 159.048 18.2601Z" fill="#D9BA5B"/>
</g>
<defs>
<clipPath id="clip0_354_1497">
<rect width="162" height="47" fill="white"/>
</clipPath>
</defs>
</svg>
