<svg width="640" height="191" viewBox="0 0 640 191" fill="none" xmlns="http://www.w3.org/2000/svg">
<path fill-rule="evenodd" clip-rule="evenodd" d="M129.536 164.361L131.749 180.096C131.995 182.309 130.52 184.522 128.307 184.768C126.094 185.013 123.881 183.538 123.635 181.325L120.193 157.23L129.536 164.361ZM172.071 99.6973L186.823 105.598C189.036 106.336 190.02 108.794 189.036 111.007C188.299 113.22 185.84 114.203 183.627 113.22L161.007 104.123L172.071 99.6973ZM137.158 30.6084L149.697 20.7737C151.418 19.2985 154.123 19.7902 155.352 21.5113C156.827 23.2324 156.336 25.9369 154.615 27.1663L135.437 42.4101L137.158 30.6084ZM159.532 137.807L169.367 150.346C170.842 152.067 170.35 154.772 168.629 156.001C166.908 157.476 164.203 156.984 162.974 155.263L147.73 136.086L159.532 137.807ZM163.958 60.6043L179.693 58.3915C181.906 58.1456 184.119 59.6208 184.365 61.8336C184.61 64.0464 183.135 66.2593 180.922 66.5051L156.827 69.9473L163.958 60.6043ZM99.0485 18.0692L104.949 3.31708C105.933 1.35014 108.391 0.366667 110.358 1.10427C112.571 1.84187 113.555 4.30055 112.571 6.51336L103.474 29.1332L99.0485 18.0692ZM29.9596 52.9824L20.1249 40.4431C18.6497 38.7221 19.1414 36.0175 20.8625 34.7882C22.5835 33.313 25.2881 33.8047 26.5174 35.5258L41.5154 54.7035L29.9596 52.9824ZM59.9555 26.1828L57.7427 10.6931C57.4968 8.48031 58.972 6.2675 61.1848 6.02163C63.3976 5.77576 65.6104 7.25097 65.8563 9.46378L69.2984 33.5588L59.9555 26.1828ZM90.1972 172.72L84.2964 187.472C83.5588 189.685 81.1001 190.668 78.8873 189.685C76.6745 188.947 75.691 186.489 76.6745 184.276L85.7716 161.656L90.1972 172.72ZM17.4203 90.846L2.66825 84.9452C0.455441 84.2076 -0.52803 81.7489 0.455441 79.5361C1.19305 77.3233 3.65172 76.3398 5.86453 77.3233L28.4844 86.4204L17.4203 90.846ZM25.534 130.185L10.0443 132.398C7.58561 132.644 5.61867 131.168 5.3728 128.956C5.12693 126.743 6.60214 124.53 8.81495 124.284L32.91 120.842L25.534 130.185ZM52.3336 160.181L39.7943 170.015C38.0732 171.491 35.3687 170.999 34.1393 169.278C32.6641 167.557 33.1559 164.852 34.8769 163.623L54.0546 148.625L52.3336 160.181ZM183.627 77.3233C185.84 76.5857 188.053 77.5692 189.036 79.5361C189.774 81.7489 188.79 83.9617 186.823 84.9452L151.418 99.2055C149.206 99.9431 146.993 98.9597 146.009 96.9927C145.272 94.7799 146.255 92.5671 148.222 91.5836L183.627 77.3233ZM154.615 163.377C156.336 164.852 156.827 167.311 155.352 169.032C153.877 170.753 151.418 171.245 149.697 169.77L119.947 146.412C118.226 144.937 117.734 142.478 119.21 140.757C120.685 139.036 123.144 138.544 124.865 140.02L154.615 163.377ZM180.677 124.284C182.889 124.53 184.365 126.743 184.119 128.956C183.873 131.168 181.66 132.644 179.447 132.398L141.829 126.989C139.617 126.743 138.141 124.53 138.387 122.317C138.633 120.104 140.846 118.383 143.059 118.875L180.677 124.284ZM123.635 9.46378C123.881 7.25097 126.094 5.52989 128.307 6.02163C130.52 6.2675 131.995 8.23444 131.749 10.6931L126.34 48.3109C126.094 50.5237 123.881 51.9989 121.668 51.7531C119.455 51.5072 117.98 49.2944 118.226 47.0816L123.635 9.46378ZM162.728 35.2799C164.203 33.5588 166.662 33.0671 168.383 34.5423C170.104 36.0175 170.596 38.4762 169.121 40.1973L145.763 69.9473C144.288 71.6683 141.829 72.1601 140.108 70.6849C138.387 69.2097 137.896 66.751 139.371 65.0299L162.728 35.2799ZM76.6745 6.51336C75.9369 4.30055 76.9204 2.08774 78.8873 1.10427C81.1001 0.366667 83.3129 1.35014 84.2964 3.31708L98.5567 38.7221C99.2943 40.9349 98.3109 43.1477 96.3439 44.1311C94.1311 44.8688 91.9183 43.8853 90.9348 41.9183L76.6745 6.51336ZM5.86453 113.22C3.65172 113.958 1.43891 112.974 0.455441 111.007C-0.282162 109.04 0.701309 106.582 2.91412 105.598L38.0732 91.3378C40.286 90.6002 42.4988 91.5836 43.4823 93.5506C44.2199 95.7634 43.2365 97.9762 41.2695 98.9597L5.86453 113.22ZM8.81495 66.5051C6.60214 66.2593 5.12693 64.0464 5.3728 61.8336C5.61867 59.6208 7.83148 58.1456 10.0443 58.3915L47.6621 63.8006C49.8749 64.0464 51.596 66.2593 51.1042 68.4721C50.8584 70.6849 48.6455 72.4059 46.4327 71.9142L8.81495 66.5051ZM34.6311 27.4121C32.91 25.9369 32.4183 23.4782 33.8935 21.7572C35.3687 20.0361 37.8274 19.5444 39.5484 21.0196L69.2984 44.377C71.0195 45.8522 71.5113 48.3109 70.036 50.032C68.5608 51.753 66.1022 52.2448 64.3811 50.7696L34.6311 27.4121ZM112.571 184.276C113.309 186.489 112.325 188.701 110.358 189.685C108.146 190.423 105.933 189.439 104.949 187.472L90.9348 152.313C90.1972 150.1 91.1807 147.887 93.1476 146.904C95.3604 146.166 97.5733 147.15 98.5567 149.117L112.571 184.276ZM65.8563 181.325C65.6104 183.538 63.3976 185.259 61.1848 184.768C58.972 184.522 57.4968 182.309 57.7427 180.096L63.1517 142.478C63.3976 140.265 65.6104 138.79 67.8232 139.036C70.036 139.282 71.5113 141.495 71.2654 143.708L65.8563 181.325ZM26.7633 155.263C25.2881 156.984 22.8294 157.476 21.1083 156.001C19.3873 154.526 18.8955 152.067 20.3707 150.346L43.7282 120.596C45.2034 118.875 47.6621 118.383 49.3831 119.858C51.1042 121.334 51.596 123.792 50.1207 125.513L26.7633 155.263ZM68.8067 69.4555C62.1683 76.094 57.9885 85.1911 57.9885 95.5175C57.9885 105.598 62.1683 114.941 68.8067 121.58C75.4451 128.218 84.5423 132.398 94.8687 132.398C104.949 132.398 114.292 128.218 120.931 121.58C127.569 114.941 131.749 105.844 131.749 95.5175C131.749 85.4369 127.569 76.094 120.931 69.4555C114.292 62.8171 105.195 58.6373 94.8687 58.6373C84.5423 58.6373 75.4451 62.8171 68.8067 69.4555ZM49.629 95.2717C49.629 82.9783 54.5464 71.6683 62.9059 63.5547C71.0195 55.4411 82.3295 50.2778 94.6228 50.2778C106.916 50.2778 118.226 55.1952 126.34 63.5547C134.453 71.6683 139.617 82.9783 139.617 95.2717C139.617 107.565 134.699 118.875 126.34 126.989C118.226 135.102 106.916 140.265 94.6228 140.265C82.3295 140.265 71.0195 135.348 62.9059 126.989C54.7922 119.121 49.629 107.811 49.629 95.2717Z" fill="#FFF4D5"/>
<path d="M542.838 156.983C544.067 157.475 545.05 157.967 545.788 158.95C547.263 160.426 548.001 162.392 548.001 164.605V171.49C548.001 173.702 547.017 175.669 545.788 177.145C544.313 178.62 542.346 179.357 540.133 179.357H509.154V138.052H536.199C538.412 138.052 540.379 139.035 541.854 140.264C543.329 141.74 544.067 143.707 544.067 145.919V152.804C544.067 154.525 543.575 155.754 542.838 156.983ZM513.579 142.477V174.686H540.133C541.117 174.686 541.854 174.194 542.592 173.702C543.329 172.965 543.575 172.227 543.575 171.244V164.359C543.575 163.376 543.083 162.638 542.592 161.901C541.854 161.409 541.117 160.917 540.133 160.917H517.267V156.246H536.199C537.183 156.246 537.92 155.754 538.658 155.262C539.395 154.771 539.641 153.787 539.641 152.804V145.919C539.641 144.936 539.15 144.198 538.658 143.461C537.92 142.723 537.183 142.477 536.199 142.477H513.579ZM391.137 142.723C390.645 143.215 389.908 143.952 389.662 144.69L376.139 179.357H371.222C375.647 167.802 380.319 154.033 385.482 143.215C385.728 142.477 386.22 141.74 386.711 141.002C387.203 140.264 387.695 139.773 388.433 139.281C389.908 138.297 391.383 137.806 393.104 137.806C394.088 137.806 394.825 138.052 395.563 138.297C396.3 138.543 397.038 139.035 397.776 139.527C398.513 140.019 399.005 140.51 399.497 141.248C399.988 141.985 400.48 142.723 400.726 143.461L414.74 179.603H410.069L396.546 144.936C396.3 144.198 395.809 143.461 395.071 142.969C394.579 142.477 393.842 142.231 393.104 142.231C392.366 142.231 391.629 142.477 391.137 142.723ZM350.323 137.068C356.224 137.068 361.879 139.527 365.813 143.461C369.747 147.395 372.205 152.804 372.205 158.95C372.205 164.851 369.747 170.506 365.813 174.44C361.879 178.374 356.47 180.833 350.323 180.833C344.422 180.833 338.767 178.374 334.833 174.44C330.899 170.506 328.441 165.097 328.441 158.95C328.441 153.05 330.899 147.395 334.833 143.461C338.767 139.281 344.176 137.068 350.323 137.068ZM362.371 146.657C359.174 143.461 354.995 141.494 350.077 141.494C345.406 141.494 340.98 143.461 337.784 146.657C334.587 149.853 332.621 154.033 332.621 158.95C332.621 163.622 334.587 168.047 337.784 171.244C340.98 174.44 345.16 176.407 350.077 176.407C354.749 176.407 359.174 174.44 362.371 171.244C365.567 168.047 367.534 163.868 367.534 158.95C367.534 154.033 365.567 149.607 362.371 146.657ZM480.879 137.068C486.78 137.068 492.435 139.527 496.369 143.461C500.302 147.395 502.761 152.804 502.761 158.95C502.761 164.851 500.302 170.506 496.369 174.44C492.435 178.374 487.026 180.833 480.879 180.833C474.978 180.833 469.323 178.374 465.389 174.44C461.455 170.506 458.997 165.097 458.997 158.95C458.997 153.05 461.455 147.395 465.389 143.461C469.323 139.281 474.978 137.068 480.879 137.068ZM493.172 146.657C489.976 143.461 485.796 141.494 480.879 141.494C476.207 141.494 471.782 143.461 468.585 146.657C465.389 149.853 463.668 154.033 463.668 158.95C463.668 163.622 465.635 168.047 468.585 171.244C471.782 174.44 475.962 176.407 480.879 176.407C485.55 176.407 489.976 174.44 493.172 171.244C496.369 168.047 498.336 163.868 498.336 158.95C498.09 154.033 496.123 149.607 493.172 146.657ZM574.555 137.068C580.455 137.068 586.11 139.527 590.044 143.461C593.978 147.395 596.437 152.804 596.437 158.95C596.437 164.851 593.978 170.506 590.044 174.44C586.11 178.374 580.701 180.833 574.555 180.833C568.654 180.833 562.999 178.374 559.065 174.44C555.131 170.506 552.672 165.097 552.672 158.95C552.672 153.05 555.131 147.395 559.065 143.461C563.245 139.281 568.654 137.068 574.555 137.068ZM586.848 146.657C583.652 143.461 579.472 141.494 574.555 141.494C569.883 141.494 565.457 143.461 562.261 146.657C559.065 149.853 557.098 154.033 557.098 158.95C557.098 163.622 559.065 168.047 562.261 171.244C565.457 174.44 569.637 176.407 574.555 176.407C579.226 176.407 583.652 174.44 586.848 171.244C590.044 168.047 592.011 163.868 592.011 158.95C591.765 154.033 590.044 149.607 586.848 146.657ZM605.042 179.357H601.6V138.052H606.026V172.473L635.284 138.052H639.464V179.357H635.038V144.936L606.271 178.62V179.357H605.042ZM627.416 130.184V134.609H613.648V130.184H627.416ZM318.114 156.983C319.344 157.475 320.327 157.967 321.065 158.95C322.54 160.426 323.278 162.392 323.278 164.605V171.49C323.278 173.702 322.294 175.669 321.065 177.145C319.59 178.62 317.623 179.357 315.41 179.357H284.185V138.052H311.23C313.443 138.052 315.41 139.035 316.885 140.264C318.36 141.74 319.098 143.707 319.098 145.919V152.804C319.344 154.525 318.852 155.754 318.114 156.983ZM288.856 142.477V174.686H315.41C316.393 174.686 317.131 174.194 317.868 173.702C318.606 172.965 318.852 172.227 318.852 171.244V164.359C318.852 163.376 318.36 162.638 317.868 161.901C317.131 161.409 316.393 160.917 315.41 160.917H292.544V156.246H311.476C312.459 156.246 313.197 155.754 313.935 155.262C314.672 154.771 314.918 153.787 314.918 152.804V145.919C314.918 144.936 314.426 144.198 313.935 143.461C313.197 142.723 312.459 142.477 311.476 142.477H288.856ZM314.918 91.3367C311.722 88.1404 307.542 86.1734 302.625 86.1734C297.953 86.1734 293.528 88.1404 290.331 91.3367C287.135 94.5329 285.168 98.7127 285.168 103.63C285.168 108.302 287.135 112.727 290.331 115.923C293.528 119.12 297.707 120.841 302.625 120.841C307.296 120.841 311.722 118.874 314.918 115.923C318.114 112.727 320.081 108.547 320.081 103.63C320.081 98.7127 318.114 94.5329 314.918 91.3367ZM302.871 81.7478C308.771 81.7478 314.426 84.2065 318.36 88.1404C322.294 92.0743 324.753 97.4834 324.753 103.63C324.753 109.531 322.294 115.186 318.36 119.12C314.426 123.054 309.017 125.512 302.871 125.512C296.97 125.512 291.315 123.054 287.381 119.12C283.447 115.186 280.988 109.777 280.988 103.63C280.988 97.7292 283.447 92.0743 287.381 88.1404C291.315 84.2065 296.724 81.7478 302.871 81.7478ZM332.866 82.9772H336.063V100.926V108.547V124.529H331.637V82.9772H332.866ZM353.028 105.843H339.505V101.417H352.782C353.519 101.417 354.257 101.171 354.749 100.926C355.486 100.434 355.978 99.4503 356.961 98.221C359.666 93.5495 364.337 87.6487 367.534 82.9772H372.943L360.649 100.68C360.158 101.417 359.666 102.155 359.174 102.647C358.928 102.892 358.683 103.384 358.437 103.63C358.683 103.876 358.928 104.122 359.174 104.614C359.666 105.105 360.158 105.843 360.649 106.58L372.943 124.283H367.534C366.304 122.316 357.207 109.777 356.961 109.039C356.224 107.81 355.486 107.072 354.749 106.335C354.257 106.089 353.765 105.843 353.028 105.843ZM439.573 87.6486C439.081 88.1404 438.344 88.878 438.098 89.6156L424.575 124.283H419.658C424.083 112.727 428.755 98.9586 433.918 88.1404C434.164 87.4028 434.656 86.6652 435.147 85.9276C435.639 85.19 436.131 84.6982 436.869 84.2065C438.344 83.223 439.819 82.7313 441.54 82.7313C442.523 82.7313 443.261 82.9772 443.999 83.223C444.736 83.4689 445.474 83.9606 446.211 84.4524C446.949 84.9441 447.441 85.4358 447.933 86.1734C448.424 86.911 448.916 87.6486 449.162 88.3863C454.325 99.2044 458.751 113.219 463.422 124.529H458.751L454.079 112.727H433.181L434.902 108.302H452.358L445.228 89.8615C444.982 89.1239 444.49 88.3863 443.753 87.8945C443.261 87.4028 442.523 87.1569 441.786 87.1569C440.802 86.911 440.311 87.1569 439.573 87.6486ZM507.924 84.2065V124.037H503.499V105.597H474.732V124.037H470.307V82.9772H474.732V101.417H503.499V82.9772H507.924V84.2065ZM565.949 124.283H561.524V82.9772H565.949V124.283ZM546.771 101.417C548.984 101.417 550.951 102.401 552.426 103.63C553.902 105.105 554.639 107.072 554.639 109.285V116.169C554.639 118.382 553.656 120.349 552.426 121.824C550.951 123.299 548.984 124.037 546.771 124.037H517.021V82.9772H521.447V119.611H546.771C547.755 119.611 548.493 119.12 549.23 118.628C549.968 117.89 550.214 117.153 550.214 116.169V109.285C550.214 108.302 549.722 107.564 549.23 106.826C548.493 106.335 547.755 105.843 546.771 105.843H525.135V101.417H546.771ZM415.724 114.448C413.757 117.89 411.052 120.595 407.856 122.316C404.66 124.283 400.972 125.266 397.038 125.266C391.137 125.266 385.482 122.808 381.548 118.874C377.614 114.94 375.156 109.531 375.156 103.384C375.156 97.4834 377.614 91.8284 381.548 87.8945C385.482 83.9606 390.891 81.502 397.038 81.502C400.972 81.502 404.66 82.4854 407.856 84.4524C411.052 86.4193 413.757 89.1239 415.724 92.3201L411.79 94.5329C410.315 91.8284 408.102 89.6156 405.397 88.1404C402.939 86.6652 399.988 85.9276 396.792 85.9276C392.121 85.9276 387.695 87.8945 384.499 91.0908C381.302 94.2871 379.335 98.4668 379.335 103.384C379.335 108.056 381.302 112.481 384.499 115.678C387.695 118.874 391.875 120.595 396.792 120.595C399.988 120.595 402.939 119.857 405.397 118.382C407.856 116.907 410.069 114.694 411.79 111.99L415.724 114.448ZM440.065 160.917H426.788V156.492H440.065C440.802 156.492 441.54 156.246 442.032 155.754C442.769 155.262 443.261 154.279 444.245 153.05C446.949 148.378 451.621 142.477 454.817 137.806H460.226L447.933 155.508C447.441 156.246 446.949 156.983 446.457 157.475C446.211 157.721 445.966 158.213 445.72 158.459C445.966 158.704 446.211 158.95 446.457 159.442C446.949 159.934 447.441 160.671 447.933 161.409L460.226 179.111H454.817C453.588 177.145 444.49 164.605 444.245 163.868C443.507 162.638 442.769 161.901 442.032 161.163C441.294 161.163 440.802 160.917 440.065 160.917ZM423.1 138.052V179.357H418.674V138.052H423.1Z" fill="#343263"/>
<path d="M232.309 6.51172H228.867V184.274H232.309V6.51172Z" fill="#343263"/>
<path d="M311.971 64.7839C310.495 64.7839 309.266 64.5381 308.037 63.8005C306.807 63.0629 306.07 62.3253 305.578 61.0959C305.086 59.8666 304.595 58.6372 304.595 57.162V51.2612C304.595 49.786 304.84 48.5567 305.578 47.3273C306.07 46.098 307.053 45.3604 308.037 44.6228C309.02 43.8852 310.495 43.6393 311.971 43.6393C313.446 43.6393 314.675 43.8852 315.904 44.6228C317.134 45.3604 317.871 46.098 318.363 47.3273C318.855 48.5567 319.347 49.786 319.347 51.2612V57.4079C319.347 58.8831 319.101 60.1125 318.363 61.3418C317.871 62.5711 316.888 63.3087 315.904 64.0463C314.675 64.5381 313.446 64.7839 311.971 64.7839ZM311.971 61.5877C312.708 61.5877 313.446 61.3418 313.938 61.0959C314.429 60.8501 314.921 60.3583 315.413 59.6207C315.659 58.8831 315.904 58.3914 315.904 57.4079V51.5071C315.904 50.7695 315.659 50.0319 315.413 49.2943C315.167 48.5567 314.675 48.3108 313.938 47.8191C313.446 47.5732 312.708 47.3273 311.971 47.3273C311.233 47.3273 310.495 47.5732 310.004 47.8191C309.512 48.0649 309.02 48.5567 308.774 49.2943C308.528 50.0319 308.283 50.5236 308.283 51.5071V57.4079C308.283 58.1455 308.528 58.8831 308.774 59.6207C309.02 60.1125 309.512 60.6042 310.004 61.0959C310.495 61.3418 311.233 61.5877 311.971 61.5877ZM333.115 64.7839C331.64 64.7839 330.411 64.5381 329.181 63.8005C328.198 63.3087 327.214 62.3253 326.723 61.0959C326.231 59.8666 325.739 58.6372 325.739 56.9162V51.2612C325.739 49.786 325.985 48.3108 326.723 47.0815C327.214 45.8521 328.198 45.1145 329.181 44.3769C330.165 43.8852 331.64 43.3934 333.115 43.3934C334.345 43.3934 335.574 43.6393 336.557 44.131C337.541 44.6228 338.278 45.3604 339.016 46.3439C339.754 47.3273 340.245 48.5567 340.491 49.786H337.049C336.803 49.0484 336.557 48.5567 336.311 48.0649C336.066 47.5732 335.574 47.0815 335.082 46.8356C334.59 46.5897 334.099 46.3439 333.361 46.3439C332.623 46.3439 331.886 46.5897 331.394 46.8356C330.902 47.0815 330.411 47.5732 330.165 48.3108C329.919 49.0484 329.673 49.786 329.673 50.5236V56.1786C329.673 57.162 329.919 57.8996 330.165 58.3914C330.411 59.129 330.902 59.6207 331.394 59.8666C331.886 60.1125 332.623 60.3583 333.361 60.3583C333.853 60.3583 334.59 60.1125 335.082 59.8666C335.574 59.6207 336.066 59.129 336.311 58.8831C336.557 58.3914 337.049 57.8996 337.049 57.162H340.491C340.245 58.3914 339.754 59.6207 339.016 60.6042C338.278 61.5877 337.541 62.3253 336.557 62.817C335.328 64.5381 334.345 64.7839 333.115 64.7839ZM360.652 44.131H364.586V64.5381H361.39V49.0484L361.636 50.0319L357.21 62.0794H354.26L349.834 50.2777L350.08 49.0484V64.5381H346.884V44.131H350.818L355.735 57.6538L360.652 44.131ZM372.208 44.131H373.683H375.65H385.731V47.3273H375.65V52.7364H384.256V55.9327H375.65V61.3418H385.731V64.5381H375.65H373.683H372.208V44.131ZM399.991 47.3273V64.5381H396.549V47.3273H390.894V44.131H405.646V47.3273H399.991ZM417.448 64.7839C415.973 64.7839 414.743 64.5381 413.514 63.8005C412.285 63.0629 411.547 62.3253 411.055 61.0959C410.564 59.8666 410.072 58.6372 410.072 57.162V51.2612C410.072 49.786 410.318 48.5567 411.055 47.3273C411.547 46.098 412.531 45.3604 413.514 44.6228C414.497 43.8852 415.973 43.6393 417.448 43.6393C418.923 43.6393 420.152 43.8852 421.382 44.6228C422.611 45.3604 423.349 46.098 423.84 47.3273C424.332 48.5567 424.824 49.786 424.824 51.2612V57.4079C424.824 58.8831 424.578 60.1125 423.84 61.3418C423.349 62.5711 422.365 63.3087 421.382 64.0463C420.152 64.5381 418.923 64.7839 417.448 64.7839ZM417.448 61.5877C418.185 61.5877 418.923 61.3418 419.415 61.0959C419.907 60.8501 420.398 60.3583 420.89 59.6207C421.136 58.8831 421.382 58.3914 421.382 57.4079V51.5071C421.382 50.7695 421.136 50.0319 420.89 49.2943C420.644 48.5567 420.152 48.3108 419.415 47.8191C418.923 47.5732 418.185 47.3273 417.448 47.3273C416.71 47.3273 415.973 47.5732 415.481 47.8191C414.989 48.0649 414.497 48.5567 414.006 49.2943C413.76 50.0319 413.514 50.5236 413.514 51.5071V57.4079C413.514 58.1455 413.76 58.8831 414.006 59.6207C414.252 60.1125 414.743 60.6042 415.481 61.0959C415.973 61.3418 416.71 61.5877 417.448 61.5877ZM430.971 61.3418C431.708 61.3418 432.446 61.0959 432.938 60.8501C433.429 60.6042 433.921 59.8666 434.167 59.129C434.413 58.3914 434.659 57.4079 434.659 56.4244V44.131H436.626H438.101H444.739H446.214H447.935V64.5381H444.493V47.3273H437.855V56.4244C437.855 58.1455 437.609 59.6207 437.117 60.8501C436.626 62.0794 435.888 63.0629 434.904 63.5546C433.921 64.0463 432.692 64.5381 431.216 64.5381H430.971V61.3418ZM462.442 64.7839C460.966 64.7839 459.737 64.5381 458.508 63.8005C457.278 63.0629 456.541 62.3253 456.049 61.0959C455.557 59.8666 455.066 58.6372 455.066 57.162V51.2612C455.066 49.786 455.312 48.5567 456.049 47.3273C456.541 46.098 457.524 45.3604 458.508 44.6228C459.491 43.8852 460.966 43.6393 462.442 43.6393C463.917 43.6393 465.146 43.8852 466.376 44.6228C467.605 45.3604 468.343 46.098 468.834 47.3273C469.326 48.5567 469.818 49.786 469.818 51.2612V57.4079C469.818 58.8831 469.572 60.1125 468.834 61.3418C468.343 62.5711 467.359 63.3087 466.376 64.0463C465.146 64.5381 463.671 64.7839 462.442 64.7839ZM462.442 61.5877C463.179 61.5877 463.917 61.3418 464.409 61.0959C464.9 60.8501 465.392 60.3583 465.884 59.6207C466.13 58.8831 466.376 58.3914 466.376 57.4079V51.5071C466.376 50.7695 466.13 50.0319 465.884 49.2943C465.638 48.5567 465.146 48.3108 464.409 47.8191C463.917 47.5732 463.179 47.3273 462.442 47.3273C461.704 47.3273 460.966 47.5732 460.475 47.8191C459.983 48.0649 459.491 48.5567 459 49.2943C458.754 50.0319 458.508 50.5236 458.508 51.5071V57.4079C458.508 58.1455 458.754 58.8831 459 59.6207C459.245 60.1125 459.737 60.6042 460.475 61.0959C460.966 61.3418 461.458 61.5877 462.442 61.5877ZM475.964 44.131H477.44H479.407H487.766V47.3273H479.407V64.5381H475.964V44.131ZM636.27 5.52979C636.27 7.00499 635.779 7.98846 635.041 8.97194C634.303 9.70954 633.074 10.2013 631.599 10.2013C630.124 10.2013 628.894 9.70954 628.157 8.97194C627.419 8.23433 626.927 7.00499 626.927 5.52979H629.632C629.632 6.26739 629.878 6.75912 630.124 7.00499C630.369 7.25086 630.861 7.49673 631.599 7.49673C632.336 7.49673 632.582 7.25086 633.074 7.00499C633.32 6.75912 633.566 6.02152 633.566 5.52979H636.27ZM295.743 11.4306H299.185V28.6414H300.661H302.136V36.2633H298.694V31.8376H295.989H288.121H286.646H284.925V11.4306H288.367V28.6414H296.235V11.4306H295.743ZM308.283 11.4306H309.758H311.725H321.805V14.6269H311.725V20.036H320.33V23.2323H311.725V28.6414H321.805V31.8376H311.725H309.758H308.283V11.4306ZM372.208 14.6269V20.7736H376.88C377.371 20.7736 377.863 20.5277 378.355 20.2819C378.847 20.036 379.092 19.7901 379.338 19.2984C379.584 18.8067 379.584 18.3149 379.584 17.8232C379.584 17.3314 379.584 16.5938 379.338 16.1021C379.092 15.6104 378.847 15.3645 378.355 15.1186C377.863 14.8728 377.371 14.6269 376.88 14.6269H372.208ZM368.766 11.4306H370.487H372.208H376.88C378.109 11.4306 379.338 11.6765 380.076 12.1682C381.059 12.66 381.797 13.3976 382.289 14.381C382.78 15.3645 383.026 16.348 383.026 17.5773C383.026 18.8067 382.78 20.036 382.289 20.7736C381.797 21.7571 381.059 22.4947 380.076 22.9864C379.092 23.4781 378.109 23.724 376.88 23.724H372.208V31.5918H368.766V11.4306ZM339.999 11.4306H343.442V31.8376H339.999V23.2323H331.886V31.8376H328.444V11.4306H331.886V20.2819H339.999V11.4306ZM357.702 14.6269V31.8376H354.26V14.6269H348.605V11.4306H363.357V14.6269H357.702ZM424.086 11.4306H425.562H427.528H437.609V14.6269H427.528V20.036H436.134V23.2323H427.528V28.6414H437.609V31.8376H427.528H425.562H424.086V11.4306ZM449.902 14.6269V23.4781C449.902 24.9533 449.657 26.4286 449.165 27.6579C448.919 28.1496 448.919 28.3955 448.673 28.6414H456.049V14.6269H449.902ZM443.264 28.6414C444.247 28.6414 444.985 28.1496 445.477 27.412C445.969 26.4286 446.214 25.1992 446.214 23.724V11.4306H448.181H449.657H455.803H457.278H459V28.6414H460.229H461.458V36.0174H458.262V31.8376H455.803H446.214V36.0174H443.018V31.8376V28.6414H443.264ZM503.01 11.4306H506.452V28.6414H507.927H509.402V36.2633H505.96V31.8376H503.256H495.388H493.913H492.192V11.4306H495.634V28.6414H503.502V11.4306H503.01ZM550.216 11.4306H553.659V31.8376H550.216V23.2323H542.103V31.8376H538.661V11.4306H542.103V20.2819H550.216V11.4306ZM568.165 32.0835C566.69 32.0835 565.46 31.8376 564.231 31.1C563.247 30.6083 562.264 29.6248 561.772 28.3955C561.281 27.1662 560.789 25.9368 560.789 24.2157V18.8067C560.789 17.3314 561.035 15.8562 561.772 14.6269C562.264 13.3976 563.247 12.66 564.231 11.9223C565.214 11.4306 566.69 10.9389 568.165 10.9389C569.394 10.9389 570.624 11.1847 571.607 11.6765C572.59 12.1682 573.328 12.9058 574.066 13.8893C574.803 14.8728 575.295 16.1021 575.541 17.3314H572.099C571.853 16.5938 571.607 16.1021 571.361 15.6104C571.115 15.1186 570.624 14.6269 570.132 14.381C569.64 14.1352 569.148 13.8893 568.411 13.8893C567.673 13.8893 566.936 14.1352 566.444 14.381C565.952 14.6269 565.46 15.1186 565.214 15.8562C564.969 16.5938 564.723 17.3314 564.723 18.069V23.724C564.723 24.7075 564.969 25.4451 565.214 25.9368C565.46 26.6744 565.952 27.1662 566.444 27.412C566.936 27.6579 567.673 27.9038 568.411 27.9038C568.902 27.9038 569.64 27.6579 570.132 27.412C570.624 27.1662 571.115 26.9203 571.361 26.4286C571.607 25.9368 572.099 25.4451 572.099 24.7075H575.541C575.295 25.9368 574.803 27.1662 574.066 28.1496C573.328 29.1331 572.59 29.8707 571.607 30.3624C570.624 31.8376 569.394 32.0835 568.165 32.0835ZM587.834 20.036L592.998 11.4306H596.931L590.539 21.5112L597.915 31.8376H593.489L587.834 23.2323H585.376V31.8376H581.933V11.4306H585.376V20.036H587.834ZM609.471 32.0835C607.995 32.0835 606.766 31.8376 605.537 31.1C604.307 30.3624 603.57 29.6248 603.078 28.3955C602.586 27.1662 602.095 25.9368 602.095 24.4616V18.8067C602.095 17.3314 602.34 16.1021 603.078 14.8728C603.57 13.6434 604.553 12.9058 605.537 12.1682C606.52 11.4306 607.995 11.1847 609.471 11.1847C610.946 11.1847 612.175 11.4306 613.405 12.1682C614.634 12.9058 615.371 13.6434 615.863 14.8728C616.355 16.1021 616.847 17.3314 616.847 18.8067V24.7075C616.847 26.1827 616.601 27.412 615.863 28.6414C615.371 29.8707 614.388 30.6083 613.405 31.3459C612.421 31.5918 610.946 32.0835 609.471 32.0835ZM609.471 28.6414C610.208 28.6414 610.946 28.3955 611.438 28.1496C611.929 27.9038 612.421 27.412 612.913 26.6744C613.159 25.9368 613.405 25.4451 613.405 24.4616V18.5608C613.405 17.8232 613.159 17.0856 612.913 16.348C612.667 15.6104 612.175 15.3645 611.438 14.8728C610.946 14.6269 610.208 14.381 609.471 14.381C608.733 14.381 607.995 14.6269 607.504 14.8728C607.012 15.1186 606.52 15.6104 606.274 16.348C606.028 17.0856 605.783 17.5773 605.783 18.5608V24.4616C605.783 25.1992 606.028 25.9368 606.274 26.6744C606.52 27.412 607.012 27.6579 607.504 28.1496C608.241 28.3955 608.733 28.6414 609.471 28.6414ZM518.745 26.9203L527.351 11.4306H530.793V31.8376H527.597V16.5938L518.991 31.8376H515.549V11.4306H518.745V26.9203ZM471.539 26.9203L480.144 11.4306H483.586V31.8376H480.39V16.5938L471.785 31.8376H468.342V11.4306H471.539V26.9203ZM413.022 17.5773L408.597 29.379H405.892L401.466 17.8232V31.8376H398.516V11.4306H402.45L407.367 24.9533L412.285 11.4306H416.219V31.8376H413.022V17.5773ZM636.27 31.8376V16.5938L627.665 31.8376H624.223V11.4306H627.419V26.9203L636.024 11.4306H639.467V31.8376H636.27ZM496.126 59.6207L504.731 44.131H508.173V64.5381H504.977V49.2943L496.371 64.5381H492.929V44.131H496.126V59.6207ZM518.745 59.6207L527.351 44.131H530.793V64.5381H527.597V49.2943L518.991 64.5381H515.549V44.131H518.745V59.6207ZM290.088 52.9823L295.252 44.3769H299.185L292.793 54.4575L300.169 64.7839H295.743L290.088 56.1786H287.63V64.7839H284.188V44.3769H287.63V52.9823H290.088Z" fill="#343263"/>
</svg>
