<svg width="716" height="212" viewBox="0 0 716 212" fill="none" xmlns="http://www.w3.org/2000/svg">
<path fill-rule="evenodd" clip-rule="evenodd" d="M144.95 183.062L147.428 200.68C147.703 203.158 146.051 205.635 143.574 205.91C141.096 206.186 138.619 204.534 138.343 202.056L134.49 175.079L144.95 183.062ZM192.574 110.663L209.091 117.269C211.569 118.095 212.67 120.848 211.569 123.326C210.743 125.803 207.99 126.904 205.512 125.803L180.186 115.618L192.574 110.663ZM153.484 33.3081L167.523 22.2968C169.45 20.6451 172.479 21.1957 173.855 23.1227C175.507 25.0496 174.956 28.0778 173.029 29.4542L151.557 46.5217L153.484 33.3081ZM178.535 153.331L189.546 167.371C191.198 169.298 190.647 172.326 188.72 173.702C186.793 175.354 183.765 174.803 182.389 172.876L165.321 151.404L178.535 153.331ZM183.49 66.8926L201.108 64.4151C203.585 64.1398 206.063 65.7915 206.338 68.269C206.614 70.7466 204.962 73.2241 202.484 73.4994L175.507 77.3534L183.49 66.8926ZM110.815 19.2687L117.422 2.75174C118.523 0.549477 121.276 -0.551654 123.478 0.274195C125.956 1.10004 127.057 3.85287 125.956 6.33041L115.77 31.6564L110.815 19.2687ZM33.4608 58.3589L22.4495 44.3194C20.7978 42.3925 21.3483 39.3643 23.2753 37.9879C25.2023 36.3362 28.2304 36.8868 29.6068 38.8138L46.399 60.2858L33.4608 58.3589ZM67.0452 28.353L64.5677 11.0102C64.2924 8.53268 65.9441 6.05513 68.4217 5.77985C70.8992 5.50457 73.3768 7.15626 73.652 9.63381L77.506 36.6115L67.0452 28.353ZM100.905 192.422L94.2983 208.939C93.4724 211.416 90.7196 212.517 88.242 211.416C85.7645 210.59 84.6634 207.837 85.7645 205.36L95.9499 180.034L100.905 192.422ZM19.4213 100.752L2.90438 94.1456C0.426831 93.3198 -0.6743 90.5669 0.426831 88.0894C1.25268 85.6118 4.00551 84.5107 6.48305 85.6118L31.8091 95.7973L19.4213 100.752ZM28.5057 144.798L11.1629 147.275C8.41003 147.55 6.20777 145.899 5.93249 143.421C5.6572 140.944 7.3089 138.466 9.78644 138.191L36.7642 134.337L28.5057 144.798ZM58.5115 178.382L44.4721 189.393C42.5451 191.045 39.517 190.495 38.1406 188.568C36.4889 186.641 37.0394 183.612 38.9664 182.236L60.4385 165.444L58.5115 178.382ZM205.512 85.6118C207.99 84.786 210.468 85.8871 211.569 88.0894C212.395 90.5669 211.293 93.0445 209.091 94.1456L169.45 110.112C166.973 110.938 164.495 109.837 163.394 107.634C162.568 105.157 163.67 102.679 165.872 101.578L205.512 85.6118ZM173.029 181.961C174.956 183.612 175.507 186.365 173.855 188.292C172.203 190.219 169.45 190.77 167.523 189.118L134.214 162.966C132.287 161.315 131.737 158.562 133.388 156.635C135.04 154.708 137.793 154.157 139.72 155.809L173.029 181.961ZM202.209 138.191C204.687 138.466 206.338 140.944 206.063 143.421C205.788 145.899 203.31 147.55 200.833 147.275L158.714 141.219C156.237 140.944 154.585 138.466 154.86 135.989C155.136 133.511 157.613 131.584 160.091 132.135L202.209 138.191ZM138.343 9.63381C138.619 7.15626 141.096 5.22928 143.574 5.77985C146.051 6.05513 147.703 8.25739 147.428 11.0102L141.372 53.1285C141.096 55.606 138.619 57.2577 136.141 56.9824C133.664 56.7072 132.012 54.2296 132.287 51.7521L138.343 9.63381ZM182.113 38.5385C183.765 36.6115 186.518 36.061 188.445 37.7126C190.372 39.3643 190.922 42.1172 189.271 44.0442L163.119 77.3534C161.467 79.2803 158.714 79.8309 156.787 78.1792C154.86 76.5275 154.31 73.7747 155.962 71.8477L182.113 38.5385ZM85.7645 6.33041C84.9386 3.85287 86.0398 1.37533 88.242 0.274195C90.7196 -0.551654 93.1971 0.549477 94.2983 2.75174L110.265 42.3925C111.09 44.87 109.989 47.3475 107.787 48.4487C105.31 49.2745 102.832 48.1734 101.731 45.9711L85.7645 6.33041ZM6.48305 125.803C4.00551 126.629 1.52796 125.528 0.426831 123.326C-0.399017 121.123 0.702114 118.37 3.17966 117.269L42.5451 101.303C45.0226 100.477 47.5002 101.578 48.6013 103.781C49.4272 106.258 48.326 108.736 46.1238 109.837L6.48305 125.803ZM9.78644 73.4994C7.3089 73.2241 5.6572 70.7466 5.93249 68.269C6.20777 65.7915 8.68531 64.1398 11.1629 64.4151L53.2811 70.4713C55.7587 70.7466 57.6856 73.2241 57.1351 75.7017C56.8598 78.1792 54.3822 80.1062 51.9047 79.5556L9.78644 73.4994ZM38.6911 29.7295C36.7642 28.0778 36.2136 25.3249 37.8653 23.3979C39.517 21.471 42.2698 20.9204 44.1968 22.5721L77.506 48.724C79.433 50.3757 79.9835 53.1285 78.3318 55.0555C76.6801 56.9824 73.9273 57.533 72.0003 55.8813L38.6911 29.7295ZM125.956 205.36C126.782 207.837 125.68 210.315 123.478 211.416C121.001 212.242 118.523 211.141 117.422 208.939L101.731 169.573C100.905 167.096 102.006 164.618 104.208 163.517C106.686 162.691 109.164 163.792 110.265 165.994L125.956 205.36ZM73.652 202.056C73.3768 204.534 70.8992 206.461 68.4217 205.91C65.9441 205.635 64.2924 203.158 64.5677 200.68L70.6239 158.562C70.8992 156.084 73.3768 154.433 75.8543 154.708C78.3318 154.983 79.9835 157.461 79.7083 159.938L73.652 202.056ZM29.8821 172.876C28.2304 174.803 25.4776 175.354 23.5506 173.702C21.6236 172.051 21.073 169.298 22.7247 167.371L48.8766 134.062C50.5283 132.135 53.2811 131.584 55.2081 133.236C57.1351 134.887 57.6856 137.64 56.0339 139.567L29.8821 172.876ZM76.9554 76.8028C69.5228 84.2354 64.843 94.4209 64.843 105.983C64.843 117.269 69.5228 127.73 76.9554 135.163C84.3881 142.595 94.5735 147.275 106.135 147.275C117.422 147.275 127.883 142.595 135.315 135.163C142.748 127.73 147.428 117.545 147.428 105.983C147.428 94.6962 142.748 84.2354 135.315 76.8028C127.883 69.3702 117.697 64.6904 106.135 64.6904C94.5735 64.6904 84.3881 69.3702 76.9554 76.8028ZM55.4834 105.707C55.4834 91.9433 60.989 79.2803 70.3486 70.196C79.433 61.1117 92.096 55.3307 105.86 55.3307C119.624 55.3307 132.287 60.8364 141.372 70.196C150.456 79.2803 156.237 91.9433 156.237 105.707C156.237 119.472 150.731 132.135 141.372 141.219C132.287 150.303 119.624 156.084 105.86 156.084C92.096 156.084 79.433 150.579 70.3486 141.219C61.2643 132.41 55.4834 119.747 55.4834 105.707Z" fill="#D9BA5B"/>
<path d="M607.699 174.802C609.076 175.352 610.177 175.903 611.002 177.004C612.654 178.656 613.48 180.858 613.48 183.336V191.044C613.48 193.521 612.379 195.723 611.002 197.375C609.351 199.027 607.149 199.853 604.671 199.853H569.985V153.605H600.266C602.744 153.605 604.946 154.706 606.598 156.083C608.25 157.734 609.076 159.937 609.076 162.414V170.122C609.076 172.049 608.525 173.425 607.699 174.802ZM574.94 158.56V194.622H604.671C605.772 194.622 606.598 194.072 607.424 193.521C608.25 192.695 608.525 191.869 608.525 190.768V183.06C608.525 181.959 607.974 181.133 607.424 180.307C606.598 179.757 605.772 179.206 604.671 179.206H579.07V173.976H600.266C601.368 173.976 602.193 173.425 603.019 172.875C603.845 172.324 604.12 171.223 604.12 170.122V162.414C604.12 161.313 603.57 160.487 603.019 159.661C602.193 158.835 601.368 158.56 600.266 158.56H574.94ZM437.85 158.835C437.299 159.386 436.473 160.212 436.198 161.038L421.057 199.853H415.552C420.507 186.914 425.737 171.498 431.518 159.386C431.793 158.56 432.344 157.734 432.895 156.908C433.445 156.083 433.996 155.532 434.822 154.981C436.473 153.88 438.125 153.33 440.052 153.33C441.153 153.33 441.979 153.605 442.805 153.88C443.631 154.156 444.456 154.706 445.282 155.257C446.108 155.807 446.659 156.358 447.209 157.184C447.76 158.01 448.31 158.835 448.586 159.661L464.277 200.128H459.046L443.906 161.313C443.631 160.487 443.08 159.661 442.254 159.111C441.704 158.56 440.878 158.285 440.052 158.285C439.226 158.285 438.4 158.56 437.85 158.835ZM392.153 152.504C398.759 152.504 405.091 155.257 409.496 159.661C413.9 164.066 416.653 170.122 416.653 177.004C416.653 183.611 413.9 189.942 409.496 194.347C405.091 198.751 399.035 201.504 392.153 201.504C385.546 201.504 379.214 198.751 374.81 194.347C370.405 189.942 367.653 183.886 367.653 177.004C367.653 170.397 370.405 164.066 374.81 159.661C379.214 154.981 385.271 152.504 392.153 152.504ZM405.642 163.24C402.063 159.661 397.383 157.459 391.877 157.459C386.647 157.459 381.692 159.661 378.113 163.24C374.535 166.819 372.332 171.498 372.332 177.004C372.332 182.234 374.535 187.19 378.113 190.768C381.692 194.347 386.372 196.549 391.877 196.549C397.108 196.549 402.063 194.347 405.642 190.768C409.22 187.19 411.422 182.51 411.422 177.004C411.422 171.498 409.22 166.543 405.642 163.24ZM538.328 152.504C544.935 152.504 551.266 155.257 555.671 159.661C560.075 164.066 562.828 170.122 562.828 177.004C562.828 183.611 560.075 189.942 555.671 194.347C551.266 198.751 545.21 201.504 538.328 201.504C531.721 201.504 525.39 198.751 520.985 194.347C516.581 189.942 513.828 183.886 513.828 177.004C513.828 170.397 516.581 164.066 520.985 159.661C525.39 154.981 531.721 152.504 538.328 152.504ZM552.092 163.24C548.513 159.661 543.833 157.459 538.328 157.459C533.097 157.459 528.142 159.661 524.564 163.24C520.985 166.819 519.058 171.498 519.058 177.004C519.058 182.234 521.26 187.19 524.564 190.768C528.142 194.347 532.822 196.549 538.328 196.549C543.558 196.549 548.513 194.347 552.092 190.768C555.671 187.19 557.873 182.51 557.873 177.004C557.598 171.498 555.395 166.543 552.092 163.24ZM643.211 152.504C649.817 152.504 656.149 155.257 660.553 159.661C664.958 164.066 667.711 170.122 667.711 177.004C667.711 183.611 664.958 189.942 660.553 194.347C656.149 198.751 650.093 201.504 643.211 201.504C636.604 201.504 630.272 198.751 625.868 194.347C621.463 189.942 618.71 183.886 618.71 177.004C618.71 170.397 621.463 164.066 625.868 159.661C630.548 154.981 636.604 152.504 643.211 152.504ZM656.975 163.24C653.396 159.661 648.716 157.459 643.211 157.459C637.98 157.459 633.025 159.661 629.446 163.24C625.868 166.819 623.665 171.498 623.665 177.004C623.665 182.234 625.868 187.19 629.446 190.768C633.025 194.347 637.705 196.549 643.211 196.549C648.441 196.549 653.396 194.347 656.975 190.768C660.553 187.19 662.756 182.51 662.756 177.004C662.48 171.498 660.553 166.543 656.975 163.24ZM677.346 199.853H673.492V153.605H678.447V192.145L711.205 153.605H715.885V199.853H710.93V161.313L678.722 199.027V199.853H677.346ZM702.396 144.796V149.751H686.981V144.796H702.396ZM356.091 174.802C357.467 175.352 358.568 175.903 359.394 177.004C361.046 178.656 361.872 180.858 361.872 183.336V191.044C361.872 193.521 360.77 195.723 359.394 197.375C357.742 199.027 355.54 199.853 353.063 199.853H318.102V153.605H348.383C350.86 153.605 353.063 154.706 354.714 156.083C356.366 157.734 357.192 159.937 357.192 162.414V170.122C357.467 172.049 356.917 173.425 356.091 174.802ZM323.332 158.56V194.622H353.063C354.164 194.622 354.99 194.072 355.815 193.521C356.641 192.695 356.917 191.869 356.917 190.768V183.06C356.917 181.959 356.366 181.133 355.815 180.307C354.99 179.757 354.164 179.206 353.063 179.206H327.461V173.976H348.658C349.759 173.976 350.585 173.425 351.411 172.875C352.237 172.324 352.512 171.223 352.512 170.122V162.414C352.512 161.313 351.961 160.487 351.411 159.661C350.585 158.835 349.759 158.56 348.658 158.56H323.332ZM352.512 101.301C348.933 97.7227 344.253 95.5204 338.748 95.5204C333.517 95.5204 328.562 97.7227 324.984 101.301C321.405 104.88 319.203 109.56 319.203 115.065C319.203 120.296 321.405 125.251 324.984 128.83C328.562 132.408 333.242 134.335 338.748 134.335C343.978 134.335 348.933 132.133 352.512 128.83C356.091 125.251 358.293 120.571 358.293 115.065C358.293 109.56 356.091 104.88 352.512 101.301ZM339.023 90.5653C345.63 90.5653 351.961 93.3182 356.366 97.7227C360.77 102.127 363.523 108.183 363.523 115.065C363.523 121.672 360.77 128.004 356.366 132.408C351.961 136.813 345.905 139.566 339.023 139.566C332.416 139.566 326.085 136.813 321.68 132.408C317.276 128.004 314.523 121.948 314.523 115.065C314.523 108.459 317.276 102.127 321.68 97.7227C326.085 93.3182 332.141 90.5653 339.023 90.5653ZM372.608 91.9417H376.186V112.037V120.571V138.465H371.231V91.9417H372.608ZM395.181 117.543H380.04V112.588H394.906C395.731 112.588 396.557 112.313 397.108 112.037C397.934 111.487 398.484 110.386 399.585 109.009C402.613 103.779 407.844 97.1721 411.422 91.9417H417.479L403.715 111.762C403.164 112.588 402.613 113.414 402.063 113.964C401.788 114.24 401.512 114.79 401.237 115.065C401.512 115.341 401.788 115.616 402.063 116.167C402.613 116.717 403.164 117.543 403.715 118.369L417.479 138.189H411.422C410.046 135.987 399.861 121.948 399.585 121.122C398.759 119.745 397.934 118.919 397.108 118.094C396.557 117.818 396.007 117.543 395.181 117.543ZM492.08 97.1721C491.53 97.7227 490.704 98.5485 490.429 99.3744L475.288 138.189H469.782C474.738 125.251 479.968 109.835 485.749 97.7227C486.024 96.8968 486.575 96.071 487.125 95.2451C487.676 94.4193 488.226 93.8687 489.052 93.3182C490.704 92.217 492.356 91.6665 494.283 91.6665C495.384 91.6665 496.21 91.9417 497.035 92.217C497.861 92.4923 498.687 93.0429 499.513 93.5934C500.339 94.144 500.889 94.6946 501.44 95.5204C501.991 96.3463 502.541 97.1721 502.816 97.998C508.597 110.11 513.552 125.802 518.783 138.465H513.552L508.322 125.251H484.923L486.85 120.296H506.395L498.412 99.6497C498.137 98.8238 497.586 97.998 496.76 97.4474C496.21 96.8968 495.384 96.6215 494.558 96.6215C493.457 96.3463 492.906 96.6215 492.08 97.1721ZM568.609 93.3182V137.914H563.654V117.268H531.446V137.914H526.491V91.9417H531.446V112.588H563.654V91.9417H568.609V93.3182ZM633.576 138.189H628.621V91.9417H633.576V138.189ZM612.104 112.588C614.581 112.588 616.783 113.689 618.435 115.065C620.087 116.717 620.913 118.919 620.913 121.397V129.105C620.913 131.582 619.812 133.785 618.435 135.436C616.783 137.088 614.581 137.914 612.104 137.914H578.794V91.9417H583.75V132.959H612.104C613.205 132.959 614.031 132.408 614.856 131.858C615.682 131.032 615.958 130.206 615.958 129.105V121.397C615.958 120.296 615.407 119.47 614.856 118.644C614.031 118.094 613.205 117.543 612.104 117.543H587.879V112.588H612.104ZM465.378 127.178C463.176 131.032 460.148 134.06 456.569 135.987C452.99 138.189 448.861 139.29 444.456 139.29C437.85 139.29 431.518 136.538 427.114 132.133C422.709 127.728 419.956 121.672 419.956 114.79C419.956 108.183 422.709 101.852 427.114 97.4474C431.518 93.0429 437.574 90.29 444.456 90.29C448.861 90.29 452.99 91.3912 456.569 93.5934C460.148 95.7957 463.176 98.8238 465.378 102.402L460.973 104.88C459.322 101.852 456.844 99.3744 453.816 97.7227C451.063 96.071 447.76 95.2451 444.181 95.2451C438.951 95.2451 433.996 97.4474 430.417 101.026C426.838 104.605 424.636 109.285 424.636 114.79C424.636 120.021 426.838 124.976 430.417 128.554C433.996 132.133 438.675 134.06 444.181 134.06C447.76 134.06 451.063 133.234 453.816 131.582C456.569 129.931 459.046 127.453 460.973 124.425L465.378 127.178ZM492.631 179.206H477.766V174.251H492.631C493.457 174.251 494.283 173.976 494.833 173.425C495.659 172.875 496.21 171.774 497.311 170.397C500.339 165.167 505.569 158.56 509.148 153.33H515.204L501.44 173.15C500.889 173.976 500.339 174.802 499.788 175.352C499.513 175.628 499.238 176.178 498.962 176.454C499.238 176.729 499.513 177.004 499.788 177.555C500.339 178.105 500.889 178.931 501.44 179.757L515.204 199.577H509.148C507.771 197.375 497.586 183.336 497.311 182.51C496.485 181.133 495.659 180.307 494.833 179.482C494.007 179.482 493.457 179.206 492.631 179.206ZM473.636 153.605V199.853H468.681V153.605H473.636Z" fill="#343263"/>
<path d="M260.019 6.32812H256.166V205.358H260.019V6.32812Z" fill="#343263"/>
<path d="M349.21 71.5721C347.558 71.5721 346.182 71.2969 344.806 70.471C343.429 69.6452 342.603 68.8193 342.053 67.4429C341.502 66.0665 340.952 64.6901 340.952 63.0384V56.4316C340.952 54.7799 341.227 53.4035 342.053 52.0271C342.603 50.6507 343.704 49.8248 344.806 48.999C345.907 48.1731 347.558 47.8978 349.21 47.8978C350.862 47.8978 352.238 48.1731 353.615 48.999C354.991 49.8248 355.817 50.6507 356.367 52.0271C356.918 53.4035 357.469 54.7799 357.469 56.4316V63.3137C357.469 64.9654 357.193 66.3418 356.367 67.7182C355.817 69.0946 354.716 69.9204 353.615 70.7463C352.238 71.2969 350.862 71.5721 349.21 71.5721ZM349.21 67.9935C350.036 67.9935 350.862 67.7182 351.412 67.4429C351.963 67.1676 352.513 66.6171 353.064 65.7912C353.339 64.9654 353.615 64.4148 353.615 63.3137V56.7069C353.615 55.881 353.339 55.0552 353.064 54.2293C352.789 53.4035 352.238 53.1282 351.412 52.5776C350.862 52.3024 350.036 52.0271 349.21 52.0271C348.384 52.0271 347.558 52.3024 347.008 52.5776C346.457 52.8529 345.907 53.4035 345.631 54.2293C345.356 55.0552 345.081 55.6057 345.081 56.7069V63.3137C345.081 64.1395 345.356 64.9654 345.631 65.7912C345.907 66.3418 346.457 66.8923 347.008 67.4429C347.558 67.7182 348.384 67.9935 349.21 67.9935ZM372.884 71.5721C371.233 71.5721 369.856 71.2969 368.48 70.471C367.379 69.9204 366.278 68.8193 365.727 67.4429C365.177 66.0665 364.626 64.6901 364.626 62.7631V56.4316C364.626 54.7799 364.901 53.1282 365.727 51.7518C366.278 50.3754 367.379 49.5495 368.48 48.7237C369.581 48.1731 371.233 47.6225 372.884 47.6225C374.261 47.6225 375.637 47.8978 376.738 48.4484C377.84 48.999 378.665 49.8248 379.491 50.9259C380.317 52.0271 380.868 53.4035 381.143 54.7799H377.289C377.014 53.954 376.738 53.4035 376.463 52.8529C376.188 52.3024 375.637 51.7518 375.087 51.4765C374.536 51.2012 373.986 50.9259 373.16 50.9259C372.334 50.9259 371.508 51.2012 370.957 51.4765C370.407 51.7518 369.856 52.3024 369.581 53.1282C369.306 53.954 369.03 54.7799 369.03 55.6057V61.9372C369.03 63.0384 369.306 63.8642 369.581 64.4148C369.856 65.2406 370.407 65.7912 370.957 66.0665C371.508 66.3418 372.334 66.6171 373.16 66.6171C373.71 66.6171 374.536 66.3418 375.087 66.0665C375.637 65.7912 376.188 65.2406 376.463 64.9654C376.738 64.4148 377.289 63.8642 377.289 63.0384H381.143C380.868 64.4148 380.317 65.7912 379.491 66.8923C378.665 67.9935 377.84 68.8193 376.738 69.3699C375.362 71.2969 374.261 71.5721 372.884 71.5721ZM403.716 48.4484H408.121V71.2969H404.542V53.9541L404.817 55.0552L399.862 68.544H396.559L391.604 55.3305L391.879 53.9541V71.2969H388.3V48.4484H392.705L398.21 63.5889L403.716 48.4484ZM416.654 48.4484H418.306H420.508H431.795V52.0271H420.508V58.0833H430.143V61.662H420.508V67.7182H431.795V71.2969H420.508H418.306H416.654V48.4484ZM447.761 52.0271V71.2969H443.907V52.0271H437.576V48.4484H454.093V52.0271H447.761ZM467.306 71.5721C465.655 71.5721 464.278 71.2969 462.902 70.471C461.525 69.6452 460.7 68.8193 460.149 67.4429C459.598 66.0665 459.048 64.6901 459.048 63.0384V56.4316C459.048 54.7799 459.323 53.4035 460.149 52.0271C460.7 50.6507 461.801 49.8248 462.902 48.999C464.003 48.1731 465.655 47.8978 467.306 47.8978C468.958 47.8978 470.334 48.1731 471.711 48.999C473.087 49.8248 473.913 50.6507 474.464 52.0271C475.014 53.4035 475.565 54.7799 475.565 56.4316V63.3137C475.565 64.9654 475.29 66.3418 474.464 67.7182C473.913 69.0946 472.812 69.9204 471.711 70.7463C470.334 71.2969 468.958 71.5721 467.306 71.5721ZM467.306 67.9935C468.132 67.9935 468.958 67.7182 469.509 67.4429C470.059 67.1676 470.61 66.6171 471.16 65.7912C471.436 64.9654 471.711 64.4148 471.711 63.3137V56.7069C471.711 55.881 471.436 55.0552 471.16 54.2293C470.885 53.4035 470.334 53.1282 469.509 52.5776C468.958 52.3024 468.132 52.0271 467.306 52.0271C466.481 52.0271 465.655 52.3024 465.104 52.5776C464.554 52.8529 464.003 53.4035 463.452 54.2293C463.177 55.0552 462.902 55.6057 462.902 56.7069V63.3137C462.902 64.1395 463.177 64.9654 463.452 65.7912C463.728 66.3418 464.278 66.8923 465.104 67.4429C465.655 67.7182 466.481 67.9935 467.306 67.9935ZM482.447 67.7182C483.273 67.7182 484.099 67.4429 484.649 67.1676C485.2 66.8923 485.75 66.0665 486.026 65.2406C486.301 64.4148 486.576 63.3137 486.576 62.2125V48.4484H488.778H490.43H497.863H499.514H501.441V71.2969H497.587V52.0271H490.155V62.2125C490.155 64.1395 489.88 65.7912 489.329 67.1676C488.778 68.544 487.953 69.6452 486.851 70.1957C485.75 70.7463 484.374 71.2969 482.722 71.2969H482.447V67.7182ZM517.683 71.5721C516.031 71.5721 514.655 71.2969 513.279 70.471C511.902 69.6452 511.076 68.8193 510.526 67.4429C509.975 66.0665 509.425 64.6901 509.425 63.0384V56.4316C509.425 54.7799 509.7 53.4035 510.526 52.0271C511.076 50.6507 512.177 49.8248 513.279 48.999C514.38 48.1731 516.031 47.8978 517.683 47.8978C519.335 47.8978 520.711 48.1731 522.088 48.999C523.464 49.8248 524.29 50.6507 524.84 52.0271C525.391 53.4035 525.942 54.7799 525.942 56.4316V63.3137C525.942 64.9654 525.666 66.3418 524.84 67.7182C524.29 69.0946 523.189 69.9204 522.088 70.7463C520.711 71.2969 519.06 71.5721 517.683 71.5721ZM517.683 67.9935C518.509 67.9935 519.335 67.7182 519.885 67.4429C520.436 67.1676 520.986 66.6171 521.537 65.7912C521.812 64.9654 522.088 64.4148 522.088 63.3137V56.7069C522.088 55.881 521.812 55.0552 521.537 54.2293C521.262 53.4035 520.711 53.1282 519.885 52.5776C519.335 52.3024 518.509 52.0271 517.683 52.0271C516.857 52.0271 516.031 52.3024 515.481 52.5776C514.93 52.8529 514.38 53.4035 513.829 54.2293C513.554 55.0552 513.279 55.6057 513.279 56.7069V63.3137C513.279 64.1395 513.554 64.9654 513.829 65.7912C514.104 66.3418 514.655 66.8923 515.481 67.4429C516.031 67.7182 516.582 67.9935 517.683 67.9935ZM532.824 48.4484H534.475H536.678H546.037V52.0271H536.678V71.2969H532.824V48.4484ZM712.308 5.229C712.308 6.8807 711.757 7.98183 710.932 9.08296C710.106 9.90881 708.729 10.4594 707.078 10.4594C705.426 10.4594 704.049 9.90881 703.224 9.08296C702.398 8.25711 701.847 6.8807 701.847 5.229H704.875C704.875 6.05485 705.151 6.60542 705.426 6.8807C705.701 7.15598 706.252 7.43127 707.078 7.43127C707.903 7.43127 708.179 7.15598 708.729 6.8807C709.005 6.60542 709.28 5.77957 709.28 5.229H712.308ZM331.041 11.8358H334.895V31.1056H336.547H338.199V39.6393H334.345V34.6843H331.317H322.508H320.856H318.929V11.8358H322.783V31.1056H331.592V11.8358H331.041ZM345.081 11.8358H346.733H348.935H360.221V15.4145H348.935V21.4707H358.57V25.0494H348.935V31.1056H360.221V34.6843H348.935H346.733H345.081V11.8358ZM416.654 15.4145V22.2965H421.885C422.435 22.2965 422.986 22.0212 423.536 21.746C424.087 21.4707 424.362 21.1954 424.638 20.6448C424.913 20.0943 424.913 19.5437 424.913 18.9931C424.913 18.4426 424.913 17.6167 424.638 17.0662C424.362 16.5156 424.087 16.2403 423.536 15.965C422.986 15.6897 422.435 15.4145 421.885 15.4145H416.654ZM412.8 11.8358H414.727H416.654H421.885C423.261 11.8358 424.638 12.1111 425.463 12.6616C426.565 13.2122 427.39 14.0381 427.941 15.1392C428.492 16.2403 428.767 17.3414 428.767 18.7179C428.767 20.0943 428.492 21.4707 427.941 22.2965C427.39 23.3977 426.565 24.2235 425.463 24.7741C424.362 25.3246 423.261 25.5999 421.885 25.5999H416.654V34.409H412.8V11.8358ZM380.592 11.8358H384.446V34.6843H380.592V25.0494H371.508V34.6843H367.654V11.8358H371.508V21.746H380.592V11.8358ZM400.413 15.4145V34.6843H396.559V15.4145H390.227V11.8358H406.744V15.4145H400.413ZM474.739 11.8358H476.391H478.593H489.88V15.4145H478.593V21.4707H488.228V25.0494H478.593V31.1056H489.88V34.6843H478.593H476.391H474.739V11.8358ZM503.644 15.4145V25.3246C503.644 26.9763 503.368 28.628 502.818 30.0044C502.543 30.555 502.543 30.8303 502.267 31.1056H510.526V15.4145H503.644ZM496.211 31.1056C497.312 31.1056 498.138 30.555 498.689 29.7292C499.239 28.628 499.514 27.2516 499.514 25.5999V11.8358H501.717H503.368H510.25H511.902H513.829V31.1056H515.206H516.582V39.3641H513.003V34.6843H510.25H499.514V39.3641H495.936V34.6843V31.1056H496.211ZM563.105 11.8358H566.959V31.1056H568.61H570.262V39.6393H566.408V34.6843H563.38H554.571H552.919H550.992V11.8358H554.846V31.1056H563.655V11.8358H563.105ZM615.959 11.8358H619.813V34.6843H615.959V25.0494H606.875V34.6843H603.021V11.8358H606.875V21.746H615.959V11.8358ZM636.055 34.9595C634.403 34.9595 633.027 34.6843 631.65 33.8584C630.549 33.3078 629.448 32.2067 628.897 30.8303C628.347 29.4539 627.796 28.0775 627.796 26.1505V20.0943C627.796 18.4426 628.071 16.7909 628.897 15.4145C629.448 14.0381 630.549 13.2122 631.65 12.3864C632.751 11.8358 634.403 11.2852 636.055 11.2852C637.431 11.2852 638.807 11.5605 639.909 12.1111C641.01 12.6616 641.836 13.4875 642.661 14.5886C643.487 15.6897 644.038 17.0662 644.313 18.4426H640.459C640.184 17.6167 639.909 17.0662 639.633 16.5156C639.358 15.965 638.808 15.4145 638.257 15.1392C637.706 14.8639 637.156 14.5886 636.33 14.5886C635.504 14.5886 634.678 14.8639 634.128 15.1392C633.577 15.4145 633.027 15.965 632.751 16.7909C632.476 17.6167 632.201 18.4426 632.201 19.2684V25.5999C632.201 26.7011 632.476 27.5269 632.751 28.0775C633.027 28.9033 633.577 29.4539 634.128 29.7292C634.678 30.0045 635.504 30.2797 636.33 30.2797C636.881 30.2797 637.706 30.0045 638.257 29.7292C638.808 29.4539 639.358 29.1786 639.633 28.628C639.909 28.0775 640.459 27.5269 640.459 26.7011H644.313C644.038 28.0775 643.487 29.4539 642.661 30.555C641.836 31.6561 641.01 32.482 639.909 33.0326C638.807 34.6843 637.431 34.9595 636.055 34.9595ZM658.077 21.4707L663.858 11.8358H668.263L661.105 23.1224L669.364 34.6843H664.409L658.077 25.0494H655.324V34.6843H651.471V11.8358H655.324V21.4707H658.077ZM682.302 34.9595C680.65 34.9595 679.274 34.6843 677.898 33.8584C676.521 33.0326 675.695 32.2067 675.145 30.8303C674.594 29.4539 674.044 28.0775 674.044 26.4258V20.0943C674.044 18.4426 674.319 17.0662 675.145 15.6897C675.695 14.3133 676.797 13.4875 677.898 12.6616C678.999 11.8358 680.65 11.5605 682.302 11.5605C683.954 11.5605 685.33 11.8358 686.707 12.6616C688.083 13.4875 688.909 14.3133 689.46 15.6897C690.01 17.0662 690.561 18.4426 690.561 20.0943V26.7011C690.561 28.3528 690.285 29.7292 689.46 31.1056C688.909 32.482 687.808 33.3078 686.707 34.1337C685.606 34.409 683.954 34.9595 682.302 34.9595ZM682.302 31.1056C683.128 31.1056 683.954 30.8303 684.504 30.555C685.055 30.2797 685.606 29.7292 686.156 28.9033C686.431 28.0775 686.707 27.5269 686.707 26.4258V19.819C686.707 18.9931 686.431 18.1673 686.156 17.3414C685.881 16.5156 685.33 16.2403 684.504 15.6897C683.954 15.4145 683.128 15.1392 682.302 15.1392C681.476 15.1392 680.65 15.4145 680.1 15.6897C679.549 15.965 678.999 16.5156 678.724 17.3414C678.448 18.1673 678.173 18.7179 678.173 19.819V26.4258C678.173 27.2516 678.448 28.0775 678.724 28.9033C678.999 29.7292 679.549 30.0045 680.1 30.555C680.926 30.8303 681.476 31.1056 682.302 31.1056ZM580.723 29.1786L590.358 11.8358H594.212V34.6843H590.633V17.6167L580.998 34.6843H577.144V11.8358H580.723V29.1786ZM527.869 29.1786L537.503 11.8358H541.357V34.6843H537.779V17.6167L528.144 34.6843H524.29V11.8358H527.869V29.1786ZM462.351 18.7179L457.396 31.9314H454.368L449.413 18.9931V34.6843H446.11V11.8358H450.514L456.02 26.9763L461.525 11.8358H465.93V34.6843H462.351V18.7179ZM712.308 34.6843V17.6167L702.673 34.6843H698.819V11.8358H702.398V29.1786L712.033 11.8358H715.887V34.6843H712.308ZM555.397 65.7912L565.032 48.4484H568.886V71.2969H565.307V54.2293L555.672 71.2969H551.818V48.4484H555.397V65.7912ZM580.723 65.7912L590.358 48.4484H594.212V71.2969H590.633V54.2293L580.998 71.2969H577.144V48.4484H580.723V65.7912ZM324.71 58.3586L330.491 48.7237H334.895L327.738 60.0103L335.997 71.5721H331.041L324.71 61.9372H321.957V71.5721H318.103V48.7237H321.957V58.3586H324.71Z" fill="#343263"/>
</svg>
