<svg width="304" height="90" viewBox="0 0 304 90" fill="none" xmlns="http://www.w3.org/2000/svg">
<path fill-rule="evenodd" clip-rule="evenodd" d="M61.6321 77.6492L62.6801 85.1075C62.7966 86.1563 62.0979 87.2052 61.0499 87.3217C60.0019 87.4382 58.954 86.739 58.8375 85.6902L57.2073 74.2697L61.6321 77.6492ZM81.7767 47.0003L88.7632 49.7971C89.8112 50.1467 90.277 51.3121 89.8112 52.3609C89.4619 53.4098 88.2974 53.8759 87.2495 53.4098L76.5368 49.0979L81.7767 47.0003ZM65.2418 14.2537L71.1804 9.59227C71.9955 8.89305 73.2764 9.12612 73.8586 9.94187C74.5572 10.7576 74.3243 12.0395 73.5092 12.6222L64.4267 19.8474L65.2418 14.2537ZM75.8381 65.0633L80.4958 71.0067C81.1945 71.8224 80.9616 73.1043 80.1465 73.687C79.3314 74.3862 78.0505 74.1531 77.4683 73.3374L70.2489 64.2476L75.8381 65.0633ZM77.9341 28.4711L85.3864 27.4223C86.4344 27.3057 87.4823 28.0049 87.5988 29.0538C87.7152 30.1026 87.0166 31.1514 85.9686 31.2679L74.5572 32.8994L77.9341 28.4711ZM47.1933 8.31037L49.9879 1.31822C50.4537 0.385931 51.6181 -0.0802121 52.5496 0.269396C53.5976 0.619003 54.0634 1.78436 53.5976 2.83318L49.2892 13.5545L47.1933 8.31037ZM14.473 24.8585L9.81527 18.9151C9.11662 18.0994 9.3495 16.8175 10.1646 16.2348C10.9797 15.5356 12.2606 15.7687 12.8428 16.5844L19.9458 25.6742L14.473 24.8585ZM28.6789 12.1561L27.631 4.81429C27.5145 3.76547 28.2132 2.71665 29.2611 2.60011C30.3091 2.48358 31.3571 3.18279 31.4736 4.23162L33.1037 15.6521L28.6789 12.1561ZM43.0013 81.6114L40.2067 88.6036C39.8574 89.6524 38.693 90.1186 37.645 89.6524C36.597 89.3028 36.1312 88.1374 36.597 87.0886L40.9054 76.3673L43.0013 81.6114ZM8.53441 42.805L1.54786 40.0081C0.499882 39.6585 0.0341125 38.4932 0.499882 37.4443C0.849209 36.3955 2.01363 35.9294 3.06161 36.3955L13.7743 40.7073L8.53441 42.805ZM12.377 61.4507L5.04113 62.4996C3.87671 62.6161 2.94517 61.9169 2.82873 60.868C2.71229 59.8192 3.41094 58.7704 4.45892 58.6539L15.8703 57.0224L12.377 61.4507ZM25.0692 75.6681L19.1307 80.3295C18.3156 81.0288 17.0347 80.7957 16.4525 79.9799C15.7538 79.1642 15.9867 77.8823 16.8018 77.2996L25.8843 70.1909L25.0692 75.6681ZM87.2495 36.3955C88.2974 36.0459 89.3454 36.5121 89.8112 37.4443C90.1605 38.4932 89.6947 39.542 88.7632 40.0081L71.9955 46.7672C70.9475 47.1168 69.8995 46.6507 69.4338 45.7184C69.0844 44.6696 69.5502 43.6207 70.4818 43.1546L87.2495 36.3955ZM73.5092 77.1831C74.3243 77.8823 74.5572 79.0476 73.8586 79.8634C73.1599 80.6792 71.9955 80.9122 71.1804 80.213L57.0909 69.1421C56.2758 68.4429 56.0429 67.2775 56.7416 66.4618C57.4402 65.646 58.6046 65.4129 59.4197 66.1122L73.5092 77.1831ZM85.8521 58.6539C86.9001 58.7704 87.5988 59.8192 87.4823 60.868C87.3659 61.9169 86.3179 62.6161 85.2699 62.4996L67.4542 59.9358C66.4063 59.8192 65.7076 58.7704 65.8241 57.7216C65.9405 56.6728 66.9885 55.857 68.0365 56.0901L85.8521 58.6539ZM58.8375 4.23162C58.954 3.18279 60.0019 2.36704 61.0499 2.60011C62.0979 2.71665 62.7966 3.64894 62.6801 4.81429L60.1184 22.6443C60.0019 23.6931 58.954 24.3923 57.906 24.2758C56.858 24.1593 56.1593 23.1104 56.2758 22.0616L58.8375 4.23162ZM77.3518 16.4679C78.0505 15.6521 79.2149 15.4191 80.03 16.1183C80.8451 16.8175 81.078 17.9828 80.3793 18.7986L69.3173 32.8994C68.6187 33.7152 67.4542 33.9483 66.6392 33.2491C65.8241 32.5498 65.5912 31.3845 66.2898 30.5687L77.3518 16.4679ZM36.597 2.83318C36.2477 1.78436 36.7135 0.735539 37.645 0.269396C38.693 -0.0802121 39.741 0.385931 40.2067 1.31822L46.9604 18.0994C47.3097 19.1482 46.8439 20.197 45.9124 20.6632C44.8644 21.0128 43.8164 20.5466 43.3507 19.6144L36.597 2.83318ZM3.06161 53.4098C2.01363 53.7594 0.965651 53.2932 0.499882 52.3609C0.150555 51.4286 0.616324 50.2633 1.66431 49.7971L18.3156 43.0381C19.3635 42.6885 20.4115 43.1546 20.8773 44.0869C21.2266 45.1357 20.7609 46.1845 19.8293 46.6507L3.06161 53.4098ZM4.45892 31.2679C3.41094 31.1514 2.71229 30.1026 2.82873 29.0538C2.94517 28.0049 3.99315 27.3057 5.04113 27.4223L22.8568 29.986C23.9048 30.1026 24.7199 31.1514 24.487 32.2002C24.3706 33.2491 23.3226 34.0648 22.2746 33.8317L4.45892 31.2679ZM16.6854 12.7387C15.8703 12.0395 15.6374 10.8742 16.336 10.0584C17.0347 9.24266 18.1991 9.00959 19.0142 9.7088L33.1037 20.7797C33.9188 21.4789 34.1517 22.6443 33.4531 23.46C32.7544 24.2758 31.59 24.5089 30.7749 23.8096L16.6854 12.7387ZM53.5976 87.0886C53.9469 88.1374 53.4812 89.1863 52.5496 89.6524C51.5016 90.002 50.4537 89.5359 49.9879 88.6036L43.3507 71.939C43.0014 70.8901 43.4671 69.8413 44.3987 69.3752C45.4466 69.0256 46.4946 69.4917 46.9604 70.424L53.5976 87.0886ZM31.4736 85.6902C31.3571 86.739 30.3091 87.5548 29.2611 87.3217C28.2132 87.2052 27.5145 86.1563 27.631 85.1075L30.1927 67.2775C30.3091 66.2287 31.3571 65.5295 32.4051 65.646C33.4531 65.7626 34.1517 66.8114 34.0353 67.8602L31.4736 85.6902ZM12.9592 73.3374C12.2606 74.1531 11.0961 74.3862 10.281 73.687C9.46594 72.9878 9.23306 71.8224 9.93171 71.0067L20.9937 56.9058C21.6924 56.0901 22.8568 55.857 23.6719 56.5562C24.487 57.2554 24.7199 58.4208 24.0212 59.2365L12.9592 73.3374ZM32.8709 32.6664C29.7269 35.8128 27.7474 40.1247 27.7474 45.0192C27.7474 49.7971 29.7269 54.2255 32.8709 57.372C36.0148 60.5184 40.3232 62.4996 45.2138 62.4996C49.9879 62.4996 54.4127 60.5184 57.5566 57.372C60.7006 54.2255 62.6801 49.9137 62.6801 45.0192C62.6801 40.2412 60.7006 35.8128 57.5566 32.6664C54.4127 29.5199 50.1043 27.5388 45.2138 27.5388C40.3232 27.5388 36.0148 29.5199 32.8709 32.6664ZM23.7884 44.9026C23.7884 39.0758 26.1172 33.7152 30.0762 29.8695C33.9188 26.0238 39.2752 23.5766 45.0973 23.5766C50.9194 23.5766 56.2758 25.9073 60.1184 29.8695C63.961 33.7152 66.4063 39.0758 66.4063 44.9026C66.4063 50.7294 64.0774 56.0901 60.1184 59.9358C56.2758 63.7814 50.9194 66.2287 45.0973 66.2287C39.2752 66.2287 33.9188 63.898 30.0762 59.9358C26.2336 56.2066 23.7884 50.846 23.7884 44.9026Z" fill="white"/>
<path d="M257.371 74.1525C257.954 74.3856 258.419 74.6186 258.769 75.0848C259.467 75.784 259.817 76.7163 259.817 77.7651V81.0281C259.817 82.0769 259.351 83.0092 258.769 83.7084C258.07 84.4076 257.139 84.7573 256.091 84.7573H241.419V65.1792H254.228C255.276 65.1792 256.207 65.6454 256.906 66.2281C257.604 66.9273 257.954 67.8596 257.954 68.9084V72.1714C257.954 72.9871 257.721 73.5698 257.371 74.1525ZM243.515 67.2769V82.5431H256.091C256.556 82.5431 256.906 82.31 257.255 82.0769C257.604 81.7273 257.721 81.3777 257.721 80.9116V77.6486C257.721 77.1824 257.488 76.8328 257.255 76.4832C256.906 76.2501 256.556 76.0171 256.091 76.0171H245.261V73.8029H254.228C254.693 73.8029 255.043 73.5698 255.392 73.3367C255.741 73.1037 255.858 72.6375 255.858 72.1714V68.9084C255.858 68.4422 255.625 68.0926 255.392 67.743C255.043 67.3934 254.693 67.2769 254.228 67.2769H243.515ZM185.527 67.3934C185.294 67.6265 184.944 67.9761 184.828 68.3257L178.424 84.7573H176.095C178.191 79.2801 180.403 72.7541 182.848 67.6265C182.965 67.2769 183.198 66.9273 183.431 66.5777C183.663 66.2281 183.896 65.995 184.246 65.7619C184.944 65.2958 185.643 65.0627 186.458 65.0627C186.924 65.0627 187.273 65.1792 187.623 65.2958C187.972 65.4123 188.321 65.6454 188.67 65.8784C189.02 66.1115 189.253 66.3446 189.486 66.6942C189.718 67.0438 189.951 67.3934 190.068 67.743L196.705 84.8738H194.493L188.088 68.4422C187.972 68.0926 187.739 67.743 187.39 67.5099C187.157 67.2769 186.807 67.1603 186.458 67.1603C186.109 67.1603 185.759 67.2769 185.527 67.3934ZM166.197 64.7131C168.992 64.7131 171.67 65.8784 173.533 67.743C175.396 69.6076 176.56 72.1714 176.56 75.0848C176.56 77.8816 175.396 80.562 173.533 82.4265C171.67 84.2911 169.108 85.4565 166.197 85.4565C163.402 85.4565 160.724 84.2911 158.861 82.4265C156.998 80.562 155.834 77.9982 155.834 75.0848C155.834 72.2879 156.998 69.6076 158.861 67.743C160.724 65.7619 163.286 64.7131 166.197 64.7131ZM171.903 69.258C170.389 67.743 168.41 66.8107 166.081 66.8107C163.868 66.8107 161.772 67.743 160.259 69.258C158.745 70.7729 157.813 72.7541 157.813 75.0848C157.813 77.299 158.745 79.3966 160.259 80.9116C161.772 82.4265 163.752 83.3588 166.081 83.3588C168.293 83.3588 170.389 82.4265 171.903 80.9116C173.417 79.3966 174.348 77.4155 174.348 75.0848C174.348 72.7541 173.417 70.6564 171.903 69.258ZM228.028 64.7131C230.823 64.7131 233.501 65.8784 235.364 67.743C237.227 69.6076 238.391 72.1714 238.391 75.0848C238.391 77.8816 237.227 80.562 235.364 82.4265C233.501 84.2911 230.939 85.4565 228.028 85.4565C225.233 85.4565 222.555 84.2911 220.692 82.4265C218.829 80.562 217.665 77.9982 217.665 75.0848C217.665 72.2879 218.829 69.6076 220.692 67.743C222.555 65.7619 225.233 64.7131 228.028 64.7131ZM233.85 69.258C232.336 67.743 230.357 66.8107 228.028 66.8107C225.816 66.8107 223.72 67.743 222.206 69.258C220.692 70.7729 219.877 72.7541 219.877 75.0848C219.877 77.299 220.809 79.3966 222.206 80.9116C223.72 82.4265 225.699 83.3588 228.028 83.3588C230.24 83.3588 232.336 82.4265 233.85 80.9116C235.364 79.3966 236.295 77.4155 236.295 75.0848C236.179 72.7541 235.247 70.6564 233.85 69.258ZM272.393 64.7131C275.187 64.7131 277.865 65.8784 279.728 67.743C281.592 69.6076 282.756 72.1714 282.756 75.0848C282.756 77.8816 281.592 80.562 279.728 82.4265C277.865 84.2911 275.304 85.4565 272.393 85.4565C269.598 85.4565 266.92 84.2911 265.057 82.4265C263.194 80.562 262.029 77.9982 262.029 75.0848C262.029 72.2879 263.194 69.6076 265.057 67.743C267.036 65.7619 269.598 64.7131 272.393 64.7131ZM278.215 69.258C276.701 67.743 274.721 66.8107 272.393 66.8107C270.18 66.8107 268.084 67.743 266.57 69.258C265.057 70.7729 264.125 72.7541 264.125 75.0848C264.125 77.299 265.057 79.3966 266.57 80.9116C268.084 82.4265 270.064 83.3588 272.393 83.3588C274.605 83.3588 276.701 82.4265 278.215 80.9116C279.728 79.3966 280.66 77.4155 280.66 75.0848C280.544 72.7541 279.728 70.6564 278.215 69.258ZM286.831 84.7573H285.201V65.1792H287.297V81.4943L301.154 65.1792H303.133V84.7573H301.037V68.4422L287.414 84.4077V84.7573H286.831ZM297.428 61.4501V63.5477H290.907V61.4501H297.428ZM150.943 74.1525C151.525 74.3856 151.991 74.6186 152.34 75.0848C153.039 75.784 153.388 76.7163 153.388 77.7651V81.0281C153.388 82.0769 152.923 83.0092 152.34 83.7084C151.642 84.4076 150.71 84.7573 149.662 84.7573H134.874V65.1792H147.683C148.731 65.1792 149.662 65.6454 150.361 66.2281C151.06 66.9273 151.409 67.8596 151.409 68.9084V72.1714C151.525 72.9871 151.292 73.5698 150.943 74.1525ZM137.087 67.2769V82.5431H149.662C150.128 82.5431 150.477 82.31 150.827 82.0769C151.176 81.7273 151.292 81.3777 151.292 80.9116V77.6486C151.292 77.1824 151.06 76.8328 150.827 76.4832C150.477 76.2501 150.128 76.0171 149.662 76.0171H138.833V73.8029H147.799C148.265 73.8029 148.614 73.5698 148.964 73.3367C149.313 73.1037 149.429 72.6375 149.429 72.1714V68.9084C149.429 68.4422 149.197 68.0926 148.964 67.743C148.614 67.3934 148.265 67.2769 147.799 67.2769H137.087ZM149.429 43.0374C147.916 41.5224 145.936 40.5902 143.607 40.5902C141.395 40.5902 139.299 41.5224 137.785 43.0374C136.271 44.5524 135.34 46.5335 135.34 48.8642C135.34 51.0784 136.271 53.176 137.785 54.691C139.299 56.206 141.278 57.0217 143.607 57.0217C145.82 57.0217 147.916 56.0894 149.429 54.691C150.943 53.176 151.875 51.1949 151.875 48.8642C151.875 46.5335 150.943 44.5524 149.429 43.0374ZM143.724 38.4925C146.518 38.4925 149.197 39.6579 151.06 41.5224C152.923 43.387 154.087 45.9508 154.087 48.8642C154.087 51.6611 152.923 54.3414 151.06 56.206C149.197 58.0705 146.635 59.2359 143.724 59.2359C140.929 59.2359 138.251 58.0705 136.388 56.206C134.525 54.3414 133.36 51.7776 133.36 48.8642C133.36 46.0673 134.525 43.387 136.388 41.5224C138.251 39.6579 140.813 38.4925 143.724 38.4925ZM157.93 39.0752H159.443V47.5823V51.1949V58.7698H157.347V39.0752H157.93ZM167.478 49.913H161.074V47.8154H167.362C167.711 47.8154 168.06 47.6988 168.293 47.5823C168.642 47.3492 168.875 46.8831 169.341 46.3004C170.622 44.0862 172.834 41.2894 174.348 39.0752H176.91L171.088 47.4658C170.855 47.8154 170.622 48.165 170.389 48.3981C170.273 48.5146 170.156 48.7477 170.04 48.8642C170.156 48.9807 170.273 49.0973 170.389 49.3304C170.622 49.5634 170.855 49.913 171.088 50.2626L176.91 58.6532H174.348C173.766 57.7209 169.458 51.7776 169.341 51.428C168.992 50.8453 168.642 50.4957 168.293 50.1461C168.06 50.0296 167.827 49.913 167.478 49.913ZM208.466 41.2894C208.233 41.5224 207.883 41.8721 207.767 42.2217L201.363 58.6532H199.034C201.13 53.176 203.342 46.65 205.788 41.5224C205.904 41.1728 206.137 40.8232 206.37 40.4736C206.603 40.124 206.836 39.8909 207.185 39.6579C207.883 39.1917 208.582 38.9587 209.397 38.9587C209.863 38.9587 210.212 39.0752 210.562 39.1917C210.911 39.3083 211.26 39.5413 211.61 39.7744C211.959 40.0075 212.192 40.2406 212.425 40.5902C212.658 40.9398 212.891 41.2894 213.007 41.639C215.452 46.7666 217.548 53.4091 219.761 58.7698H217.548L215.336 53.176H205.438L206.253 51.0784H214.521L211.144 42.3382C211.027 41.9886 210.795 41.639 210.445 41.4059C210.212 41.1728 209.863 41.0563 209.514 41.0563C209.048 40.9398 208.815 41.0563 208.466 41.2894ZM240.837 39.6579V58.5367H238.741V49.7965H225.117V58.5367H223.021V39.0752H225.117V47.8154H238.741V39.0752H240.837V39.6579ZM268.317 58.6532H266.221V39.0752H268.317V58.6532ZM259.235 47.8154C260.283 47.8154 261.214 48.2815 261.913 48.8642C262.611 49.5634 262.961 50.4957 262.961 51.5445V54.8075C262.961 55.8564 262.495 56.7886 261.913 57.4879C261.214 58.1871 260.283 58.5367 259.235 58.5367H245.145V39.0752H247.241V56.439H259.235C259.7 56.439 260.05 56.206 260.399 55.9729C260.748 55.6233 260.865 55.2737 260.865 54.8075V51.5445C260.865 51.0784 260.632 50.7288 260.399 50.3792C260.05 50.1461 259.7 49.913 259.235 49.913H248.988V47.8154H259.235ZM197.171 53.9918C196.239 55.6233 194.958 56.9052 193.445 57.7209C191.931 58.6532 190.184 59.1194 188.321 59.1194C185.527 59.1194 182.848 57.954 180.985 56.0894C179.122 54.2249 177.958 51.6611 177.958 48.7477C177.958 45.9508 179.122 43.2705 180.985 41.4059C182.848 39.5413 185.41 38.376 188.321 38.376C190.184 38.376 191.931 38.8421 193.445 39.7744C194.958 40.7067 196.239 41.9886 197.171 43.5036L195.308 44.5524C194.609 43.2705 193.561 42.2217 192.28 41.5224C191.116 40.8232 189.718 40.4736 188.205 40.4736C185.992 40.4736 183.896 41.4059 182.383 42.9209C180.869 44.4358 179.937 46.417 179.937 48.7477C179.937 50.9619 180.869 53.0595 182.383 54.5745C183.896 56.0894 185.876 56.9052 188.205 56.9052C189.718 56.9052 191.116 56.5556 192.28 55.8564C193.445 55.1571 194.493 54.1083 195.308 52.8264L197.171 53.9918ZM208.699 76.0171H202.411V73.9194H208.699C209.048 73.9194 209.397 73.8029 209.63 73.5698C209.979 73.3367 210.212 72.8706 210.678 72.2879C211.959 70.0737 214.171 67.2769 215.685 65.0627H218.247L212.425 73.4533C212.192 73.8029 211.959 74.1525 211.726 74.3856C211.61 74.5021 211.493 74.7352 211.377 74.8517C211.493 74.9682 211.61 75.0848 211.726 75.3179C211.959 75.5509 212.192 75.9005 212.425 76.2501L218.247 84.6407H215.685C215.103 83.7084 210.795 77.7651 210.678 77.4155C210.329 76.8328 209.979 76.4832 209.63 76.1336C209.281 76.1336 209.048 76.0171 208.699 76.0171ZM200.664 65.1792V84.7573H198.568V65.1792H200.664Z" fill="#343263"/>
<path d="M110.305 2.83203H108.675V87.0875H110.305V2.83203Z" fill="#343263"/>
<path d="M148.033 30.4523C147.334 30.4523 146.752 30.3358 146.17 29.9862C145.588 29.6366 145.238 29.287 145.005 28.7043C144.773 28.1216 144.54 27.5389 144.54 26.8397V24.0429C144.54 23.3436 144.656 22.761 145.005 22.1783C145.238 21.5956 145.704 21.246 146.17 20.8964C146.636 20.5468 147.334 20.4302 148.033 20.4302C148.732 20.4302 149.314 20.5468 149.896 20.8964C150.478 21.246 150.828 21.5956 151.06 22.1783C151.293 22.761 151.526 23.3436 151.526 24.0429V26.9563C151.526 27.6555 151.41 28.2382 151.06 28.8208C150.828 29.4035 150.362 29.7531 149.896 30.1027C149.314 30.3358 148.732 30.4523 148.033 30.4523ZM148.033 28.9374C148.382 28.9374 148.732 28.8208 148.965 28.7043C149.197 28.5878 149.43 28.3547 149.663 28.0051C149.78 27.6555 149.896 27.4224 149.896 26.9563V24.1594C149.896 23.8098 149.78 23.4602 149.663 23.1106C149.547 22.761 149.314 22.6444 148.965 22.4114C148.732 22.2948 148.382 22.1783 148.033 22.1783C147.684 22.1783 147.334 22.2948 147.101 22.4114C146.869 22.5279 146.636 22.761 146.519 23.1106C146.403 23.4602 146.286 23.6933 146.286 24.1594V26.9563C146.286 27.3059 146.403 27.6555 146.519 28.0051C146.636 28.2382 146.869 28.4712 147.101 28.7043C147.334 28.8208 147.684 28.9374 148.033 28.9374ZM158.047 30.4523C157.348 30.4523 156.766 30.3358 156.184 29.9862C155.718 29.7531 155.252 29.287 155.02 28.7043C154.787 28.1216 154.554 27.5389 154.554 26.7232V24.0429C154.554 23.3436 154.67 22.6444 155.02 22.0618C155.252 21.4791 155.718 21.1295 156.184 20.7799C156.65 20.5468 157.348 20.3137 158.047 20.3137C158.629 20.3137 159.211 20.4302 159.677 20.6633C160.143 20.8964 160.492 21.246 160.842 21.7121C161.191 22.1783 161.424 22.761 161.54 23.3436H159.91C159.794 22.994 159.677 22.761 159.561 22.5279C159.444 22.2948 159.211 22.0618 158.979 21.9452C158.746 21.8287 158.513 21.7121 158.163 21.7121C157.814 21.7121 157.465 21.8287 157.232 21.9452C156.999 22.0618 156.766 22.2948 156.65 22.6444C156.533 22.994 156.417 23.3436 156.417 23.6933V26.3736C156.417 26.8397 156.533 27.1893 156.65 27.4224C156.766 27.772 156.999 28.0051 157.232 28.1216C157.465 28.2382 157.814 28.3547 158.163 28.3547C158.396 28.3547 158.746 28.2382 158.979 28.1216C159.211 28.0051 159.444 27.772 159.561 27.6555C159.677 27.4224 159.91 27.1893 159.91 26.8397H161.54C161.424 27.4224 161.191 28.0051 160.842 28.4712C160.492 28.9374 160.143 29.287 159.677 29.5201C159.095 30.3358 158.629 30.4523 158.047 30.4523ZM171.089 20.6633H172.952V30.3358H171.438V22.994L171.554 23.4602L169.458 29.1704H168.061L165.965 23.5767L166.082 22.994V30.3358H164.568V20.6633H166.431L168.76 27.0728L171.089 20.6633ZM176.561 20.6633H177.26H178.192H182.966V22.1783H178.192V24.7421H182.267V26.257H178.192V28.8208H182.966V30.3358H178.192H177.26H176.561V20.6633ZM189.719 22.1783V30.3358H188.089V22.1783H185.411V20.6633H192.398V22.1783H189.719ZM197.987 30.4523C197.288 30.4523 196.706 30.3358 196.124 29.9862C195.541 29.6366 195.192 29.287 194.959 28.7043C194.726 28.1216 194.493 27.5389 194.493 26.8397V24.0429C194.493 23.3436 194.61 22.761 194.959 22.1783C195.192 21.5956 195.658 21.246 196.124 20.8964C196.589 20.5468 197.288 20.4302 197.987 20.4302C198.685 20.4302 199.268 20.5468 199.85 20.8964C200.432 21.246 200.781 21.5956 201.014 22.1783C201.247 22.761 201.48 23.3436 201.48 24.0429V26.9563C201.48 27.6555 201.364 28.2382 201.014 28.8208C200.781 29.4035 200.316 29.7531 199.85 30.1027C199.268 30.3358 198.685 30.4523 197.987 30.4523ZM197.987 28.9374C198.336 28.9374 198.685 28.8208 198.918 28.7043C199.151 28.5878 199.384 28.3547 199.617 28.0051C199.733 27.6555 199.85 27.4224 199.85 26.9563V24.1594C199.85 23.8098 199.733 23.4602 199.617 23.1106C199.501 22.761 199.268 22.6444 198.918 22.4114C198.685 22.2948 198.336 22.1783 197.987 22.1783C197.637 22.1783 197.288 22.2948 197.055 22.4114C196.822 22.5279 196.589 22.761 196.357 23.1106C196.24 23.4602 196.124 23.6933 196.124 24.1594V26.9563C196.124 27.3059 196.24 27.6555 196.357 28.0051C196.473 28.2382 196.706 28.4712 197.055 28.7043C197.288 28.8208 197.637 28.9374 197.987 28.9374ZM204.391 28.8208C204.74 28.8208 205.09 28.7043 205.323 28.5878C205.556 28.4712 205.788 28.1216 205.905 27.772C206.021 27.4224 206.138 26.9563 206.138 26.4901V20.6633H207.069H207.768H210.912H211.611H212.426V30.3358H210.795V22.1783H207.651V26.4901C207.651 27.3059 207.535 28.0051 207.302 28.5878C207.069 29.1704 206.72 29.6366 206.254 29.8697C205.788 30.1027 205.206 30.3358 204.508 30.3358H204.391V28.8208ZM219.296 30.4523C218.597 30.4523 218.015 30.3358 217.433 29.9862C216.85 29.6366 216.501 29.287 216.268 28.7043C216.035 28.1216 215.802 27.5389 215.802 26.8397V24.0429C215.802 23.3436 215.919 22.761 216.268 22.1783C216.501 21.5956 216.967 21.246 217.433 20.8964C217.898 20.5468 218.597 20.4302 219.296 20.4302C219.994 20.4302 220.577 20.5468 221.159 20.8964C221.741 21.246 222.09 21.5956 222.323 22.1783C222.556 22.761 222.789 23.3436 222.789 24.0429V26.9563C222.789 27.6555 222.673 28.2382 222.323 28.8208C222.09 29.4035 221.625 29.7531 221.159 30.1027C220.577 30.3358 219.878 30.4523 219.296 30.4523ZM219.296 28.9374C219.645 28.9374 219.994 28.8208 220.227 28.7043C220.46 28.5878 220.693 28.3547 220.926 28.0051C221.042 27.6555 221.159 27.4224 221.159 26.9563V24.1594C221.159 23.8098 221.042 23.4602 220.926 23.1106C220.809 22.761 220.577 22.6444 220.227 22.4114C219.994 22.2948 219.645 22.1783 219.296 22.1783C218.946 22.1783 218.597 22.2948 218.364 22.4114C218.131 22.5279 217.898 22.761 217.666 23.1106C217.549 23.4602 217.433 23.6933 217.433 24.1594V26.9563C217.433 27.3059 217.549 27.6555 217.666 28.0051C217.782 28.2382 218.015 28.4712 218.364 28.7043C218.597 28.8208 218.83 28.9374 219.296 28.9374ZM225.7 20.6633H226.399H227.33H231.289V22.1783H227.33V30.3358H225.7V20.6633ZM301.62 2.36719C301.62 3.0664 301.388 3.53255 301.038 3.99869C300.689 4.3483 300.107 4.58137 299.408 4.58137C298.709 4.58137 298.127 4.3483 297.778 3.99869C297.429 3.64908 297.196 3.0664 297.196 2.36719H298.477C298.477 2.7168 298.593 2.94987 298.709 3.0664C298.826 3.18294 299.059 3.29947 299.408 3.29947C299.757 3.29947 299.874 3.18294 300.107 3.0664C300.223 2.94987 300.34 2.60026 300.34 2.36719H301.62ZM140.348 5.16405H141.978V13.3216H142.677H143.375V16.9342H141.745V14.8365H140.464H136.738H136.039H135.224V5.16405H136.855V13.3216H140.581V5.16405H140.348ZM146.286 5.16405H146.985H147.917H152.691V6.67901H147.917V9.2428H151.992V10.7578H147.917V13.3216H152.691V14.8365H147.917H146.985H146.286V5.16405ZM176.561 6.67901V9.59241H178.774C179.007 9.59241 179.24 9.47588 179.472 9.35934C179.705 9.2428 179.822 9.12627 179.938 8.8932C180.055 8.66012 180.055 8.42705 180.055 8.19398C180.055 7.96091 180.055 7.6113 179.938 7.37823C179.822 7.14516 179.705 7.02862 179.472 6.91209C179.24 6.79555 179.007 6.67901 178.774 6.67901H176.561ZM174.931 5.16405H175.746H176.561H178.774C179.356 5.16405 179.938 5.28058 180.288 5.51366C180.753 5.74673 181.103 6.09634 181.335 6.56248C181.568 7.02862 181.685 7.49477 181.685 8.07745C181.685 8.66013 181.568 9.24281 181.335 9.59241C181.103 10.0586 180.753 10.4082 180.288 10.6412C179.822 10.8743 179.356 10.9908 178.774 10.9908H176.561V14.72H174.931V5.16405ZM161.307 5.16405H162.938V14.8365H161.307V10.7578H157.465V14.8365H155.835V5.16405H157.465V9.35934H161.307V5.16405ZM169.691 6.67901V14.8365H168.061V6.67901H165.383V5.16405H172.369V6.67901H169.691ZM201.131 5.16405H201.829H202.761H207.535V6.67901H202.761V9.2428H206.836V10.7578H202.761V13.3216H207.535V14.8365H202.761H201.829H201.131V5.16405ZM213.357 6.67901V10.8743C213.357 11.5735 213.241 12.2727 213.008 12.8554C212.891 13.0885 212.891 13.205 212.775 13.3216H216.268V6.67901H213.357ZM210.213 13.3216C210.679 13.3216 211.028 13.0885 211.261 12.7389C211.494 12.2727 211.611 11.6901 211.611 10.9908V5.16405H212.542H213.241H216.152H216.85H217.666V13.3216H218.248H218.83V16.8176H217.316V14.8365H216.152H211.611V16.8176H210.097V14.8365V13.3216H210.213ZM238.509 5.16405H240.139V13.3216H240.838H241.536V16.9342H239.906V14.8365H238.625H234.899H234.2H233.385V5.16405H235.015V13.3216H238.742V5.16405H238.509ZM260.866 5.16405H262.496V14.8365H260.866V10.7578H257.023V14.8365H255.393V5.16405H257.023V9.35934H260.866V5.16405ZM269.366 14.9531C268.667 14.9531 268.085 14.8365 267.503 14.4869C267.037 14.2538 266.571 13.7877 266.338 13.205C266.106 12.6223 265.873 12.0397 265.873 11.2239V8.66013C265.873 7.96091 265.989 7.26169 266.338 6.67901C266.571 6.09634 267.037 5.74673 267.503 5.39712C267.969 5.16405 268.667 4.93098 269.366 4.93098C269.948 4.93098 270.53 5.04751 270.996 5.28058C271.462 5.51366 271.811 5.86326 272.161 6.32941C272.51 6.79555 272.743 7.37823 272.859 7.96091H271.229C271.113 7.6113 270.996 7.37823 270.88 7.14516C270.763 6.91209 270.53 6.67901 270.297 6.56248C270.065 6.44594 269.832 6.32941 269.482 6.32941C269.133 6.32941 268.784 6.44594 268.551 6.56248C268.318 6.67901 268.085 6.91209 267.969 7.26169C267.852 7.6113 267.736 7.96091 267.736 8.31052V10.9908C267.736 11.457 267.852 11.8066 267.969 12.0397C268.085 12.3893 268.318 12.6223 268.551 12.7389C268.784 12.8554 269.133 12.972 269.482 12.972C269.715 12.972 270.065 12.8554 270.297 12.7389C270.53 12.6223 270.763 12.5058 270.88 12.2727C270.996 12.0397 271.229 11.8066 271.229 11.457H272.859C272.743 12.0397 272.51 12.6223 272.161 13.0885C271.811 13.5546 271.462 13.9042 270.996 14.1373C270.53 14.8365 269.948 14.9531 269.366 14.9531ZM278.681 9.2428L281.127 5.16405H282.99L279.962 9.94202L283.455 14.8365H281.359L278.681 10.7578H277.517V14.8365H275.887V5.16405H277.517V9.2428H278.681ZM288.928 14.9531C288.23 14.9531 287.647 14.8365 287.065 14.4869C286.483 14.1373 286.134 13.7877 285.901 13.205C285.668 12.6223 285.435 12.0397 285.435 11.3405V8.66013C285.435 7.96091 285.551 7.37823 285.901 6.79555C286.134 6.21287 286.599 5.86326 287.065 5.51366C287.531 5.16405 288.23 5.04751 288.928 5.04751C289.627 5.04751 290.209 5.16405 290.791 5.51366C291.374 5.86326 291.723 6.21287 291.956 6.79555C292.189 7.37823 292.422 7.96091 292.422 8.66013V11.457C292.422 12.1562 292.305 12.7389 291.956 13.3216C291.723 13.9042 291.257 14.2538 290.791 14.6035C290.326 14.72 289.627 14.9531 288.928 14.9531ZM288.928 13.3216C289.278 13.3216 289.627 13.205 289.86 13.0885C290.093 12.972 290.326 12.7389 290.558 12.3893C290.675 12.0397 290.791 11.8066 290.791 11.3405V8.54359C290.791 8.19398 290.675 7.84437 290.558 7.49477C290.442 7.14516 290.209 7.02862 289.86 6.79555C289.627 6.67901 289.278 6.56248 288.928 6.56248C288.579 6.56248 288.23 6.67901 287.997 6.79555C287.764 6.91209 287.531 7.14516 287.414 7.49477C287.298 7.84437 287.182 8.07745 287.182 8.54359V11.3405C287.182 11.6901 287.298 12.0397 287.414 12.3893C287.531 12.7389 287.764 12.8554 287.997 13.0885C288.346 13.205 288.579 13.3216 288.928 13.3216ZM245.961 12.5058L250.036 5.16405H251.667V14.8365H250.153V7.6113L246.077 14.8365H244.447V5.16405H245.961V12.5058ZM223.604 12.5058L227.68 5.16405H229.31V14.8365H227.796V7.6113L223.721 14.8365H222.09V5.16405H223.604V12.5058ZM195.891 8.07745L193.795 13.6712H192.514L190.418 8.19398V14.8365H189.021V5.16405H190.884L193.213 11.5735L195.541 5.16405H197.405V14.8365H195.891V8.07745ZM301.62 14.8365V7.6113L297.545 14.8365H295.915V5.16405H297.429V12.5058L301.504 5.16405H303.134V14.8365H301.62ZM235.248 28.0051L239.324 20.6633H240.954V30.3358H239.44V23.1106L235.365 30.3358H233.735V20.6633H235.248V28.0051ZM245.961 28.0051L250.036 20.6633H251.667V30.3358H250.153V23.1106L246.077 30.3358H244.447V20.6633H245.961V28.0051ZM137.67 24.8586L140.115 20.7799H141.978L138.95 25.5578L142.444 30.4523H140.348L137.67 26.3736H136.505V30.4523H134.875V20.7799H136.505V24.8586H137.67Z" fill="#343263"/>
</svg>
