<svg width="156" height="47" viewBox="0 0 156 47" fill="none" xmlns="http://www.w3.org/2000/svg">
<path fill-rule="evenodd" clip-rule="evenodd" d="M31.5863 40.3103L32.1262 44.1495C32.1862 44.6893 31.8263 45.2292 31.2864 45.2892C30.7465 45.3492 30.2066 44.9893 30.1467 44.4494L29.3068 38.5706L31.5863 40.3103ZM41.9641 24.5336L45.5634 25.9733C46.1033 26.1533 46.3432 26.7531 46.1033 27.293C45.9233 27.8329 45.3234 28.0729 44.7836 27.8329L39.2647 25.6134L41.9641 24.5336ZM33.446 7.67717L36.5053 5.27768C36.9252 4.91776 37.5851 5.03773 37.885 5.45764C38.2449 5.87755 38.125 6.53741 37.7051 6.83735L33.026 10.5566L33.446 7.67717ZM38.9048 33.8316L41.3043 36.891C41.6642 37.3109 41.5442 37.9708 41.1243 38.2707C40.7044 38.6306 40.0446 38.5106 39.7446 38.0907L36.0254 33.4117L38.9048 33.8316ZM39.9846 14.9956L43.8238 14.4557C44.3636 14.3958 44.9035 14.7557 44.9635 15.2956C45.0235 15.8354 44.6636 16.3753 44.1237 16.4353L38.2449 17.2751L39.9846 14.9956ZM24.1479 4.61782L25.5876 1.01858C25.8276 0.538683 26.4274 0.298734 26.9073 0.478696C27.4472 0.658657 27.6872 1.25853 27.4472 1.79842L25.2277 7.31725L24.1479 4.61782ZM7.29149 13.136L4.892 10.0767C4.53207 9.65675 4.65205 8.99689 5.07196 8.69696C5.49187 8.33703 6.15173 8.45701 6.45166 8.87692L10.1109 13.5559L7.29149 13.136ZM14.6099 6.5974L14.0701 2.8182C14.0101 2.27831 14.37 1.73843 14.9099 1.67844C15.4498 1.61845 15.9896 1.97838 16.0496 2.51826L16.8895 8.39702L14.6099 6.5974ZM21.9884 42.3498L20.5487 45.9491C20.3687 46.489 19.7688 46.7289 19.229 46.489C18.6891 46.309 18.4491 45.7091 18.6891 45.1692L20.9086 39.6504L21.9884 42.3498ZM4.23214 22.3741L0.632897 20.9344C0.0930114 20.7544 -0.146938 20.1545 0.0930114 19.6146C0.272973 19.0748 0.872846 18.8348 1.41273 19.0748L6.93156 21.2943L4.23214 22.3741ZM6.21172 31.972L2.43252 32.5119C1.83264 32.5719 1.35274 32.212 1.29276 31.6721C1.23277 31.1322 1.59269 30.5923 2.13258 30.5323L8.01134 29.6925L6.21172 31.972ZM12.7503 39.2905L9.69098 41.69C9.27107 42.0499 8.61121 41.9299 8.31127 41.51C7.95135 41.0901 8.07132 40.4302 8.49123 40.1303L13.1702 36.4711L12.7503 39.2905ZM44.7836 19.0748C45.3234 18.8948 45.8633 19.1347 46.1033 19.6146C46.2832 20.1545 46.0433 20.6944 45.5634 20.9344L36.9252 24.4136C36.3853 24.5936 35.8454 24.3536 35.6055 23.8737C35.4255 23.3339 35.6655 22.794 36.1454 22.554L44.7836 19.0748ZM37.7051 40.0703C38.125 40.4302 38.2449 41.0301 37.885 41.45C37.5251 41.8699 36.9252 41.9899 36.5053 41.63L29.2468 35.9312C28.8269 35.5713 28.707 34.9714 29.0669 34.5515C29.4268 34.1316 30.0267 34.0116 30.4466 34.3715L37.7051 40.0703ZM44.0637 30.5323C44.6036 30.5923 44.9635 31.1322 44.9035 31.6721C44.8435 32.212 44.3037 32.5719 43.7638 32.5119L34.5857 31.1922C34.0458 31.1322 33.6859 30.5923 33.7459 30.0524C33.8059 29.5126 34.3458 29.0926 34.8856 29.2126L44.0637 30.5323ZM30.1467 2.51826C30.2066 1.97838 30.7465 1.55847 31.2864 1.67844C31.8263 1.73843 32.1862 2.21833 32.1262 2.8182L30.8065 11.9963C30.7465 12.5361 30.2066 12.8961 29.6668 12.8361C29.1269 12.7761 28.7669 12.2362 28.8269 11.6963L30.1467 2.51826ZM39.6846 8.81693C40.0446 8.39702 40.6444 8.27705 41.0643 8.63697C41.4842 8.99689 41.6042 9.59677 41.2443 10.0167L35.5455 17.2751C35.1856 17.6951 34.5857 17.815 34.1658 17.4551C33.7459 17.0952 33.6259 16.4953 33.9858 16.0754L39.6846 8.81693ZM18.6891 1.79842C18.5091 1.25853 18.7491 0.718645 19.229 0.478696C19.7688 0.298734 20.3087 0.538683 20.5487 1.01858L24.0279 9.65675C24.2079 10.1966 23.968 10.7365 23.4881 10.9765C22.9482 11.1564 22.4083 10.9165 22.1683 10.4366L18.6891 1.79842ZM1.41273 27.8329C0.872846 28.0129 0.332961 27.7729 0.0930114 27.293C-0.0869505 26.8131 0.152999 26.2132 0.692884 25.9733L9.27107 22.494C9.81095 22.3141 10.3508 22.554 10.5908 23.0339C10.7708 23.5738 10.5308 24.1137 10.0509 24.3536L1.41273 27.8329ZM2.13258 16.4353C1.59269 16.3753 1.23277 15.8354 1.29276 15.2956C1.35274 14.7557 1.89263 14.3958 2.43252 14.4557L11.6106 15.7755C12.1505 15.8354 12.5704 16.3753 12.4504 16.9152C12.3904 17.4551 11.8505 17.875 11.3106 17.755L2.13258 16.4353ZM8.43125 6.89734C8.01134 6.53741 7.89136 5.93754 8.25128 5.51763C8.61121 5.09772 9.21108 4.97774 9.63099 5.33767L16.8895 11.0365C17.3094 11.3964 17.4293 11.9963 17.0694 12.4162C16.7095 12.8361 16.1096 12.9561 15.6897 12.5961L8.43125 6.89734ZM27.4472 45.1692C27.6272 45.7091 27.3872 46.249 26.9073 46.489C26.3675 46.6689 25.8276 46.429 25.5876 45.9491L22.1683 37.3709C21.9884 36.831 22.2283 36.2911 22.7082 36.0512C23.2481 35.8712 23.788 36.1112 24.0279 36.5911L27.4472 45.1692ZM16.0496 44.4494C15.9896 44.9893 15.4498 45.4092 14.9099 45.2892C14.37 45.2292 14.0101 44.6893 14.0701 44.1495L15.3898 34.9714C15.4498 34.4315 15.9896 34.0716 16.5295 34.1316C17.0694 34.1916 17.4293 34.7314 17.3694 35.2713L16.0496 44.4494ZM6.51165 38.0907C6.15173 38.5106 5.55186 38.6306 5.13194 38.2707C4.71203 37.9108 4.59206 37.3109 4.95198 36.891L10.6508 29.6325C11.0107 29.2126 11.6106 29.0926 12.0305 29.4526C12.4504 29.8125 12.5704 30.4124 12.2104 30.8323L6.51165 38.0907ZM16.7695 17.1552C15.1498 18.7748 14.13 20.9944 14.13 23.5138C14.13 25.9733 15.1498 28.2528 16.7695 29.8725C18.3891 31.4921 20.6087 32.5119 23.1281 32.5119C25.5876 32.5119 27.8671 31.4921 29.4868 29.8725C31.1064 28.2528 32.1262 26.0333 32.1262 23.5138C32.1262 21.0543 31.1064 18.7748 29.4868 17.1552C27.8671 15.5355 25.6476 14.5157 23.1281 14.5157C20.6087 14.5157 18.3891 15.5355 16.7695 17.1552ZM12.0905 23.4538C12.0905 20.4545 13.2902 17.6951 15.3298 15.7155C17.3094 13.7359 20.0688 12.4762 23.0681 12.4762C26.0675 12.4762 28.8269 13.6759 30.8065 15.7155C32.7861 17.6951 34.0458 20.4545 34.0458 23.4538C34.0458 26.4532 32.8461 29.2126 30.8065 31.1922C28.8269 33.1718 26.0675 34.4315 23.0681 34.4315C20.0688 34.4315 17.3094 33.2318 15.3298 31.1922C13.3502 29.2726 12.0905 26.5132 12.0905 23.4538Z" fill="#E0C693"/>
<path d="M132.425 38.5108C132.725 38.6308 132.965 38.7508 133.145 38.9907C133.505 39.3507 133.685 39.8305 133.685 40.3704V42.0501C133.685 42.59 133.445 43.0699 133.145 43.4298C132.785 43.7897 132.305 43.9697 131.765 43.9697H124.207V33.8918H130.805C131.345 33.8918 131.825 34.1318 132.185 34.4317C132.545 34.7916 132.725 35.2715 132.725 35.8114V37.491C132.725 37.911 132.605 38.2109 132.425 38.5108ZM125.286 34.9716V42.8299H131.765C132.005 42.8299 132.185 42.7099 132.365 42.59C132.545 42.41 132.605 42.23 132.605 41.9901V40.3104C132.605 40.0705 132.485 39.8905 132.365 39.7106C132.185 39.5906 132.005 39.4706 131.765 39.4706H126.186V38.3309H130.805C131.045 38.3309 131.225 38.2109 131.405 38.0909C131.585 37.9709 131.645 37.731 131.645 37.491V35.8114C131.645 35.5715 131.525 35.3915 131.405 35.2115C131.225 35.0316 131.045 34.9716 130.805 34.9716H125.286ZM95.4126 35.0316C95.2927 35.1515 95.1127 35.3315 95.0527 35.5115L91.7534 43.9697H90.5537C91.6334 41.1503 92.7732 37.791 94.0329 35.1515C94.0929 34.9716 94.2129 34.7916 94.3329 34.6117C94.4528 34.4317 94.5728 34.3117 94.7528 34.1917C95.1127 33.9518 95.4726 33.8318 95.8925 33.8318C96.1325 33.8318 96.3125 33.8918 96.4924 33.9518C96.6724 34.0118 96.8523 34.1318 97.0323 34.2517C97.2123 34.3717 97.3322 34.4917 97.4522 34.6716C97.5722 34.8516 97.6922 35.0316 97.7521 35.2115L101.171 44.0297H100.032L96.7324 35.5714C96.6724 35.3915 96.5524 35.2115 96.3724 35.0916C96.2525 34.9716 96.0725 34.9116 95.8925 34.9116C95.7126 34.9116 95.5326 34.9716 95.4126 35.0316ZM85.4547 33.6519C86.8944 33.6519 88.2742 34.2517 89.234 35.2115C90.1937 36.1713 90.7936 37.491 90.7936 38.9907C90.7936 40.4304 90.1937 41.8101 89.234 42.7699C88.2742 43.7297 86.9544 44.3296 85.4547 44.3296C84.0151 44.3296 82.6354 43.7297 81.6756 42.7699C80.7158 41.8101 80.1159 40.4904 80.1159 38.9907C80.1159 37.551 80.7158 36.1713 81.6756 35.2115C82.6354 34.1917 83.9551 33.6519 85.4547 33.6519ZM88.3941 35.9914C87.6143 35.2115 86.5945 34.7316 85.3948 34.7316C84.255 34.7316 83.1752 35.2115 82.3954 35.9914C81.6156 36.7712 81.1357 37.791 81.1357 38.9907C81.1357 40.1305 81.6156 41.2103 82.3954 41.9901C83.1752 42.7699 84.195 43.2498 85.3948 43.2498C86.5345 43.2498 87.6143 42.7699 88.3941 41.9901C89.174 41.2103 89.6539 40.1905 89.6539 38.9907C89.6539 37.791 89.174 36.7112 88.3941 35.9914ZM117.308 33.6519C118.748 33.6519 120.127 34.2517 121.087 35.2115C122.047 36.1713 122.647 37.491 122.647 38.9907C122.647 40.4304 122.047 41.8101 121.087 42.7699C120.127 43.7297 118.808 44.3296 117.308 44.3296C115.868 44.3296 114.489 43.7297 113.529 42.7699C112.569 41.8101 111.969 40.4904 111.969 38.9907C111.969 37.551 112.569 36.1713 113.529 35.2115C114.489 34.1917 115.868 33.6519 117.308 33.6519ZM120.307 35.9914C119.528 35.2115 118.508 34.7316 117.308 34.7316C116.168 34.7316 115.088 35.2115 114.309 35.9914C113.529 36.7712 113.109 37.791 113.109 38.9907C113.109 40.1305 113.589 41.2103 114.309 41.9901C115.088 42.7699 116.108 43.2498 117.308 43.2498C118.448 43.2498 119.528 42.7699 120.307 41.9901C121.087 41.2103 121.567 40.1905 121.567 38.9907C121.507 37.791 121.027 36.7112 120.307 35.9914ZM140.163 33.6519C141.603 33.6519 142.983 34.2517 143.942 35.2115C144.902 36.1713 145.502 37.491 145.502 38.9907C145.502 40.4304 144.902 41.8101 143.942 42.7699C142.983 43.7297 141.663 44.3296 140.163 44.3296C138.723 44.3296 137.344 43.7297 136.384 42.7699C135.424 41.8101 134.824 40.4904 134.824 38.9907C134.824 37.551 135.424 36.1713 136.384 35.2115C137.404 34.1917 138.723 33.6519 140.163 33.6519ZM143.163 35.9914C142.383 35.2115 141.363 34.7316 140.163 34.7316C139.023 34.7316 137.944 35.2115 137.164 35.9914C136.384 36.7712 135.904 37.791 135.904 38.9907C135.904 40.1305 136.384 41.2103 137.164 41.9901C137.944 42.7699 138.963 43.2498 140.163 43.2498C141.303 43.2498 142.383 42.7699 143.163 41.9901C143.942 41.2103 144.422 40.1905 144.422 38.9907C144.362 37.791 143.942 36.7112 143.163 35.9914ZM147.602 43.9697H146.762V33.8918H147.842V42.29L154.98 33.8918H156V43.9697H154.92V35.5714L147.902 43.7897V43.9697H147.602ZM153.06 31.9722V33.052H149.701V31.9722H153.06ZM77.5964 38.5108C77.8964 38.6308 78.1363 38.7508 78.3163 38.9907C78.6762 39.3507 78.8561 39.8305 78.8561 40.3704V42.0501C78.8561 42.59 78.6162 43.0699 78.3163 43.4298C77.9563 43.7897 77.4764 43.9697 76.9366 43.9697H69.3182V33.8918H75.9168C76.4567 33.8918 76.9366 34.1318 77.2965 34.4317C77.6564 34.7916 77.8364 35.2715 77.8364 35.8114V37.491C77.8963 37.911 77.7764 38.2109 77.5964 38.5108ZM70.4579 34.9716V42.8299H76.9366C77.1765 42.8299 77.3565 42.7099 77.5364 42.59C77.7164 42.41 77.7764 42.23 77.7764 41.9901V40.3104C77.7764 40.0705 77.6564 39.8905 77.5364 39.7106C77.3565 39.5906 77.1765 39.4706 76.9366 39.4706H71.3577V38.3309H75.9768C76.2167 38.3309 76.3967 38.2109 76.5766 38.0909C76.7566 37.9709 76.8166 37.731 76.8166 37.491V35.8114C76.8166 35.5715 76.6966 35.3915 76.5766 35.2115C76.3967 35.0316 76.2167 34.9716 75.9768 34.9716H70.4579ZM76.8166 22.4942C76.0367 21.7144 75.017 21.2345 73.8172 21.2345C72.6775 21.2345 71.5977 21.7144 70.8178 22.4942C70.038 23.2741 69.5581 24.2938 69.5581 25.4936C69.5581 26.6333 70.038 27.7131 70.8178 28.4929C71.5977 29.2728 72.6175 29.6927 73.8172 29.6927C74.957 29.6927 76.0367 29.2128 76.8166 28.4929C77.5964 27.7131 78.0763 26.6933 78.0763 25.4936C78.0763 24.2938 77.5964 23.2741 76.8166 22.4942ZM73.8772 20.1547C75.3169 20.1547 76.6966 20.7546 77.6564 21.7144C78.6162 22.6742 79.2161 23.9939 79.2161 25.4936C79.2161 26.9333 78.6162 28.313 77.6564 29.2728C76.6966 30.2326 75.3769 30.8325 73.8772 30.8325C72.4375 30.8325 71.0578 30.2326 70.098 29.2728C69.1382 28.313 68.5383 26.9933 68.5383 25.4936C68.5383 24.0539 69.1382 22.6742 70.098 21.7144C71.0578 20.7546 72.3775 20.1547 73.8772 20.1547ZM81.1957 20.4547H81.9755V24.8337V26.6933V30.5925H80.8957V20.4547H81.1957ZM86.1146 26.0335H82.8153V24.9537H86.0546C86.2346 24.9537 86.4145 24.8937 86.5345 24.8337C86.7145 24.7137 86.8345 24.4738 87.0744 24.1739C87.7343 23.0341 88.874 21.5944 89.6539 20.4547H90.9736L87.9742 24.7737C87.8542 24.9537 87.7343 25.1337 87.6143 25.2536C87.5543 25.3136 87.4943 25.4336 87.4343 25.4936C87.4943 25.5536 87.5543 25.6136 87.6143 25.7335C87.7343 25.8535 87.8542 26.0335 87.9742 26.2134L90.9736 30.5325H89.6539C89.3539 30.0526 87.1344 26.9933 87.0744 26.8133C86.8945 26.5134 86.7145 26.3334 86.5345 26.1534C86.4145 26.0935 86.2946 26.0335 86.1146 26.0335ZM107.23 21.5944C107.11 21.7144 106.93 21.8943 106.87 22.0743L103.571 30.5325H102.371C103.451 27.7131 104.591 24.3538 105.85 21.7144C105.91 21.5344 106.03 21.3545 106.15 21.1745C106.27 20.9945 106.39 20.8746 106.57 20.7546C106.93 20.5146 107.29 20.3947 107.71 20.3947C107.95 20.3947 108.13 20.4547 108.31 20.5146C108.49 20.5746 108.67 20.6946 108.85 20.8146C109.03 20.9345 109.15 21.0545 109.27 21.2345C109.39 21.4144 109.51 21.5944 109.57 21.7744C110.829 24.4138 111.909 27.8331 113.049 30.5925H111.909L110.769 27.7131H105.67L106.09 26.6333H110.349L108.61 22.1343C108.55 21.9543 108.43 21.7744 108.25 21.6544C108.13 21.5344 107.95 21.4744 107.77 21.4744C107.53 21.4144 107.41 21.4744 107.23 21.5944ZM123.907 20.7546V30.4725H122.827V25.9735H115.808V30.4725H114.729V20.4547H115.808V24.9537H122.827V20.4547H123.907V20.7546ZM138.064 30.5325H136.984V20.4547H138.064V30.5325ZM133.385 24.9537C133.924 24.9537 134.404 25.1936 134.764 25.4936C135.124 25.8535 135.304 26.3334 135.304 26.8733V28.5529C135.304 29.0928 135.064 29.5727 134.764 29.9326C134.404 30.2926 133.924 30.4725 133.385 30.4725H126.126V20.4547H127.206V29.3928H133.385C133.625 29.3928 133.805 29.2728 133.984 29.1528C134.164 28.9728 134.224 28.7929 134.224 28.5529V26.8733C134.224 26.6333 134.104 26.4534 133.984 26.2734C133.805 26.1534 133.625 26.0335 133.385 26.0335H128.106V24.9537H133.385ZM101.411 28.133C100.931 28.9728 100.272 29.6327 99.4918 30.0526C98.7119 30.5325 97.8121 30.7725 96.8523 30.7725C95.4126 30.7725 94.0329 30.1726 93.0731 29.2128C92.1133 28.253 91.5135 26.9333 91.5135 25.4336C91.5135 23.9939 92.1133 22.6142 93.0731 21.6544C94.0329 20.6946 95.3527 20.0947 96.8523 20.0947C97.8121 20.0947 98.7119 20.3347 99.4918 20.8146C100.272 21.2945 100.931 21.9543 101.411 22.7342L100.452 23.2741C100.092 22.6142 99.5518 22.0743 98.8919 21.7144C98.292 21.3545 97.5722 21.1745 96.7924 21.1745C95.6526 21.1745 94.5728 21.6544 93.793 22.4342C93.0132 23.2141 92.5333 24.2339 92.5333 25.4336C92.5333 26.5734 93.0132 27.6531 93.793 28.433C94.5728 29.2128 95.5926 29.6327 96.7924 29.6327C97.5722 29.6327 98.292 29.4527 98.8919 29.0928C99.4918 28.7329 100.032 28.193 100.452 27.5332L101.411 28.133ZM107.35 39.4706H104.111V38.3909H107.35C107.53 38.3909 107.71 38.3309 107.83 38.2109C108.01 38.0909 108.13 37.851 108.37 37.551C109.03 36.4113 110.17 34.9716 110.949 33.8318H112.269L109.27 38.1509C109.15 38.3309 109.03 38.5108 108.91 38.6308C108.85 38.6908 108.79 38.8108 108.73 38.8708C108.79 38.9307 108.85 38.9907 108.91 39.1107C109.03 39.2307 109.15 39.4106 109.27 39.5906L112.269 43.9097H110.949C110.649 43.4298 108.43 40.3704 108.37 40.1905C108.19 39.8905 108.01 39.7106 107.83 39.5306C107.65 39.5306 107.53 39.4706 107.35 39.4706ZM103.211 33.8918V43.9697H102.131V33.8918H103.211Z" fill="white"/>
<path d="M56.6614 1.79785H55.8215V45.1687H56.6614V1.79785Z" fill="white"/>
<path d="M76.0969 16.0155C75.737 16.0155 75.4371 15.9555 75.1371 15.7756C74.8372 15.5956 74.6572 15.4157 74.5373 15.1157C74.4173 14.8158 74.2973 14.5159 74.2973 14.1559V12.7162C74.2973 12.3563 74.3573 12.0564 74.5373 11.7564C74.6572 11.4565 74.8972 11.2765 75.1371 11.0966C75.3771 10.9166 75.737 10.8566 76.0969 10.8566C76.4569 10.8566 76.7568 10.9166 77.0567 11.0966C77.3567 11.2765 77.5366 11.4565 77.6566 11.7564C77.7766 12.0564 77.8965 12.3563 77.8965 12.7162V14.2159C77.8965 14.5758 77.8366 14.8758 77.6566 15.1757C77.5366 15.4756 77.2967 15.6556 77.0567 15.8356C76.7568 15.9555 76.4569 16.0155 76.0969 16.0155ZM76.0969 15.2357C76.2769 15.2357 76.4568 15.1757 76.5768 15.1157C76.6968 15.0557 76.8168 14.9358 76.9367 14.7558C76.9967 14.5758 77.0567 14.4559 77.0567 14.2159V12.7762C77.0567 12.5963 76.9967 12.4163 76.9367 12.2363C76.8768 12.0564 76.7568 11.9964 76.5768 11.8764C76.4568 11.8164 76.2769 11.7564 76.0969 11.7564C75.917 11.7564 75.737 11.8164 75.617 11.8764C75.4971 11.9364 75.3771 12.0564 75.3171 12.2363C75.2571 12.4163 75.1971 12.5363 75.1971 12.7762V14.2159C75.1971 14.3959 75.2571 14.5758 75.3171 14.7558C75.3771 14.8758 75.4971 14.9957 75.617 15.1157C75.737 15.1757 75.917 15.2357 76.0969 15.2357ZM81.2558 16.0155C80.8959 16.0155 80.596 15.9555 80.296 15.7756C80.0561 15.6556 79.8161 15.4157 79.6962 15.1157C79.5762 14.8158 79.4562 14.5159 79.4562 14.0959V12.7162C79.4562 12.3563 79.5162 11.9964 79.6962 11.6964C79.8161 11.3965 80.0561 11.2165 80.296 11.0366C80.536 10.9166 80.8959 10.7966 81.2558 10.7966C81.5558 10.7966 81.8557 10.8566 82.0957 10.9766C82.3356 11.0966 82.5156 11.2765 82.6955 11.5165C82.8755 11.7564 82.9955 12.0564 83.0554 12.3563H82.2156C82.1556 12.1763 82.0957 12.0564 82.0357 11.9364C81.9757 11.8164 81.8557 11.6964 81.7357 11.6365C81.6158 11.5765 81.4958 11.5165 81.3158 11.5165C81.1359 11.5165 80.9559 11.5765 80.8359 11.6365C80.7159 11.6964 80.596 11.8164 80.536 11.9964C80.476 12.1763 80.416 12.3563 80.416 12.5363V13.916C80.416 14.1559 80.476 14.3359 80.536 14.4559C80.596 14.6358 80.7159 14.7558 80.8359 14.8158C80.9559 14.8758 81.1359 14.9358 81.3158 14.9358C81.4358 14.9358 81.6158 14.8758 81.7357 14.8158C81.8557 14.7558 81.9757 14.6358 82.0357 14.5758C82.0957 14.4559 82.2156 14.3359 82.2156 14.1559H83.0554C82.9955 14.4559 82.8755 14.7558 82.6955 14.9957C82.5156 15.2357 82.3356 15.4157 82.0957 15.5356C81.7957 15.9555 81.5558 16.0155 81.2558 16.0155ZM87.9744 10.9766H88.9342V15.9555H88.1544V12.1763L88.2144 12.4163L87.1346 15.3557H86.4147L85.335 12.4763L85.395 12.1763V15.9555H84.6151V10.9766H85.5749L86.7747 14.2759L87.9744 10.9766ZM90.7938 10.9766H91.1537H91.6336H94.0931V11.7564H91.6336V13.0762H93.7332V13.856H91.6336V15.1757H94.0931V15.9555H91.6336H91.1537H90.7938V10.9766ZM97.5724 11.7564V15.9555H96.7326V11.7564H95.3528V10.9766H98.9521V11.7564H97.5724ZM101.831 16.0155C101.472 16.0155 101.172 15.9555 100.872 15.7756C100.572 15.5956 100.392 15.4157 100.272 15.1157C100.152 14.8158 100.032 14.5159 100.032 14.1559V12.7162C100.032 12.3563 100.092 12.0564 100.272 11.7564C100.392 11.4565 100.632 11.2765 100.872 11.0966C101.112 10.9166 101.472 10.8566 101.831 10.8566C102.191 10.8566 102.491 10.9166 102.791 11.0966C103.091 11.2765 103.271 11.4565 103.391 11.7564C103.511 12.0564 103.631 12.3563 103.631 12.7162V14.2159C103.631 14.5758 103.571 14.8758 103.391 15.1757C103.271 15.4756 103.031 15.6556 102.791 15.8356C102.491 15.9555 102.191 16.0155 101.831 16.0155ZM101.831 15.2357C102.011 15.2357 102.191 15.1757 102.311 15.1157C102.431 15.0557 102.551 14.9358 102.671 14.7558C102.731 14.5758 102.791 14.4559 102.791 14.2159V12.7762C102.791 12.5963 102.731 12.4163 102.671 12.2363C102.611 12.0564 102.491 11.9964 102.311 11.8764C102.191 11.8164 102.011 11.7564 101.831 11.7564C101.652 11.7564 101.472 11.8164 101.352 11.8764C101.232 11.9364 101.112 12.0564 100.992 12.2363C100.932 12.4163 100.872 12.5363 100.872 12.7762V14.2159C100.872 14.3959 100.932 14.5758 100.992 14.7558C101.052 14.8758 101.172 14.9957 101.352 15.1157C101.472 15.1757 101.652 15.2357 101.831 15.2357ZM105.131 15.1757C105.311 15.1757 105.491 15.1157 105.611 15.0557C105.731 14.9957 105.851 14.8158 105.911 14.6358C105.971 14.4559 106.031 14.2159 106.031 13.976V10.9766H106.51H106.87H108.49H108.85H109.27V15.9555H108.43V11.7564H106.81V13.976C106.81 14.3959 106.75 14.7558 106.63 15.0557C106.51 15.3557 106.331 15.5956 106.091 15.7156C105.851 15.8356 105.551 15.9555 105.191 15.9555H105.131V15.1757ZM112.809 16.0155C112.449 16.0155 112.149 15.9555 111.849 15.7756C111.549 15.5956 111.369 15.4157 111.249 15.1157C111.13 14.8158 111.01 14.5159 111.01 14.1559V12.7162C111.01 12.3563 111.07 12.0564 111.249 11.7564C111.369 11.4565 111.609 11.2765 111.849 11.0966C112.089 10.9166 112.449 10.8566 112.809 10.8566C113.169 10.8566 113.469 10.9166 113.769 11.0966C114.069 11.2765 114.249 11.4565 114.369 11.7564C114.489 12.0564 114.609 12.3563 114.609 12.7162V14.2159C114.609 14.5758 114.549 14.8758 114.369 15.1757C114.249 15.4756 114.009 15.6556 113.769 15.8356C113.469 15.9555 113.109 16.0155 112.809 16.0155ZM112.809 15.2357C112.989 15.2357 113.169 15.1757 113.289 15.1157C113.409 15.0557 113.529 14.9358 113.649 14.7558C113.709 14.5758 113.769 14.4559 113.769 14.2159V12.7762C113.769 12.5963 113.709 12.4163 113.649 12.2363C113.589 12.0564 113.469 11.9964 113.289 11.8764C113.169 11.8164 112.989 11.7564 112.809 11.7564C112.629 11.7564 112.449 11.8164 112.329 11.8764C112.209 11.9364 112.089 12.0564 111.969 12.2363C111.909 12.4163 111.849 12.5363 111.849 12.7762V14.2159C111.849 14.3959 111.909 14.5758 111.969 14.7558C112.029 14.8758 112.149 14.9957 112.329 15.1157C112.449 15.1757 112.569 15.2357 112.809 15.2357ZM116.108 10.9766H116.468H116.948H118.988V11.7564H116.948V15.9555H116.108V10.9766ZM155.22 1.55859C155.22 1.91852 155.1 2.15847 154.92 2.39842C154.74 2.57838 154.44 2.69835 154.08 2.69835C153.72 2.69835 153.421 2.57838 153.241 2.39842C153.061 2.21845 152.941 1.91852 152.941 1.55859H153.601C153.601 1.73856 153.661 1.85853 153.72 1.91852C153.78 1.9785 153.9 2.03849 154.08 2.03849C154.26 2.03849 154.32 1.9785 154.44 1.91852C154.5 1.85853 154.56 1.67857 154.56 1.55859H155.22ZM72.1378 2.99829H72.9776V7.1974H73.3375H73.6974V9.05701H72.8576V7.97724H72.1978H70.2782H69.9182H69.4983V2.99829H70.3381V7.1974H72.2577V2.99829H72.1378ZM75.1971 2.99829H75.557H76.0369H78.4964V3.77812H76.0369V5.09784H78.1365V5.87768H76.0369V7.1974H78.4964V7.97724H76.0369H75.557H75.1971V2.99829ZM90.7938 3.77812V5.27781H91.9336C92.0535 5.27781 92.1735 5.21782 92.2935 5.15783C92.4135 5.09784 92.4735 5.03786 92.5334 4.91788C92.5934 4.79791 92.5934 4.67793 92.5934 4.55796C92.5934 4.43798 92.5934 4.25802 92.5334 4.13805C92.4735 4.01807 92.4135 3.95809 92.2935 3.8981C92.1735 3.83811 92.0535 3.77812 91.9336 3.77812H90.7938ZM89.954 2.99829H90.3739H90.7938H91.9336C92.2335 2.99829 92.5334 3.05828 92.7134 3.17825C92.9534 3.29823 93.1333 3.47819 93.2533 3.71814C93.3733 3.95809 93.4333 4.19804 93.4333 4.49797C93.4333 4.79791 93.3733 5.09784 93.2533 5.27781C93.1333 5.51776 92.9534 5.69772 92.7134 5.81769C92.4735 5.93767 92.2335 5.99765 91.9336 5.99765H90.7938V7.91725H89.954V2.99829ZM82.9355 2.99829H83.7753V7.97724H82.9355V5.87768H80.9559V7.97724H80.1161V2.99829H80.9559V5.15783H82.9355V2.99829ZM87.2546 3.77812V7.97724H86.4147V3.77812H85.035V2.99829H88.6343V3.77812H87.2546ZM103.451 2.99829H103.811H104.291H106.75V3.77812H104.291V5.09784H106.391V5.87768H104.291V7.1974H106.75V7.97724H104.291H103.811H103.451V2.99829ZM109.75 3.77812V5.93767C109.75 6.29759 109.69 6.65751 109.57 6.95745C109.51 7.07743 109.51 7.13741 109.45 7.1974H111.249V3.77812H109.75ZM108.13 7.1974C108.37 7.1974 108.55 7.07743 108.67 6.89746C108.79 6.65751 108.85 6.35758 108.85 5.99765V2.99829H109.33H109.69H111.189H111.549H111.969V7.1974H112.269H112.569V8.99702H111.789V7.97724H111.189H108.85V8.99702H108.07V7.97724V7.1974H108.13ZM122.707 2.99829H123.547V7.1974H123.907H124.267V9.05701H123.427V7.97724H122.767H120.847H120.488H120.068V2.99829H120.907V7.1974H122.827V2.99829H122.707ZM134.225 2.99829H135.064V7.97724H134.225V5.87768H132.245V7.97724H131.405V2.99829H132.245V5.15783H134.225V2.99829ZM138.604 8.03722C138.244 8.03722 137.944 7.97724 137.644 7.79727C137.404 7.6773 137.164 7.43735 137.044 7.13741C136.924 6.83748 136.804 6.53754 136.804 6.11763V4.79791C136.804 4.43798 136.864 4.07806 137.044 3.77812C137.164 3.47819 137.404 3.29823 137.644 3.11826C137.884 2.99829 138.244 2.87831 138.604 2.87831C138.904 2.87831 139.204 2.9383 139.444 3.05828C139.683 3.17825 139.863 3.35821 140.043 3.59816C140.223 3.83811 140.343 4.13805 140.403 4.43798H139.563C139.504 4.25802 139.444 4.13805 139.384 4.01807C139.324 3.8981 139.204 3.77812 139.084 3.71814C138.964 3.65815 138.844 3.59816 138.664 3.59816C138.484 3.59816 138.304 3.65815 138.184 3.71814C138.064 3.77812 137.944 3.8981 137.884 4.07806C137.824 4.25802 137.764 4.43798 137.764 4.61795V5.99765C137.764 6.2376 137.824 6.41757 137.884 6.53754C137.944 6.7175 138.064 6.83748 138.184 6.89746C138.304 6.95745 138.484 7.01744 138.664 7.01744C138.784 7.01744 138.964 6.95745 139.084 6.89746C139.204 6.83748 139.324 6.77749 139.384 6.65751C139.444 6.53754 139.563 6.41756 139.563 6.2376H140.403C140.343 6.53754 140.223 6.83748 140.043 7.07743C139.863 7.31738 139.683 7.49734 139.444 7.61731C139.204 7.97724 138.904 8.03722 138.604 8.03722ZM143.403 5.09784L144.662 2.99829H145.622L144.063 5.45777L145.862 7.97724H144.782L143.403 5.87768H142.803V7.97724H141.963V2.99829H142.803V5.09784H143.403ZM148.682 8.03722C148.322 8.03722 148.022 7.97724 147.722 7.79727C147.422 7.61731 147.242 7.43735 147.122 7.13741C147.002 6.83748 146.882 6.53754 146.882 6.17762V4.79791C146.882 4.43798 146.942 4.13805 147.122 3.83811C147.242 3.53817 147.482 3.35821 147.722 3.17825C147.962 2.99829 148.322 2.9383 148.682 2.9383C149.041 2.9383 149.341 2.99829 149.641 3.17825C149.941 3.35821 150.121 3.53817 150.241 3.83811C150.361 4.13805 150.481 4.43798 150.481 4.79791V6.2376C150.481 6.59753 150.421 6.89746 150.241 7.1974C150.121 7.49734 149.881 7.6773 149.641 7.85726C149.401 7.91725 149.041 8.03722 148.682 8.03722ZM148.682 7.1974C148.862 7.1974 149.041 7.13741 149.161 7.07743C149.281 7.01744 149.401 6.89746 149.521 6.7175C149.581 6.53754 149.641 6.41757 149.641 6.17762V4.73792C149.641 4.55796 149.581 4.378 149.521 4.19804C149.461 4.01807 149.341 3.95809 149.161 3.83811C149.041 3.77812 148.862 3.71814 148.682 3.71814C148.502 3.71814 148.322 3.77812 148.202 3.83811C148.082 3.8981 147.962 4.01807 147.902 4.19804C147.842 4.378 147.782 4.49797 147.782 4.73792V6.17762C147.782 6.35758 147.842 6.53754 147.902 6.7175C147.962 6.89746 148.082 6.95745 148.202 7.07743C148.382 7.13741 148.502 7.1974 148.682 7.1974ZM126.546 6.77749L128.646 2.99829H129.486V7.97724H128.706V4.25802L126.606 7.97724H125.766V2.99829H126.546V6.77749ZM115.029 6.77749L117.128 2.99829H117.968V7.97724H117.188V4.25802L115.089 7.97724H114.249V2.99829H115.029V6.77749ZM100.752 4.49797L99.6719 7.37736H99.0121L97.9323 4.55796V7.97724H97.2125V2.99829H98.1723L99.372 6.29759L100.572 2.99829H101.532V7.97724H100.752V4.49797ZM155.22 7.97724V4.25802L153.121 7.97724H152.281V2.99829H153.061V6.77749L155.16 2.99829H156V7.97724H155.22ZM121.027 14.7558L123.127 10.9766H123.967V15.9555H123.187V12.2363L121.087 15.9555H120.248V10.9766H121.027V14.7558ZM126.546 14.7558L128.646 10.9766H129.486V15.9555H128.706V12.2363L126.606 15.9555H125.766V10.9766H126.546V14.7558ZM70.7581 13.1361L72.0178 11.0366H72.9776L71.4179 13.4961L73.2175 16.0155H72.1378L70.7581 13.916H70.1582V16.0155H69.3184V11.0366H70.1582V13.1361H70.7581Z" fill="white"/>
</svg>
