<svg width="47" height="47" viewBox="0 0 47 47" fill="none" xmlns="http://www.w3.org/2000/svg">
<path fill-rule="evenodd" clip-rule="evenodd" d="M32.1359 40.6146L32.6852 44.5234C32.7462 45.0731 32.38 45.6227 31.8307 45.6838C31.2814 45.7449 30.7322 45.3784 30.6711 44.8288L29.8167 38.8434L32.1359 40.6146ZM42.6942 24.5519L46.3561 26.0177C46.9054 26.2009 47.1495 26.8116 46.9054 27.3613C46.7223 27.911 46.112 28.1553 45.5627 27.911L39.9478 25.6512L42.6942 24.5519ZM34.0278 7.38982L37.1404 4.94683C37.5676 4.58038 38.239 4.70253 38.5441 5.13005C38.9103 5.55758 38.7882 6.2294 38.361 6.53478L33.6006 10.3214L34.0278 7.38982ZM39.5817 34.0185L42.0229 37.1333C42.3891 37.5608 42.267 38.2327 41.8398 38.538C41.4126 38.9045 40.7412 38.7823 40.4361 38.3548L36.6522 33.591L39.5817 34.0185ZM40.6802 14.841L44.5862 14.2913C45.1355 14.2302 45.6847 14.5967 45.7458 15.1463C45.8068 15.696 45.4406 16.2457 44.8913 16.3068L38.9103 17.1618L40.6802 14.841ZM24.568 4.275L26.0328 0.610508C26.2769 0.121908 26.8872 -0.122391 27.3755 0.0608335C27.9247 0.244058 28.1689 0.854807 27.9247 1.40448L25.6666 7.02338L24.568 4.275ZM7.41834 12.9476L4.97711 9.83282C4.61092 9.4053 4.73298 8.73347 5.1602 8.4281C5.58741 8.06165 6.25876 8.1838 6.56391 8.61132L10.2868 13.3752L7.41834 12.9476ZM14.8641 6.29048L14.3148 2.44276C14.2538 1.89308 14.62 1.34341 15.1693 1.28233C15.7186 1.22126 16.2678 1.58771 16.3289 2.13738L17.1833 8.12272L14.8641 6.29048ZM22.3709 42.6911L20.9062 46.3556C20.7231 46.9053 20.1128 47.1496 19.5635 46.9053C19.0142 46.7221 18.7701 46.1113 19.0142 45.5616L21.2724 39.9428L22.3709 42.6911ZM4.30577 22.3532L0.643908 20.8874C0.0946296 20.7042 -0.149494 20.0934 0.0946296 19.5437C0.277722 18.9941 0.888032 18.7498 1.43731 18.9941L7.05216 21.2538L4.30577 22.3532ZM6.31979 32.1252L2.47484 32.6748C1.86453 32.7359 1.37628 32.3695 1.31525 31.8198C1.25422 31.2701 1.6204 30.7204 2.16968 30.6594L8.15071 29.8043L6.31979 32.1252ZM12.9722 39.5763L9.85958 42.0193C9.43236 42.3858 8.76102 42.2636 8.45587 41.8361C8.08968 41.4086 8.21175 40.7367 8.63896 40.4314L13.3994 36.7058L12.9722 39.5763ZM45.5627 18.9941C46.112 18.8108 46.6612 19.0551 46.9054 19.5437C47.0885 20.0934 46.8443 20.6431 46.3561 20.8874L37.5676 24.4297C37.0184 24.613 36.4691 24.3687 36.225 23.8801C36.0419 23.3304 36.286 22.7807 36.7742 22.5364L45.5627 18.9941ZM38.361 40.3703C38.7882 40.7367 38.9103 41.3475 38.5441 41.775C38.1779 42.2025 37.5676 42.3247 37.1404 41.9582L29.7557 36.1561C29.3285 35.7897 29.2064 35.1789 29.5726 34.7514C29.9388 34.3239 30.5491 34.2017 30.9763 34.5682L38.361 40.3703ZM44.8303 30.6594C45.3796 30.7204 45.7458 31.2701 45.6847 31.8198C45.6237 32.3695 45.0744 32.7359 44.5252 32.6748L35.1874 31.3312C34.6381 31.2701 34.272 30.7204 34.333 30.1708C34.394 29.6211 34.9433 29.1936 35.4926 29.3157L44.8303 30.6594ZM30.6711 2.13738C30.7322 1.58771 31.2814 1.16018 31.8307 1.28233C32.38 1.34341 32.7462 1.83201 32.6852 2.44276L31.3425 11.7872C31.2814 12.3369 30.7322 12.7033 30.1829 12.6423C29.6336 12.5812 29.2674 12.0315 29.3285 11.4818L30.6711 2.13738ZM40.3751 8.55025C40.7412 8.12272 41.3516 8.00057 41.7788 8.36702C42.206 8.73347 42.328 9.34422 41.9619 9.77175L36.1639 17.1618C35.7977 17.5893 35.1874 17.7115 34.7602 17.345C34.333 16.9786 34.2109 16.3678 34.5771 15.9403L40.3751 8.55025ZM19.0142 1.40448C18.8311 0.854807 19.0753 0.305133 19.5635 0.0608335C20.1128 -0.122391 20.6621 0.121908 20.9062 0.610508L24.446 9.4053C24.6291 9.95497 24.3849 10.5046 23.8967 10.7489C23.3474 10.9322 22.7981 10.6879 22.554 10.1993L19.0142 1.40448ZM1.43731 27.911C0.888032 28.0942 0.338753 27.8499 0.0946296 27.3613C-0.0884632 26.8727 0.155661 26.262 0.704939 26.0177L9.43236 22.4753C9.98164 22.2921 10.5309 22.5364 10.775 23.025C10.9581 23.5747 10.714 24.1244 10.2258 24.3687L1.43731 27.911ZM2.16968 16.3068C1.6204 16.2457 1.25422 15.696 1.31525 15.1463C1.37628 14.5967 1.92556 14.2302 2.47484 14.2913L11.8126 15.6349C12.3618 15.696 12.7891 16.2457 12.667 16.7954C12.606 17.345 12.0567 17.7726 11.5074 17.6504L2.16968 16.3068ZM8.57793 6.59585C8.15071 6.2294 8.02865 5.61865 8.39484 5.19113C8.76102 4.7636 9.37133 4.64145 9.79855 5.0079L17.1833 10.81C17.6105 11.1765 17.7326 11.7872 17.3664 12.2147C17.0002 12.6423 16.3899 12.7644 15.9627 12.398L8.57793 6.59585ZM27.9247 45.5616C28.1078 46.1113 27.8637 46.661 27.3755 46.9053C26.8262 47.0885 26.2769 46.8442 26.0328 46.3556L22.554 37.6219C22.3709 37.0722 22.615 36.5226 23.1033 36.2783C23.6526 36.095 24.2019 36.3393 24.446 36.8279L27.9247 45.5616ZM16.3289 44.8288C16.2678 45.3784 15.7186 45.806 15.1693 45.6838C14.62 45.6227 14.2538 45.0731 14.3148 44.5234L15.6575 35.1789C15.7186 34.6292 16.2678 34.2628 16.8171 34.3239C17.3664 34.3849 17.7326 34.9346 17.6715 35.4843L16.3289 44.8288ZM6.62494 38.3548C6.25876 38.7823 5.64845 38.9045 5.22123 38.538C4.79401 38.1716 4.67195 37.5608 5.03814 37.1333L10.8361 29.7432C11.2023 29.3157 11.8126 29.1936 12.2398 29.56C12.667 29.9265 12.7891 30.5372 12.4229 30.9647L6.62494 38.3548ZM17.0612 17.0397C15.4134 18.6887 14.3759 20.9485 14.3759 23.5136C14.3759 26.0177 15.4134 28.3385 17.0612 29.9875C18.7091 31.6366 20.9672 32.6748 23.5305 32.6748C26.0328 32.6748 28.352 31.6366 29.9998 29.9875C31.6476 28.3385 32.6852 26.0788 32.6852 23.5136C32.6852 21.0095 31.6476 18.6887 29.9998 17.0397C28.352 15.3906 26.0938 14.3524 23.5305 14.3524C20.9672 14.3524 18.7091 15.3906 17.0612 17.0397ZM12.3008 23.4525C12.3008 20.3988 13.5214 17.5893 15.5965 15.5739C17.6105 13.5584 20.4179 12.2758 23.4695 12.2758C26.521 12.2758 29.3285 13.4973 31.3425 15.5739C33.3565 17.5893 34.6381 20.3988 34.6381 23.4525C34.6381 26.5063 33.4175 29.3157 31.3425 31.3312C29.3285 33.3467 26.521 34.6292 23.4695 34.6292C20.4179 34.6292 17.6105 33.4077 15.5965 31.3312C13.5825 29.3768 12.3008 26.5674 12.3008 23.4525Z" fill="#E0C693"/>
</svg>
