<svg width="41" height="40" viewBox="0 0 41 40" fill="none" xmlns="http://www.w3.org/2000/svg">
<path d="M20.3333 29C20.3333 29 27.3333 24.1538 27.3333 17.9231C27.3333 16.087 26.5958 14.3261 25.283 13.0277C23.9703 11.7294 22.1898 11 20.3333 11C18.4768 11 16.6963 11.7294 15.3836 13.0277C14.0708 14.3261 13.3333 16.087 13.3333 17.9231C13.3333 24.1538 20.3333 29 20.3333 29Z" stroke="#D9BA5B" stroke-linecap="round" stroke-linejoin="round" fill="#D9BA5B"/>
<path d="M20.3333 19C21.4379 19 22.3333 18.1046 22.3333 17C22.3333 15.8954 21.4379 15 20.3333 15C19.2287 15 18.3333 15.8954 18.3333 17C18.3333 18.1046 19.2287 19 20.3333 19Z" stroke="#fff" stroke-linecap="round" stroke-linejoin="round" fill="#fff"/>
</svg>
