<svg width="38" height="38" viewBox="0 0 38 38" fill="none" xmlns="http://www.w3.org/2000/svg">
<path d="M19.0001 34.8334C18.6306 34.8334 18.314 34.7278 18.0501 34.5167C17.7862 34.3056 17.5883 34.0285 17.4563 33.6854C16.9549 32.2077 16.3216 30.8222 15.5563 29.5292C14.8174 28.2361 13.7751 26.7188 12.4292 24.9771C11.0834 23.2354 9.98828 21.5729 9.14383 19.9896C8.32578 18.4063 7.91675 16.4931 7.91675 14.25C7.91675 11.1625 8.9855 8.55002 11.123 6.41252C13.2869 4.24863 15.9126 3.16669 19.0001 3.16669C22.0876 3.16669 24.7001 4.24863 26.8376 6.41252C29.0015 8.55002 30.0834 11.1625 30.0834 14.25C30.0834 16.6514 29.6216 18.657 28.698 20.2667C27.8008 21.85 26.7584 23.4202 25.5709 24.9771C24.1459 26.8771 23.064 28.4604 22.3251 29.7271C21.6126 30.9674 21.0188 32.2868 20.5438 33.6854C20.4119 34.0549 20.2008 34.3452 19.9105 34.5563C19.6466 34.741 19.3431 34.8334 19.0001 34.8334ZM19.0001 18.2084C20.1084 18.2084 21.0452 17.8257 21.8105 17.0604C22.5758 16.2952 22.9584 15.3584 22.9584 14.25C22.9584 13.1417 22.5758 12.2049 21.8105 11.4396C21.0452 10.6743 20.1084 10.2917 19.0001 10.2917C17.8917 10.2917 16.9549 10.6743 16.1897 11.4396C15.4244 12.2049 15.0417 13.1417 15.0417 14.25C15.0417 15.3584 15.4244 16.2952 16.1897 17.0604C16.9549 17.8257 17.8917 18.2084 19.0001 18.2084Z" fill="#D9BA5B"/>
</svg>
