<svg width="20" height="25" viewBox="0 0 20 25" fill="none" xmlns="http://www.w3.org/2000/svg">
<path d="M9.85729 11.2776C11.2074 11.2776 12.3017 10.1832 12.3017 8.83312C12.3017 7.48305 11.2074 6.38867 9.85729 6.38867C8.50722 6.38867 7.41284 7.48305 7.41284 8.83312C7.41284 10.1832 8.50722 11.2776 9.85729 11.2776Z" stroke="#2A275F" stroke-width="2" stroke-linecap="round" stroke-linejoin="round"/>
<path d="M9.85731 23.5C9.85731 23.5 18.4129 17.5769 18.4129 9.96157C18.4129 7.71744 17.5115 5.56523 15.9069 3.9783C14.3025 2.39149 12.1264 1.5 9.85731 1.5C7.58826 1.5 5.41209 2.39149 3.80768 3.9783C2.20315 5.56523 1.30176 7.71744 1.30176 9.96157C1.30176 17.5769 9.85731 23.5 9.85731 23.5Z" stroke="#2A275F" stroke-width="2" stroke-linecap="round" stroke-linejoin="round"/>
</svg>
