<svg width="153" height="123" viewBox="0 0 153 123" fill="none" xmlns="http://www.w3.org/2000/svg">
<path d="M83.7137 113.489C85.0072 119.273 90.3333 123.31 96.2274 122.691C122.112 119.974 152.481 111.204 152.5 65.4984L152.5 12.1394C152.5 5.51199 147.127 0.139396 140.5 0.139396L103.605 0.139392C96.9779 0.139392 91.6053 5.51198 91.6053 12.1394L91.6053 59.6125C91.6053 65.3874 96.2868 70.0688 102.062 70.0688C107.559 70.0688 112.537 74.5279 110.672 79.6991C107.893 87.4057 100.663 91.5067 91.8106 94.2939C85.4528 96.2957 81.2705 102.565 82.7253 109.07L83.7137 113.489ZM2.12903 113.489C3.42259 119.273 8.74863 123.31 14.6427 122.691C40.5275 119.974 70.8964 111.204 70.9153 65.4984L70.9153 12.1394C70.9153 5.51198 65.5427 0.139389 58.9153 0.139389L22.0205 0.139385C15.3931 0.139385 10.0205 5.51197 10.0205 12.1394L10.0205 59.6124C10.0205 65.3873 14.702 70.0688 20.4769 70.0688C25.974 70.0688 30.9522 74.5278 29.0875 79.699C26.3086 87.4056 19.0782 91.5066 10.2259 94.2939C3.86807 96.2957 -0.314299 102.565 1.14057 109.07L2.12903 113.489Z" fill="#FFF4D5" fill-opacity="0.17"/>
</svg>
