<svg width="153" height="124" viewBox="0 0 153 124" fill="none" xmlns="http://www.w3.org/2000/svg">
<path d="M69.0989 9.49159C67.9132 4.18989 63.0347 0.497235 57.6292 1.03967C31.5629 3.65537 0.519179 12.1095 0.5 58.3204L0.5 112.679C0.5 118.755 5.42487 123.679 11.5 123.679H50.3947C56.4698 123.679 61.3947 118.755 61.3947 112.679L61.3947 64.2063C61.3947 58.4315 56.7132 53.75 50.9384 53.75C45.4412 53.75 40.4631 49.2909 42.3278 44.1197C45.2071 36.1349 52.8651 32.0207 62.1546 29.228C68.0059 27.469 71.8283 21.6955 70.4948 15.7328L69.0989 9.49159ZM150.684 9.49148C149.498 4.18983 144.619 0.497232 139.214 1.03966C113.148 3.65537 82.1038 12.1096 82.0847 58.3204V112.679C82.0847 118.755 87.0096 123.679 93.0847 123.679H131.98C138.055 123.679 142.98 118.755 142.98 112.679V64.2064C142.98 58.4315 138.298 53.75 132.523 53.75C127.026 53.75 122.048 49.291 123.913 44.1198C126.792 36.1349 134.45 32.0207 143.739 29.2281C149.591 27.469 153.413 21.6954 152.079 15.7327L150.684 9.49148Z" fill="#FFF4D5" fill-opacity="0.17"/>
</svg>
