<svg width="285" height="40" viewBox="0 0 285 40" fill="none" xmlns="http://www.w3.org/2000/svg">
<path d="M19.9562 4.25316C20.2513 3.5337 21.2702 3.5337 21.5653 4.25316L24.7917 12.1198C25.1664 13.0334 26.0249 13.6572 27.0096 13.7312L35.4883 14.3688C36.2637 14.4271 36.5786 15.3961 35.9855 15.8991L29.5009 21.3985C28.7478 22.0372 28.4198 23.0465 28.6537 24.0059L30.6674 32.2666C30.8515 33.0221 30.0272 33.621 29.3656 33.2123L22.1315 28.7446C21.2913 28.2257 20.2302 28.2257 19.39 28.7446L12.1559 33.2124C11.4942 33.621 10.6699 33.0221 10.8541 32.2666L12.8678 24.0059C13.1016 23.0465 12.7737 22.0372 12.0206 21.3985L5.536 15.8991C4.94293 15.3961 5.25779 14.4271 6.03322 14.3688L14.5118 13.7312C15.4966 13.6572 16.3551 13.0334 16.7298 12.1198L19.9562 4.25316Z" stroke="#D9BA5B" fill="#D9BA5B" stroke-width="1.73913"/>
<path d="M80.8263 4.25316C81.1214 3.5337 82.1403 3.5337 82.4354 4.25316L85.6618 12.1198C86.0365 13.0334 86.895 13.6572 87.8798 13.7312L96.3584 14.3688C97.1338 14.4271 97.4487 15.3961 96.8556 15.8991L90.371 21.3985C89.6179 22.0372 89.29 23.0465 89.5238 24.0059L91.5375 32.2666C91.7217 33.0221 90.8974 33.621 90.2357 33.2123L83.0016 28.7446C82.1614 28.2257 81.1003 28.2257 80.2601 28.7446L73.026 33.2124C72.3644 33.621 71.5401 33.0221 71.7242 32.2666L73.7379 24.0059C73.9718 23.0465 73.6438 22.0372 72.8907 21.3985L66.4061 15.8991C65.813 15.3961 66.1279 14.4271 66.9033 14.3688L75.382 13.7312C76.3667 13.6572 77.2252 13.0334 77.5999 12.1198L80.8263 4.25316Z" stroke="#D9BA5B" fill="#D9BA5B" stroke-width="1.73913"/>
<path d="M141.695 4.25316C141.991 3.5337 143.009 3.5337 143.305 4.25316L146.531 12.1198C146.906 13.0334 147.764 13.6572 148.749 13.7312L157.228 14.3688C158.003 14.4271 158.318 15.3961 157.725 15.8991L151.24 21.3985C150.487 22.0372 150.159 23.0465 150.393 24.0059L152.407 32.2666C152.591 33.0221 151.766 33.621 151.105 33.2123L143.871 28.7446C143.031 28.2257 141.969 28.2257 141.129 28.7446L133.895 33.2124C133.234 33.621 132.409 33.0221 132.593 32.2666L134.607 24.0059C134.841 23.0465 134.513 22.0372 133.76 21.3985L127.275 15.8991C126.682 15.3961 126.997 14.4271 127.772 14.3688L136.251 13.7312C137.236 13.6572 138.094 13.0334 138.469 12.1198L141.695 4.25316Z" stroke="#D9BA5B" fill="#D9BA5B" stroke-width="1.73913"/>
<path d="M202.565 4.25316C202.86 3.5337 203.879 3.5337 204.174 4.25316L207.4 12.1198C207.775 13.0334 208.633 13.6572 209.618 13.7312L218.097 14.3688C218.872 14.4271 219.187 15.3961 218.594 15.8991L212.109 21.3985C211.356 22.0372 211.028 23.0465 211.262 24.0059L213.276 32.2666C213.46 33.0221 212.636 33.621 211.974 33.2123L204.74 28.7446C203.9 28.2257 202.839 28.2257 201.998 28.7446L194.764 33.2124C194.103 33.621 193.278 33.0221 193.463 32.2666L195.476 24.0059C195.71 23.0465 195.382 22.0372 194.629 21.3985L188.144 15.8991C187.551 15.3961 187.866 14.4271 188.642 14.3688L197.12 13.7312C198.105 13.6572 198.963 13.0334 199.338 12.1198L202.565 4.25316Z" stroke="#D9BA5B" fill="#D9BA5B" stroke-width="1.73913"/>
<path d="M263.435 4.25316C263.73 3.5337 264.749 3.5337 265.044 4.25316L268.27 12.1198C268.645 13.0334 269.503 13.6572 270.488 13.7312L278.967 14.3688C279.742 14.4271 280.057 15.3961 279.464 15.8991L272.979 21.3985C272.226 22.0372 271.898 23.0465 272.132 24.0059L274.146 32.2666C274.33 33.0221 273.506 33.621 272.844 33.2123L265.61 28.7446C264.77 28.2257 263.709 28.2257 262.868 28.7446L255.634 33.2124C254.973 33.621 254.148 33.0221 254.333 32.2666L256.346 24.0059C256.58 23.0465 256.252 22.0372 255.499 21.3985L249.015 15.8991C248.421 15.3961 248.736 14.4271 249.512 14.3688L257.99 13.7312C258.975 13.6572 259.834 13.0334 260.208 12.1198L263.435 4.25316Z" stroke="#D9BA5B" fill="#D9BA5B" stroke-width="1.73913"/>
</svg>
