<svg width="20" height="19" viewBox="0 0 20 19" fill="none" xmlns="http://www.w3.org/2000/svg">
<path d="M9.11386 0.882789C9.4532 0.0554076 10.6249 0.0554061 10.9643 0.882788L12.8195 5.4061C12.9631 5.75633 13.2922 5.99543 13.6697 6.02382L18.5449 6.39042C19.4366 6.45748 19.7987 7.57186 19.1167 8.15027L15.3881 11.3124C15.0993 11.5573 14.9736 11.9442 15.0633 12.3119L16.2212 17.0618C16.4329 17.9306 15.485 18.6194 14.7241 18.1495L10.5645 15.5805C10.2425 15.3816 9.83567 15.3816 9.5136 15.5805L5.35399 18.1495C4.59313 18.6194 3.64518 17.9306 3.85697 17.0618L5.01483 12.3119C5.10448 11.9442 4.97878 11.5573 4.69007 11.3124L0.961436 8.15027C0.279411 7.57187 0.641494 6.45748 1.53324 6.39043L6.40845 6.02382C6.78593 5.99543 7.11502 5.75633 7.25867 5.4061L9.11386 0.882789Z" fill="#D9BA5B"/>
</svg>
