<svg width="682" height="607" viewBox="0 0 682 607" fill="none" xmlns="http://www.w3.org/2000/svg">
<path fill-rule="evenodd" clip-rule="evenodd" d="M466.312 589.814L474.282 646.533C475.168 654.509 469.854 662.485 461.884 663.372C453.914 664.258 445.943 658.94 445.058 650.964L432.659 564.113L466.312 589.814ZM619.521 356.734L672.656 378.004C680.627 380.662 684.169 389.525 680.627 397.501C677.97 405.477 669.114 409.022 661.144 405.477L579.669 372.686L619.521 356.734ZM493.766 107.702L538.931 72.2521C545.13 66.9347 554.872 68.7071 559.3 74.9108C564.613 81.1144 562.842 90.8631 556.643 95.2942L487.566 150.241L493.766 107.702ZM574.355 494.1L609.779 539.299C615.093 545.502 613.321 555.251 607.122 559.682C600.923 564.999 591.181 563.227 586.753 557.023L531.846 487.897L574.355 494.1ZM590.296 215.822L646.974 207.846C654.944 206.96 662.915 212.277 663.8 220.254C664.686 228.23 659.372 236.206 651.402 237.092L564.613 249.499L590.296 215.822ZM356.498 62.5035L377.752 9.32932C381.295 2.23943 390.151 -1.30552 397.235 1.35319C405.206 4.0119 408.748 12.8743 405.206 20.8504L372.439 102.384L356.498 62.5035ZM107.645 188.349L72.221 143.151C66.9074 136.947 68.6786 127.199 74.8778 122.768C81.077 117.45 90.8185 119.223 95.2465 125.426L149.268 194.553L107.645 188.349ZM215.688 91.7493L207.717 35.9164C206.832 27.9403 212.145 19.9642 220.116 19.0779C228.086 18.1917 236.057 23.5091 236.942 31.4852L249.341 118.336L215.688 91.7493ZM324.616 619.946L303.362 673.12C300.705 681.096 291.849 684.641 283.879 681.096C275.909 678.438 272.366 669.575 275.909 661.599L308.676 580.065L324.616 619.946ZM62.4794 324.829L9.34352 303.56C1.37314 300.901 -2.16926 292.039 1.37314 284.063C4.02993 276.086 12.8859 272.541 20.8563 276.086L102.331 308.877L62.4794 324.829ZM91.7041 466.627L35.9115 474.603C27.0555 475.49 19.9707 470.172 19.0851 462.196C18.1995 454.22 23.5131 446.244 31.4835 445.358L118.272 432.95L91.7041 466.627ZM188.234 574.748L143.069 610.197C136.87 615.515 127.128 613.742 122.7 607.539C117.386 601.335 119.158 591.586 125.357 587.155L194.433 533.095L188.234 574.748ZM661.144 276.086C669.114 273.428 677.084 276.973 680.627 284.063C683.284 292.039 679.741 300.015 672.656 303.56L545.13 354.961C537.16 357.62 529.19 354.075 525.647 346.985C522.99 339.009 526.533 331.033 533.618 327.488L661.144 276.086ZM556.643 586.269C562.842 591.586 564.613 600.449 559.3 606.653C553.986 612.856 545.13 614.629 538.931 609.311L431.774 525.119C425.575 519.801 423.803 510.939 429.117 504.735C434.431 498.532 443.287 496.759 449.486 502.077L556.643 586.269ZM650.516 445.358C658.487 446.244 663.8 454.22 662.915 462.196C662.029 470.172 654.059 475.49 646.089 474.603L510.592 455.106C502.622 454.22 497.308 446.244 498.194 438.268C499.079 430.292 507.05 424.088 515.02 425.86L650.516 445.358ZM445.058 31.4852C445.943 23.5091 453.914 17.3054 461.884 19.0779C469.854 19.9642 475.168 27.054 474.282 35.9164L454.799 171.511C453.914 179.487 445.943 184.804 437.973 183.918C430.003 183.032 424.689 175.055 425.575 167.079L445.058 31.4852ZM585.868 124.54C591.181 118.336 600.037 116.564 606.237 121.881C612.436 127.199 614.207 136.061 608.893 142.265L524.762 249.499C519.448 255.703 510.592 257.475 504.393 252.158C498.194 246.841 496.422 237.978 501.736 231.775L585.868 124.54ZM275.909 20.8504C273.252 12.8743 276.794 4.89814 283.879 1.35319C291.849 -1.30552 299.82 2.23943 303.362 9.32932L354.727 136.947C357.384 144.923 353.841 152.9 346.756 156.445C338.786 159.103 330.816 155.558 327.273 148.468L275.909 20.8504ZM20.8563 405.477C12.8859 408.136 4.91553 404.591 1.37314 397.501C-1.28366 390.411 2.25873 381.548 10.2291 378.004L136.87 326.602C144.84 323.943 152.81 327.488 156.353 334.578C159.01 342.554 155.467 350.53 148.382 354.075L20.8563 405.477ZM31.4835 237.092C23.5131 236.206 18.1995 228.23 19.0851 220.254C19.9707 212.277 27.9411 206.96 35.9115 207.846L171.408 227.343C179.378 228.23 185.578 236.206 183.806 244.182C182.921 252.158 174.95 258.362 166.98 256.589L31.4835 237.092ZM124.471 96.1805C118.272 90.8631 116.501 82.0007 121.814 75.797C127.128 69.5934 135.984 67.8209 142.183 73.1383L249.341 157.331C255.54 162.648 257.311 171.511 251.997 177.714C246.684 183.918 237.828 185.69 231.629 180.373L124.471 96.1805ZM405.206 661.599C407.863 669.575 404.32 677.551 397.235 681.096C389.265 683.755 381.295 680.21 377.752 673.12L327.273 546.388C324.616 538.412 328.159 530.436 335.244 526.891C343.214 524.233 351.184 527.777 354.727 534.867L405.206 661.599ZM236.942 650.964C236.057 658.94 228.086 665.144 220.116 663.372C212.145 662.485 206.832 654.509 207.717 646.533L227.201 510.939C228.086 502.963 236.057 497.645 244.027 498.532C251.997 499.418 257.311 507.394 256.425 515.37L236.942 650.964ZM96.1321 557.023C90.8185 563.227 81.9626 564.999 75.7634 559.682C69.5642 554.365 67.793 545.502 73.1066 539.299L157.238 432.064C162.552 425.86 171.408 424.088 177.607 429.405C183.806 434.723 185.578 443.585 180.264 449.789L96.1321 557.023ZM247.569 247.727C223.658 271.655 208.603 304.446 208.603 341.668C208.603 378.004 223.658 411.681 247.569 435.609C271.481 459.537 304.248 474.603 341.443 474.603C377.752 474.603 411.405 459.537 435.316 435.609C459.227 411.681 474.282 378.89 474.282 341.668C474.282 305.332 459.227 271.655 435.316 247.727C411.405 223.798 378.638 208.732 341.443 208.732C304.248 208.732 271.481 223.798 247.569 247.727ZM178.493 340.782C178.493 296.47 196.205 255.703 226.315 226.457C255.54 197.211 296.277 178.6 340.557 178.6C384.837 178.6 425.575 196.325 454.799 226.457C484.024 255.703 502.622 296.47 502.622 340.782C502.622 385.093 484.91 425.86 454.799 455.106C425.575 484.352 384.837 502.963 340.557 502.963C296.277 502.963 255.54 485.238 226.315 455.106C197.09 426.747 178.493 385.98 178.493 340.782Z" fill="#FFF4D5"/>
</svg>
