<svg width="271" height="272" viewBox="0 0 271 272" fill="none" xmlns="http://www.w3.org/2000/svg">
<path fill-rule="evenodd" clip-rule="evenodd" d="M185.294 234.3L188.461 256.838C188.813 260.007 186.702 263.177 183.535 263.529C180.367 263.881 177.2 261.768 176.848 258.599L171.922 224.088L185.294 234.3ZM246.173 141.683L267.287 150.135C270.454 151.191 271.862 154.713 270.454 157.882C269.399 161.052 265.88 162.46 262.712 161.052L230.338 148.022L246.173 141.683ZM196.203 42.7276L214.15 28.6414C216.613 26.5284 220.484 27.2327 222.244 29.6978C224.355 32.1629 223.651 36.0366 221.188 37.7974L193.74 59.631L196.203 42.7276ZM228.226 196.267L242.302 214.227C244.414 216.692 243.71 220.566 241.246 222.327C238.783 224.44 234.912 223.735 233.153 221.27L211.335 193.802L228.226 196.267ZM234.56 85.6905L257.082 82.5211C260.249 82.169 263.416 84.2819 263.768 87.4513C264.12 90.6207 262.009 93.7901 258.842 94.1423L224.355 99.0724L234.56 85.6905ZM141.658 24.7677L150.104 3.63833C151.512 0.821083 155.031 -0.587539 157.846 0.468928C161.013 1.52539 162.42 5.04695 161.013 8.21635L147.993 40.6146L141.658 24.7677ZM42.7739 74.7737L28.6978 56.8138C26.5864 54.3487 27.2902 50.475 29.7535 48.7142C32.2168 46.6013 36.0877 47.3056 37.8472 49.7707L59.3132 77.2388L42.7739 74.7737ZM85.7059 36.3888L82.5388 14.203C82.1869 11.0336 84.2983 7.86419 87.4654 7.51204C90.6325 7.15988 93.7996 9.27281 94.1515 12.4422L99.0781 46.9534L85.7059 36.3888ZM128.99 246.273L120.544 267.403C119.488 270.572 115.969 271.981 112.802 270.572C109.635 269.516 108.228 265.994 109.635 262.825L122.656 230.426L128.99 246.273ZM24.8269 129.006L3.71275 120.554C0.54563 119.497 -0.861977 115.976 0.54563 112.807C1.60134 109.637 5.12035 108.228 8.28747 109.637L40.6624 122.667L24.8269 129.006ZM36.4396 185.351L14.2698 188.52C10.7508 188.872 7.93557 186.759 7.58367 183.59C7.23176 180.42 9.34318 177.251 12.5103 176.899L46.9967 171.969L36.4396 185.351ZM74.7969 228.313L56.8499 242.4C54.3866 244.513 50.5157 243.808 48.7562 241.343C46.6448 238.878 47.3486 235.004 49.8119 233.244L77.2602 211.762L74.7969 228.313ZM262.712 109.637C265.88 108.581 269.047 109.989 270.454 112.807C271.51 115.976 270.102 119.145 267.287 120.554L216.613 140.979C213.446 142.035 210.279 140.627 208.872 137.81C207.816 134.64 209.223 131.471 212.039 130.062L262.712 109.637ZM221.188 232.891C223.651 235.004 224.355 238.526 222.244 240.991C220.132 243.456 216.613 244.16 214.15 242.048L171.57 208.593C169.107 206.48 168.403 202.958 170.514 200.493C172.626 198.028 176.145 197.324 178.608 199.437L221.188 232.891ZM258.49 176.899C261.657 177.251 263.768 180.42 263.416 183.59C263.064 186.759 259.897 188.872 256.73 188.52L202.889 180.772C199.722 180.42 197.611 177.251 197.963 174.082C198.314 170.912 201.482 168.447 204.649 169.151L258.49 176.899ZM176.848 12.4422C177.2 9.27281 180.367 6.80772 183.535 7.51204C186.702 7.86419 188.813 10.6814 188.461 14.203L180.719 68.0828C180.367 71.2522 177.2 73.3651 174.033 73.0129C170.866 72.6608 168.755 69.4914 169.107 66.322L176.848 12.4422ZM232.801 49.4185C234.912 46.9534 238.431 46.2491 240.895 48.3621C243.358 50.475 244.062 53.9966 241.95 56.4616L208.52 99.0724C206.408 101.538 202.889 102.242 200.426 100.129C197.963 98.016 197.259 94.4944 199.37 92.0293L232.801 49.4185ZM109.635 8.21635C108.579 5.04695 109.987 1.87755 112.802 0.468928C115.969 -0.587539 119.137 0.821083 120.544 3.63833L140.954 54.3487C142.01 57.5181 140.603 60.6875 137.787 62.0961C134.62 63.1526 131.453 61.744 130.046 58.9267L109.635 8.21635ZM8.28747 161.052C5.12035 162.108 1.95324 160.7 0.54563 157.882C-0.510075 155.065 0.897532 151.544 4.06465 150.135L54.3866 129.71C57.5537 128.653 60.7208 130.062 62.1285 132.879C63.1842 136.049 61.7766 139.218 58.9613 140.627L8.28747 161.052ZM12.5103 94.1423C9.34318 93.7901 7.23176 90.6207 7.58367 87.4513C7.93557 84.2819 11.1027 82.169 14.2698 82.5211L68.1108 90.2686C71.2779 90.6207 73.7412 93.7901 73.0374 96.9595C72.6855 100.129 69.5184 102.594 66.3513 101.89L12.5103 94.1423ZM49.46 38.1496C46.9967 36.0366 46.2929 32.5151 48.4043 30.05C50.5157 27.5849 54.0347 26.8806 56.498 28.9935L99.0781 62.4483C101.541 64.5612 102.245 68.0828 100.134 70.5479C98.0224 73.0129 94.5034 73.7173 92.0401 71.6043L49.46 38.1496ZM161.013 262.825C162.069 265.994 160.661 269.164 157.846 270.572C154.679 271.629 151.512 270.22 150.104 267.403L130.046 217.044C128.99 213.875 130.397 210.706 133.213 209.297C136.38 208.241 139.547 209.649 140.954 212.466L161.013 262.825ZM94.1515 258.599C93.7996 261.768 90.6325 264.233 87.4654 263.529C84.2983 263.177 82.1869 260.007 82.5388 256.838L90.2806 202.958C90.6325 199.789 93.7996 197.676 96.9667 198.028C100.134 198.38 102.245 201.55 101.893 204.719L94.1515 258.599ZM38.1991 221.27C36.0877 223.735 32.5687 224.44 30.1054 222.327C27.6421 220.214 26.9383 216.692 29.0497 214.227L62.4804 171.616C64.5918 169.151 68.1108 168.447 70.5741 170.56C73.0374 172.673 73.7412 176.194 71.6298 178.66L38.1991 221.27ZM98.3743 98.3681C88.873 107.876 82.8907 120.906 82.8907 135.697C82.8907 150.135 88.873 163.517 98.3743 173.025C107.876 182.533 120.896 188.52 135.676 188.52C150.104 188.52 163.476 182.533 172.978 173.025C182.479 163.517 188.461 150.487 188.461 135.697C188.461 121.258 182.479 107.876 172.978 98.3681C163.476 88.8599 150.456 82.8733 135.676 82.8733C120.896 82.8733 107.876 88.8599 98.3743 98.3681ZM70.926 135.344C70.926 117.737 77.964 101.538 89.9287 89.9164C101.541 78.2953 117.729 70.9 135.324 70.9C152.919 70.9 169.107 77.9431 180.719 89.9164C192.332 101.538 199.722 117.737 199.722 135.344C199.722 152.952 192.684 169.151 180.719 180.772C169.107 192.394 152.919 199.789 135.324 199.789C117.729 199.789 101.541 192.746 89.9287 180.772C78.3159 169.504 70.926 153.304 70.926 135.344Z" fill="#D9BA5B" fill-opacity="0.09"/>
</svg>
