<svg width="181" height="222" viewBox="0 0 181 222" fill="none" xmlns="http://www.w3.org/2000/svg">
<path fill-rule="evenodd" clip-rule="evenodd" d="M90.8665 183.28L94.1972 206.982C94.5673 210.315 92.3468 213.648 89.0161 214.019C85.6853 214.389 82.3546 212.167 81.9845 208.834L76.8034 172.54L90.8665 183.28ZM154.891 85.8784L177.095 94.7668C180.426 95.8778 181.906 99.5813 180.426 102.914C179.316 106.248 175.615 107.729 172.284 106.248L138.237 92.5447L154.891 85.8784ZM102.339 -18.1894L121.213 -33.0033C123.804 -35.2254 127.875 -34.4847 129.725 -31.8922C131.946 -29.2998 131.205 -25.226 128.615 -23.3742L99.7484 -0.412659L102.339 -18.1894ZM136.016 143.282L150.82 162.17C153.04 164.763 152.3 168.836 149.709 170.688C147.119 172.91 143.048 172.169 141.198 169.577L118.253 140.69L136.016 143.282ZM142.678 26.9931L166.363 23.66C169.694 23.2896 173.025 25.5117 173.395 28.8448C173.765 32.178 171.544 35.5111 168.213 35.8814L131.946 41.0663L142.678 26.9931ZM44.9764 -37.0771L53.8584 -59.298C55.3387 -62.2608 59.0395 -63.7422 62.0002 -62.6311C65.3309 -61.5201 66.8112 -57.8166 65.3309 -54.4835L51.6379 -20.4114L44.9764 -37.0771ZM-59.0164 15.5123L-73.8197 -3.37544C-76.0402 -5.96788 -75.3 -10.0417 -72.7094 -11.8934C-70.1189 -14.1155 -66.048 -13.3748 -64.1976 -10.7824L-41.6226 18.1047L-59.0164 15.5123ZM-13.8665 -24.8556L-17.1972 -48.1875C-17.5673 -51.5207 -15.3468 -54.8538 -12.0161 -55.2242C-8.68538 -55.5945 -5.35464 -53.3724 -4.98456 -50.0393L0.196579 -13.7452L-13.8665 -24.8556ZM31.6535 195.872L22.7715 218.093C21.6613 221.426 17.9605 222.907 14.6298 221.426C11.299 220.315 9.8187 216.611 11.299 213.278L24.992 179.206L31.6535 195.872ZM-77.8906 72.5459L-100.095 63.6575C-103.426 62.5465 -104.907 58.843 -103.426 55.5099C-102.316 52.1768 -98.6151 50.6954 -95.2844 52.1768L-61.2369 65.8796L-77.8906 72.5459ZM-65.6779 131.802L-88.993 135.135C-92.6938 135.505 -95.6545 133.283 -96.0246 129.95C-96.3946 126.617 -94.1742 123.284 -90.8434 122.913L-54.5755 117.728L-65.6779 131.802ZM-25.339 176.984L-44.2132 191.798C-46.8037 194.02 -50.8746 193.279 -52.725 190.687C-54.9455 188.094 -54.2054 184.021 -51.6148 182.169L-22.7485 159.578L-25.339 176.984ZM172.284 52.1768C175.615 51.0657 178.946 52.5471 180.426 55.5099C181.536 58.843 180.056 62.1761 177.095 63.6575L123.804 85.1377C120.473 86.2487 117.142 84.7674 115.662 81.8046C114.552 78.4714 116.032 75.1383 118.993 73.6569L172.284 52.1768ZM128.615 181.799C131.205 184.021 131.946 187.724 129.725 190.317C127.505 192.909 123.804 193.65 121.213 191.428L76.4333 156.245C73.8428 154.022 73.1026 150.319 75.3231 147.727C77.5436 145.134 81.2444 144.393 83.835 146.615L128.615 181.799ZM167.843 122.913C171.174 123.284 173.395 126.617 173.025 129.95C172.654 133.283 169.324 135.505 165.993 135.135L109.371 126.987C106.04 126.617 103.819 123.284 104.189 119.95C104.56 116.617 107.89 114.025 111.221 114.766L167.843 122.913ZM81.9845 -50.0393C82.3546 -53.3724 85.6853 -55.9649 89.0161 -55.2242C92.3468 -54.8538 94.5673 -51.891 94.1972 -48.1875L86.0554 8.47569C85.6854 11.8088 82.3546 14.0309 79.0239 13.6606C75.6932 13.2902 73.4727 9.95708 73.8428 6.62395L81.9845 -50.0393ZM140.827 -11.1527C143.048 -13.7452 146.749 -14.4859 149.339 -12.2638C151.93 -10.0417 152.67 -6.33823 150.45 -3.74579L115.292 41.0663C113.071 43.6588 109.371 44.3994 106.78 42.1774C104.189 39.9553 103.449 36.2518 105.67 33.6594L140.827 -11.1527ZM11.299 -54.4835C10.1888 -57.8166 11.6691 -61.1497 14.6298 -62.6311C17.9605 -63.7422 21.2912 -62.2608 22.7715 -59.298L44.2363 -5.96788C45.3465 -2.63475 43.8662 0.698387 40.9055 2.17978C37.5748 3.29082 34.2441 1.80943 32.7637 -1.15335L11.299 -54.4835ZM-95.2844 106.248C-98.6151 107.359 -101.946 105.877 -103.426 102.914C-104.536 99.9516 -103.056 96.2481 -99.7254 94.7668L-46.8037 73.2866C-43.473 72.1755 -40.1423 73.6569 -38.662 76.6197C-37.5517 79.9529 -39.032 83.286 -41.9927 84.7674L-95.2844 106.248ZM-90.8434 35.8814C-94.1742 35.5111 -96.3946 32.178 -96.0246 28.8448C-95.6545 25.5117 -92.3237 23.2896 -88.993 23.66L-32.3706 31.8076C-29.0398 32.178 -26.4493 35.5111 -27.1894 38.8442C-27.5595 42.1774 -30.8903 44.7698 -34.221 44.0291L-90.8434 35.8814ZM-51.9849 -23.0039C-54.5755 -25.226 -55.3156 -28.9295 -53.0951 -31.5219C-50.8746 -34.1143 -47.1738 -34.855 -44.5833 -32.6329L0.196579 2.55013C2.78715 4.77222 3.52731 8.47569 1.30682 11.0681C-0.913666 13.6606 -4.61448 14.4013 -7.20505 12.1792L-51.9849 -23.0039ZM65.3309 213.278C66.4411 216.611 64.9608 219.944 62.0002 221.426C58.6694 222.537 55.3387 221.055 53.8584 218.093L32.7637 165.133C31.6535 161.8 33.1338 158.467 36.0945 156.985C39.4252 155.874 42.7559 157.356 44.2363 160.318L65.3309 213.278ZM-4.98456 208.834C-5.35464 212.167 -8.68538 214.76 -12.0161 214.019C-15.3468 213.648 -17.5673 210.315 -17.1972 206.982L-9.05545 150.319C-8.68537 146.986 -5.35464 144.764 -2.02391 145.134C1.30682 145.504 3.52731 148.838 3.15723 152.171L-4.98456 208.834ZM-63.8275 169.577C-66.048 172.169 -69.7488 172.91 -72.3394 170.688C-74.9299 168.466 -75.6701 164.763 -73.4496 162.17L-38.2919 117.358C-36.0714 114.766 -32.3706 114.025 -29.78 116.247C-27.1894 118.469 -26.4493 122.173 -28.6698 124.765L-63.8275 169.577ZM-0.543587 40.3256C-10.5358 50.325 -16.8272 64.0279 -16.8272 79.5825C-16.8272 94.7668 -10.5358 108.84 -0.543587 118.839C9.44861 128.839 23.1416 135.135 38.685 135.135C53.8584 135.135 67.9214 128.839 77.9137 118.839C87.9058 108.84 94.1972 95.1371 94.1972 79.5825C94.1972 64.3982 87.9058 50.325 77.9137 40.3256C67.9214 30.3262 54.2285 24.0303 38.685 24.0303C23.1416 24.0303 9.44861 30.3262 -0.543587 40.3256ZM-29.4099 79.2121C-29.4099 60.6948 -22.0083 43.6587 -9.42554 31.4373C2.78715 19.2158 19.8109 11.4385 38.315 11.4385C56.819 11.4385 73.8428 18.8454 86.0554 31.4373C98.2681 43.6587 106.04 60.6948 106.04 79.2121C106.04 97.7296 98.6382 114.766 86.0554 126.987C73.8428 139.209 56.819 146.986 38.315 146.986C19.8109 146.986 2.78715 139.579 -9.42554 126.987C-21.6382 115.136 -29.4099 98.0999 -29.4099 79.2121Z" fill="#E0C693" fill-opacity="0.51"/>
</svg>
