<svg width="247" height="31" viewBox="0 0 247 31" fill="none" xmlns="http://www.w3.org/2000/svg">
<rect x="1.5" y="2.30566" width="244" height="27" rx="13.5" fill="white" stroke="#C9A113" stroke-width="3"/>
<rect x="4.5" y="5.30566" width="21" height="20" rx="10" fill="white" stroke="#C9A113" stroke-width="9"/>
<path d="M51.098 13.4757C51.098 15.5327 49.619 17.2497 47.103 17.2497H44.774V21.8057H42.411V9.70166H47.103C49.619 9.70166 51.098 11.4187 51.098 13.4757ZM48.735 13.4757C48.735 12.4897 48.055 11.8097 46.984 11.8097H44.774V15.1247H46.984C48.055 15.1247 48.735 14.4617 48.735 13.4757ZM63.3538 21.8057H61.1268V12.9487H63.3538V21.8057ZM60.0898 18.9667C60.0898 20.6327 58.8828 21.8057 57.1318 21.8057H52.8988V12.9487H55.1258V16.1447H57.1318C58.8828 16.1447 60.0898 17.3007 60.0898 18.9667ZM56.7238 17.8787H55.0578V20.0717H56.7238C57.4378 20.0717 57.8968 19.6467 57.8968 18.9667C57.8968 18.3037 57.4378 17.8787 56.7238 17.8787ZM73.1066 21.8057H70.8966V14.9037H68.7716V17.0287C68.7716 20.8197 67.7346 21.8057 65.9326 21.8057H64.8786V19.8507H65.1506C65.8986 19.8507 66.6296 19.7147 66.6296 16.5357V12.9487H73.1066V21.8057ZM82.8695 18.0657H77.3275C77.3275 19.2217 78.0075 20.0377 79.2655 20.0377C80.2345 20.0377 80.7105 19.7487 81.2715 19.2047L82.6145 20.5137C81.7135 21.4317 80.8465 21.9077 79.2485 21.9077C77.1575 21.9077 75.1515 20.9557 75.1515 17.3687C75.1515 14.4787 76.7155 12.8467 79.0105 12.8467C81.4755 12.8467 82.8695 14.6147 82.8695 17.1307V18.0657ZM80.6935 16.5527C80.6765 16.1617 80.6425 15.9237 80.4895 15.6007C80.2515 15.0737 79.7585 14.6827 79.0105 14.6827C78.2625 14.6827 77.7695 15.0737 77.5315 15.6007C77.3785 15.9237 77.3445 16.1617 77.3275 16.5527H80.6935ZM92.183 18.0657H86.641C86.641 19.2217 87.321 20.0377 88.579 20.0377C89.548 20.0377 90.024 19.7487 90.585 19.2047L91.928 20.5137C91.027 21.4317 90.16 21.9077 88.562 21.9077C86.471 21.9077 84.465 20.9557 84.465 17.3687C84.465 14.4787 86.029 12.8467 88.324 12.8467C90.789 12.8467 92.183 14.6147 92.183 17.1307V18.0657ZM90.007 16.5527C89.99 16.1617 89.956 15.9237 89.803 15.6007C89.565 15.0737 89.072 14.6827 88.324 14.6827C87.576 14.6827 87.083 15.0737 86.845 15.6007C86.692 15.9237 86.658 16.1617 86.641 16.5527H90.007ZM101.445 19.2557C101.445 20.8197 100.391 21.8057 98.7255 21.8057H94.2035V12.9487H98.5725C100.238 12.9487 101.309 13.9007 101.309 15.3797C101.309 16.2127 100.952 16.8077 100.187 17.2497C101.037 17.6917 101.445 18.3037 101.445 19.2557ZM98.0455 14.5807H96.3965V16.4847H98.0455C98.7425 16.4847 99.1165 16.1277 99.1165 15.5157C99.1165 14.9207 98.7425 14.5807 98.0455 14.5807ZM99.2525 19.1367C99.2525 18.4907 98.8445 18.0997 98.1475 18.0997H96.3965V20.1737H98.1475C98.8445 20.1737 99.2525 19.7657 99.2525 19.1367ZM110.265 21.8057H108.106V21.0407C107.511 21.6357 106.95 21.8907 105.93 21.8907C104.927 21.8907 104.179 21.6187 103.669 21.1087C103.193 20.6157 102.938 19.9017 102.938 19.1197C102.938 17.7087 103.907 16.5527 105.998 16.5527H108.055V16.1107C108.055 15.1417 107.579 14.7167 106.406 14.7167C105.607 14.7167 105.182 14.9377 104.706 15.4817L103.312 14.1047C104.179 13.1527 105.012 12.8467 106.491 12.8467C108.99 12.8467 110.265 13.9007 110.265 15.9747V21.8057ZM108.055 18.5417V18.0657H106.372C105.488 18.0657 105.063 18.4227 105.063 19.0857C105.063 19.6977 105.488 20.0887 106.406 20.0887C106.95 20.0887 107.341 20.0207 107.715 19.6637C107.97 19.4427 108.055 19.1027 108.055 18.5417ZM114.994 22.7407L112.563 24.6107V19.3917H114.994V22.7407ZM126.532 21.8057H124.322V12.0817L121.857 14.2237V11.8437L124.322 9.70166H126.532V21.8057Z" fill="black"/>
</svg>
