<svg width="247" height="31" viewBox="0 0 247 31" fill="none" xmlns="http://www.w3.org/2000/svg">
<rect x="1.5" y="2.30566" width="244" height="27" rx="13.5" fill="white" stroke="#C9A113" stroke-width="3"/>
<rect x="4.5" y="5.30566" width="21" height="20" rx="10" fill="white" stroke="#C9A113" stroke-width="9"/>
<path d="M50.197 11.8097H47.035V21.8057H44.672V11.8097H41.51V9.70166H50.197V11.8097ZM57.5386 21.8057H55.3796V21.0407C54.7846 21.6357 54.2236 21.8907 53.2036 21.8907C52.2006 21.8907 51.4526 21.6187 50.9426 21.1087C50.4666 20.6157 50.2116 19.9017 50.2116 19.1197C50.2116 17.7087 51.1806 16.5527 53.2716 16.5527H55.3286V16.1107C55.3286 15.1417 54.8526 14.7167 53.6796 14.7167C52.8806 14.7167 52.4556 14.9377 51.9796 15.4817L50.5856 14.1047C51.4526 13.1527 52.2856 12.8467 53.7646 12.8467C56.2636 12.8467 57.5386 13.9007 57.5386 15.9747V21.8057ZM55.3286 18.5417V18.0657H53.6456C52.7616 18.0657 52.3366 18.4227 52.3366 19.0857C52.3366 19.6977 52.7616 20.0887 53.6796 20.0887C54.2236 20.0887 54.6146 20.0207 54.9886 19.6637C55.2436 19.4427 55.3286 19.1027 55.3286 18.5417ZM67.1467 19.2557C67.1467 20.8197 66.0927 21.8057 64.4267 21.8057H59.9047V12.9487H64.2737C65.9397 12.9487 67.0107 13.9007 67.0107 15.3797C67.0107 16.2127 66.6537 16.8077 65.8887 17.2497C66.7387 17.6917 67.1467 18.3037 67.1467 19.2557ZM63.7467 14.5807H62.0977V16.4847H63.7467C64.4437 16.4847 64.8177 16.1277 64.8177 15.5157C64.8177 14.9207 64.4437 14.5807 63.7467 14.5807ZM64.9537 19.1367C64.9537 18.4907 64.5457 18.0997 63.8487 18.0997H62.0977V20.1737H63.8487C64.5457 20.1737 64.9537 19.7657 64.9537 19.1367ZM76.6803 17.3687C76.6803 18.8477 76.6123 20.2417 75.7623 21.1087C75.2693 21.6187 74.4873 21.9077 73.6203 21.9077C72.7193 21.9077 72.0393 21.6697 71.4783 21.0237V25.0527H69.2683V12.9487H71.4103V13.7817C72.0223 13.1017 72.6683 12.8467 73.6203 12.8467C74.4873 12.8467 75.2693 13.1357 75.7623 13.6457C76.6123 14.5127 76.6803 15.8897 76.6803 17.3687ZM74.4703 17.3687C74.4703 15.9407 74.3003 14.8357 72.9743 14.8357C71.6483 14.8357 71.4783 15.9407 71.4783 17.3687C71.4783 18.7967 71.6483 19.9187 72.9743 19.9187C74.3003 19.9187 74.4703 18.7967 74.4703 17.3687ZM86.329 21.8057H84.102V16.3997L80.991 21.8057H78.764V12.9487H80.991V18.2187L84.102 12.9487H86.329V21.8057ZM95.5598 21.8057H93.3498V18.6947C92.7718 18.7967 91.9558 18.9327 90.9358 18.9327C89.5248 18.9327 88.4538 18.0487 88.4538 16.5187V12.9487H90.6638V15.9067C90.6638 16.6377 91.0718 16.9777 91.7518 16.9777C92.3298 16.9777 92.9588 16.8757 93.3498 16.8247V12.9487H95.5598V21.8057ZM105.298 18.0657H99.7563C99.7563 19.2217 100.436 20.0377 101.694 20.0377C102.663 20.0377 103.139 19.7487 103.7 19.2047L105.043 20.5137C104.142 21.4317 103.275 21.9077 101.677 21.9077C99.5863 21.9077 97.5803 20.9557 97.5803 17.3687C97.5803 14.4787 99.1443 12.8467 101.439 12.8467C103.904 12.8467 105.298 14.6147 105.298 17.1307V18.0657ZM103.122 16.5527C103.105 16.1617 103.071 15.9237 102.918 15.6007C102.68 15.0737 102.187 14.6827 101.439 14.6827C100.691 14.6827 100.198 15.0737 99.9603 15.6007C99.8073 15.9237 99.7733 16.1617 99.7563 16.5527H103.122ZM113.779 20.7007C112.997 21.5167 112.079 21.9077 110.855 21.9077C109.087 21.9077 106.894 20.9557 106.894 17.3687C106.894 13.7817 109.087 12.8467 110.855 12.8467C112.079 12.8467 112.997 13.2207 113.779 14.0367L112.283 15.5327C111.824 15.0397 111.433 14.8357 110.855 14.8357C110.328 14.8357 109.92 15.0227 109.597 15.4137C109.257 15.8387 109.104 16.4337 109.104 17.3687C109.104 18.3037 109.257 18.9157 109.597 19.3407C109.92 19.7317 110.328 19.9187 110.855 19.9187C111.433 19.9187 111.824 19.7147 112.283 19.2217L113.779 20.7007ZM117.731 21.8057H115.504V12.9487H117.731V21.8057ZM123.443 21.8057H120.791L117.748 17.1647L120.655 12.9487H123.239L120.111 17.0797L123.443 21.8057ZM131.2 21.8057H129.041V21.0407C128.446 21.6357 127.885 21.8907 126.865 21.8907C125.862 21.8907 125.114 21.6187 124.604 21.1087C124.128 20.6157 123.873 19.9017 123.873 19.1197C123.873 17.7087 124.842 16.5527 126.933 16.5527H128.99V16.1107C128.99 15.1417 128.514 14.7167 127.341 14.7167C126.542 14.7167 126.117 14.9377 125.641 15.4817L124.247 14.1047C125.114 13.1527 125.947 12.8467 127.426 12.8467C129.925 12.8467 131.2 13.9007 131.2 15.9747V21.8057ZM128.99 18.5417V18.0657H127.307C126.423 18.0657 125.998 18.4227 125.998 19.0857C125.998 19.6977 126.423 20.0887 127.341 20.0887C127.885 20.0887 128.276 20.0207 128.65 19.6637C128.905 19.4427 128.99 19.1027 128.99 18.5417ZM138.037 16.9097V14.7167H136.303C135.572 14.7167 135.13 15.1587 135.13 15.8217C135.13 16.4677 135.572 16.9097 136.303 16.9097H138.037ZM135.351 21.8057H132.835L134.62 18.1847C133.634 17.8107 132.971 16.9267 132.971 15.7197C132.971 14.1047 134.178 12.9487 135.912 12.9487H140.213V21.8057H138.003V18.6607H136.813L135.351 21.8057ZM145.026 22.7407L142.595 24.6107V19.3917H145.026V22.7407ZM158.554 18.3037C158.554 20.7177 156.786 21.9077 154.712 21.9077C152.74 21.9077 150.887 20.8707 150.853 18.3377H153.063C153.097 19.4257 153.845 19.9187 154.712 19.9187C155.664 19.9187 156.344 19.3237 156.344 18.2357C156.344 17.2327 155.732 16.5697 154.644 16.5697H154.321V14.6487H154.644C155.715 14.6487 156.174 13.9857 156.174 13.1357C156.174 12.1157 155.494 11.5887 154.695 11.5887C153.862 11.5887 153.25 12.1327 153.199 13.0507H150.989C151.04 10.8917 152.655 9.59966 154.695 9.59966C156.837 9.59966 158.384 11.0277 158.384 13.0677C158.384 14.3767 157.789 15.1247 156.99 15.5497C157.857 16.0087 158.554 16.8417 158.554 18.3037ZM167.92 11.6907L163.993 21.8057H161.596L165.523 11.6907H162.327V13.5947H160.219V9.70166H167.92V11.6907Z" fill="black"/>
</svg>
