<svg width="247" height="31" viewBox="0 0 247 31" fill="none" xmlns="http://www.w3.org/2000/svg">
<rect x="1.5" y="2.30566" width="244" height="27" rx="13.5" fill="white" stroke="#C9A113" stroke-width="3"/>
<rect x="4.5" y="5.30566" width="21" height="20" rx="10" fill="white" stroke="#C9A113" stroke-width="9"/>
<path d="M51.234 21.8057H48.871V11.8097H44.774V21.8057H42.411V9.70166H51.234V21.8057ZM61.4267 21.8057H59.1997V16.3997L56.0887 21.8057H53.8617V12.9487H56.0887V18.2187L59.1997 12.9487H61.4267V21.8057ZM70.3324 20.7007C69.5504 21.5167 68.6324 21.9077 67.4084 21.9077C65.6404 21.9077 63.4474 20.9557 63.4474 17.3687C63.4474 13.7817 65.6404 12.8467 67.4084 12.8467C68.6324 12.8467 69.5504 13.2207 70.3324 14.0367L68.8364 15.5327C68.3774 15.0397 67.9864 14.8357 67.4084 14.8357C66.8814 14.8357 66.4734 15.0227 66.1504 15.4137C65.8104 15.8387 65.6574 16.4337 65.6574 17.3687C65.6574 18.3037 65.8104 18.9157 66.1504 19.3407C66.4734 19.7317 66.8814 19.9187 67.4084 19.9187C67.9864 19.9187 68.3774 19.7147 68.8364 19.2217L70.3324 20.7007ZM78.7554 21.8057H76.5964V21.0407C76.0014 21.6357 75.4404 21.8907 74.4204 21.8907C73.4174 21.8907 72.6694 21.6187 72.1594 21.1087C71.6834 20.6157 71.4284 19.9017 71.4284 19.1197C71.4284 17.7087 72.3974 16.5527 74.4884 16.5527H76.5454V16.1107C76.5454 15.1417 76.0694 14.7167 74.8964 14.7167C74.0974 14.7167 73.6724 14.9377 73.1964 15.4817L71.8024 14.1047C72.6694 13.1527 73.5024 12.8467 74.9814 12.8467C77.4804 12.8467 78.7554 13.9007 78.7554 15.9747V21.8057ZM76.5454 18.5417V18.0657H74.8624C73.9784 18.0657 73.5534 18.4227 73.5534 19.0857C73.5534 19.6977 73.9784 20.0887 74.8964 20.0887C75.4404 20.0887 75.8314 20.0207 76.2054 19.6637C76.4604 19.4427 76.5454 19.1027 76.5454 18.5417ZM88.5505 17.3687C88.5505 18.8477 88.4825 20.2417 87.6325 21.1087C87.1395 21.6187 86.3575 21.9077 85.4905 21.9077C84.5895 21.9077 83.9095 21.6697 83.3485 21.0237V25.0527H81.1385V12.9487H83.2805V13.7817C83.8925 13.1017 84.5385 12.8467 85.4905 12.8467C86.3575 12.8467 87.1395 13.1357 87.6325 13.6457C88.4825 14.5127 88.5505 15.8897 88.5505 17.3687ZM86.3405 17.3687C86.3405 15.9407 86.1705 14.8357 84.8445 14.8357C83.5185 14.8357 83.3485 15.9407 83.3485 17.3687C83.3485 18.7967 83.5185 19.9187 84.8445 19.9187C86.1705 19.9187 86.3405 18.7967 86.3405 17.3687ZM97.9272 18.0657H92.3852C92.3852 19.2217 93.0652 20.0377 94.3232 20.0377C95.2922 20.0377 95.7682 19.7487 96.3292 19.2047L97.6722 20.5137C96.7712 21.4317 95.9042 21.9077 94.3062 21.9077C92.2152 21.9077 90.2092 20.9557 90.2092 17.3687C90.2092 14.4787 91.7732 12.8467 94.0682 12.8467C96.5332 12.8467 97.9272 14.6147 97.9272 17.1307V18.0657ZM95.7512 16.5527C95.7342 16.1617 95.7002 15.9237 95.5472 15.6007C95.3092 15.0737 94.8162 14.6827 94.0682 14.6827C93.3202 14.6827 92.8272 15.0737 92.5892 15.6007C92.4362 15.9237 92.4022 16.1617 92.3852 16.5527H95.7512ZM107.19 19.2557C107.19 20.8197 106.136 21.8057 104.47 21.8057H99.9476V12.9487H104.317C105.983 12.9487 107.054 13.9007 107.054 15.3797C107.054 16.2127 106.697 16.8077 105.932 17.2497C106.782 17.6917 107.19 18.3037 107.19 19.2557ZM103.79 14.5807H102.141V16.4847H103.79C104.487 16.4847 104.861 16.1277 104.861 15.5157C104.861 14.9207 104.487 14.5807 103.79 14.5807ZM104.997 19.1367C104.997 18.4907 104.589 18.0997 103.892 18.0997H102.141V20.1737H103.892C104.589 20.1737 104.997 19.7657 104.997 19.1367ZM116.009 21.8057H113.85V21.0407C113.255 21.6357 112.694 21.8907 111.674 21.8907C110.671 21.8907 109.923 21.6187 109.413 21.1087C108.937 20.6157 108.682 19.9017 108.682 19.1197C108.682 17.7087 109.651 16.5527 111.742 16.5527H113.799V16.1107C113.799 15.1417 113.323 14.7167 112.15 14.7167C111.351 14.7167 110.926 14.9377 110.45 15.4817L109.056 14.1047C109.923 13.1527 110.756 12.8467 112.235 12.8467C114.734 12.8467 116.009 13.9007 116.009 15.9747V21.8057ZM113.799 18.5417V18.0657H112.116C111.232 18.0657 110.807 18.4227 110.807 19.0857C110.807 19.6977 111.232 20.0887 112.15 20.0887C112.694 20.0887 113.085 20.0207 113.459 19.6637C113.714 19.4427 113.799 19.1027 113.799 18.5417ZM120.738 22.7407L118.307 24.6107V19.3917H120.738V22.7407ZM132.277 21.8057H130.067V12.0817L127.602 14.2237V11.8437L130.067 9.70166H132.277V21.8057ZM143.581 18.2867C143.581 20.6327 141.847 21.9077 139.705 21.9077C137.563 21.9077 135.829 20.6327 135.829 18.2867C135.829 16.8077 136.679 16.0087 137.342 15.5667C136.73 15.1417 135.982 14.3427 135.982 13.0507C135.982 10.9087 137.682 9.59966 139.705 9.59966C141.728 9.59966 143.411 10.9087 143.411 13.0507C143.411 14.3427 142.663 15.1417 142.051 15.5667C142.714 16.0087 143.581 16.8077 143.581 18.2867ZM141.371 18.2527C141.371 17.3177 140.64 16.5697 139.705 16.5697C138.77 16.5697 138.039 17.3177 138.039 18.2527C138.039 19.1877 138.77 19.9187 139.705 19.9187C140.64 19.9187 141.371 19.1877 141.371 18.2527ZM141.201 13.1187C141.201 12.2517 140.572 11.5887 139.705 11.5887C138.838 11.5887 138.192 12.2517 138.192 13.1187C138.192 14.0027 138.838 14.6487 139.705 14.6487C140.572 14.6487 141.201 14.0027 141.201 13.1187Z" fill="black"/>
</svg>
