<svg width="526" height="433" viewBox="0 0 526 433" fill="none" xmlns="http://www.w3.org/2000/svg">
<path fill-rule="evenodd" clip-rule="evenodd" d="M359.648 455.402L365.796 499.23C366.479 505.394 362.38 511.557 356.233 512.242C350.086 512.927 343.939 508.818 343.256 502.654L333.693 435.542L359.648 455.402ZM477.812 275.294L518.794 291.73C524.941 293.785 527.673 300.633 524.941 306.796C522.892 312.959 516.062 315.699 509.914 312.96L447.076 287.621L477.812 275.294ZM380.822 82.8604L415.657 55.4676C420.438 51.3587 427.951 52.7283 431.366 57.5221C435.464 62.3158 434.098 69.8488 429.317 73.2729L376.041 115.732L380.822 82.8604ZM442.978 381.441L470.299 416.367C474.397 421.161 473.031 428.694 468.25 432.118C463.468 436.227 455.955 434.857 452.54 430.064L410.192 376.648L442.978 381.441ZM455.272 166.408L498.986 160.245C505.133 159.56 511.28 163.669 511.963 169.832C512.646 175.996 508.548 182.159 502.401 182.844L435.464 192.431L455.272 166.408ZM274.953 47.9346L291.346 6.84548C294.078 1.36693 300.908 -1.37234 306.372 0.682112C312.519 2.73657 315.252 9.58476 312.519 15.7481L287.247 78.7515L274.953 47.9346ZM83.0223 145.179L55.7012 110.253C51.6031 105.459 52.9691 97.9264 57.7503 94.5023C62.5315 90.3934 70.0448 91.763 73.4599 96.5568L115.125 149.973L83.0223 145.179ZM166.352 70.5336L160.204 27.39C159.521 21.2267 163.62 15.0633 169.767 14.3785C175.914 13.6937 182.061 17.8026 182.744 23.966L192.307 91.0782L166.352 70.5336ZM250.364 478.686L233.971 519.775C231.922 525.938 225.092 528.677 218.945 525.938C212.798 523.884 210.065 517.036 212.797 510.872L238.07 447.869L250.364 478.686ZM48.1879 250.641L7.20629 234.205C1.05905 232.151 -1.67306 225.303 1.05905 219.139C3.10813 212.976 9.9384 210.237 16.0856 212.976L78.9241 238.314L48.1879 250.641ZM70.7278 360.212L27.6971 366.375C20.8668 367.06 15.4026 362.951 14.7196 356.788C14.0366 350.625 18.1347 344.461 24.282 343.776L91.2186 334.189L70.7278 360.212ZM145.178 443.76L110.343 471.153C105.562 475.262 98.0489 473.892 94.6338 469.098C90.5356 464.304 91.9017 456.771 96.6829 453.347L149.959 411.573L145.178 443.76ZM509.914 212.976C516.062 210.922 522.209 213.661 524.941 219.139C526.99 225.303 524.258 231.466 518.794 234.205L420.438 273.925C414.291 275.979 408.143 273.24 405.411 267.761C403.362 261.598 406.094 255.435 411.558 252.695L509.914 212.976ZM429.317 452.663C434.098 456.771 435.464 463.62 431.366 468.413C427.268 473.207 420.438 474.577 415.657 470.468L333.01 405.41C328.229 401.301 326.863 394.453 330.961 389.659C335.059 384.865 341.89 383.496 346.671 387.605L429.317 452.663ZM501.718 343.776C507.865 344.461 511.963 350.625 511.28 356.788C510.597 362.951 504.45 367.06 498.303 366.375L393.8 351.309C387.652 350.625 383.554 344.461 384.237 338.298C384.92 332.134 391.068 327.341 397.215 328.71L501.718 343.776ZM343.256 23.966C343.939 17.8026 350.086 13.0089 356.233 14.3785C362.38 15.0633 366.479 20.5419 365.796 27.39L350.769 132.167C350.086 138.331 343.939 142.44 337.792 141.755C331.644 141.07 327.546 134.907 328.229 128.743L343.256 23.966ZM451.857 95.8719C455.955 91.0782 462.785 89.7086 467.567 93.8175C472.348 97.9264 473.714 104.775 469.616 109.568L404.728 192.431C400.63 197.225 393.8 198.595 389.019 194.486C384.237 190.377 382.871 183.529 386.969 178.735L451.857 95.8719ZM212.797 15.7481C210.748 9.58476 213.481 3.42139 218.945 0.682112C225.092 -1.37234 231.239 1.36693 233.971 6.84548L273.587 105.459C275.636 111.623 272.904 117.786 267.44 120.525C261.292 122.58 255.145 119.841 252.413 114.362L212.797 15.7481ZM16.0856 312.96C9.9384 315.014 3.79116 312.275 1.05905 306.796C-0.990035 301.318 1.74207 294.469 7.88932 291.73L105.562 252.011C111.709 249.956 117.857 252.695 120.589 258.174C122.638 264.337 119.906 270.501 114.442 273.24L16.0856 312.96ZM24.282 182.844C18.1347 182.159 14.0366 175.996 14.7196 169.832C15.4026 163.669 21.5499 159.56 27.6971 160.245L132.2 175.311C138.348 175.996 143.129 182.159 141.763 188.322C141.08 194.486 134.932 199.28 128.785 197.91L24.282 182.844ZM95.9998 73.9577C91.2186 69.8488 89.8526 63.0006 93.9507 58.2069C98.0489 53.4132 104.879 52.0435 109.66 56.1524L192.307 121.21C197.088 125.319 198.454 132.167 194.356 136.961C190.258 141.755 183.427 143.124 178.646 139.016L95.9998 73.9577ZM312.519 510.872C314.569 517.036 311.836 523.199 306.372 525.938C300.225 527.993 294.078 525.253 291.346 519.775L252.413 421.846C250.364 415.682 253.096 409.519 258.56 406.78C264.708 404.725 270.855 407.464 273.587 412.943L312.519 510.872ZM182.744 502.654C182.061 508.818 175.914 513.611 169.767 512.242C163.62 511.557 159.521 505.394 160.204 499.23L175.231 394.453C175.914 388.29 182.061 384.181 188.209 384.865C194.356 385.55 198.454 391.714 197.771 397.877L182.744 502.654ZM74.143 430.064C70.0448 434.857 63.2145 436.227 58.4333 432.118C53.6521 428.009 52.2861 421.161 56.3843 416.367L121.272 333.504C125.37 328.71 132.2 327.341 136.981 331.45C141.763 335.559 143.129 342.407 139.031 347.2L74.143 430.064ZM190.941 191.062C172.499 209.552 160.887 234.89 160.887 263.653C160.887 291.73 172.499 317.753 190.941 336.243C209.382 354.733 234.654 366.375 263.342 366.375C291.346 366.375 317.301 354.733 335.742 336.243C354.184 317.753 365.796 292.415 365.796 263.653C365.796 235.575 354.184 209.552 335.742 191.062C317.301 172.572 292.029 160.93 263.342 160.93C234.654 160.93 209.382 172.572 190.941 191.062ZM137.664 262.968C137.664 228.727 151.325 197.225 174.548 174.626C197.088 152.027 228.507 137.646 262.659 137.646C296.81 137.646 328.229 151.342 350.769 174.626C373.309 197.225 387.652 228.727 387.652 262.968C387.652 297.209 373.992 328.71 350.769 351.309C328.229 373.908 296.81 388.29 262.659 388.29C228.507 388.29 197.088 374.593 174.548 351.309C152.008 329.395 137.664 297.893 137.664 262.968Z" fill="#E0C693" fill-opacity="0.51"/>
</svg>
